<ttFont>
    <TTGlyph name="A" xMin="15" yMin="0" xMax="770" yMax="700">
      <contour>
        <pt x="284" y="700" on="1"/>
        <pt x="501" y="700" on="1"/>
        <pt x="537" y="700" on="0"/>
        <pt x="546" y="667" on="1"/>
        <pt x="769" y="29" on="1"/>
        <pt x="770" y="26" on="0"/>
        <pt x="770" y="13" on="0"/>
        <pt x="757" y="0" on="0"/>
        <pt x="748" y="0" on="1"/>
        <pt x="563" y="0" on="1"/>
        <pt x="533" y="0" on="0"/>
        <pt x="524" y="25" on="1"/>
        <pt x="500" y="91" on="1"/>
        <pt x="285" y="91" on="1"/>
        <pt x="261" y="25" on="1"/>
        <pt x="252" y="0" on="0"/>
        <pt x="222" y="0" on="1"/>
        <pt x="37" y="0" on="1"/>
        <pt x="28" y="0" on="0"/>
        <pt x="15" y="13" on="0"/>
        <pt x="15" y="26" on="0"/>
        <pt x="16" y="29" on="1"/>
        <pt x="239" y="667" on="1"/>
        <pt x="248" y="700" on="0"/>
      </contour>
      <contour>
        <pt x="336" y="286" on="1"/>
        <pt x="449" y="286" on="1"/>
        <pt x="392" y="472" on="1"/>
      </contour>
    </TTGlyph>
    <TTGlyph name="AE" xMin="15" yMin="0" xMax="979" yMax="700">
      <contour>
        <pt x="284" y="700" on="1"/>
        <pt x="944" y="700" on="1"/>
        <pt x="955" y="700" on="0"/>
        <pt x="971" y="684" on="0"/>
        <pt x="971" y="673" on="1"/>
        <pt x="971" y="532" on="1"/>
        <pt x="971" y="521" on="0"/>
        <pt x="955" y="505" on="0"/>
        <pt x="944" y="505" on="1"/>
        <pt x="674" y="505" on="1"/>
        <pt x="674" y="442" on="1"/>
        <pt x="922" y="442" on="1"/>
        <pt x="933" y="442" on="0"/>
        <pt x="949" y="426" on="0"/>
        <pt x="949" y="415" on="1"/>
        <pt x="949" y="285" on="1"/>
        <pt x="949" y="274" on="0"/>
        <pt x="933" y="258" on="0"/>
        <pt x="922" y="258" on="1"/>
        <pt x="674" y="258" on="1"/>
        <pt x="674" y="195" on="1"/>
        <pt x="952" y="195" on="1"/>
        <pt x="963" y="195" on="0"/>
        <pt x="979" y="179" on="0"/>
        <pt x="979" y="168" on="1"/>
        <pt x="979" y="27" on="1"/>
        <pt x="979" y="16" on="0"/>
        <pt x="963" y="0" on="0"/>
        <pt x="952" y="0" on="1"/>
        <pt x="461" y="0" on="1"/>
        <pt x="450" y="0" on="0"/>
        <pt x="434" y="16" on="0"/>
        <pt x="434" y="27" on="1"/>
        <pt x="434" y="91" on="1"/>
        <pt x="285" y="91" on="1"/>
        <pt x="261" y="25" on="1"/>
        <pt x="252" y="0" on="0"/>
        <pt x="222" y="0" on="1"/>
        <pt x="37" y="0" on="1"/>
        <pt x="28" y="0" on="0"/>
        <pt x="15" y="13" on="0"/>
        <pt x="15" y="26" on="0"/>
        <pt x="16" y="29" on="1"/>
        <pt x="239" y="667" on="1"/>
        <pt x="248" y="700" on="0"/>
      </contour>
      <contour>
        <pt x="434" y="286" on="1"/>
        <pt x="434" y="505" on="1"/>
        <pt x="402" y="505" on="1"/>
        <pt x="336" y="286" on="1"/>
      </contour>
    </TTGlyph>
    <TTGlyph name="AEacute" xMin="15" yMin="0" xMax="979" yMax="922">
      <contour>
        <pt x="284" y="700" on="1"/>
        <pt x="944" y="700" on="1"/>
        <pt x="955" y="700" on="0"/>
        <pt x="971" y="684" on="0"/>
        <pt x="971" y="673" on="1"/>
        <pt x="971" y="532" on="1"/>
        <pt x="971" y="521" on="0"/>
        <pt x="955" y="505" on="0"/>
        <pt x="944" y="505" on="1"/>
        <pt x="674" y="505" on="1"/>
        <pt x="674" y="442" on="1"/>
        <pt x="922" y="442" on="1"/>
        <pt x="933" y="442" on="0"/>
        <pt x="949" y="426" on="0"/>
        <pt x="949" y="415" on="1"/>
        <pt x="949" y="285" on="1"/>
        <pt x="949" y="274" on="0"/>
        <pt x="933" y="258" on="0"/>
        <pt x="922" y="258" on="1"/>
        <pt x="674" y="258" on="1"/>
        <pt x="674" y="195" on="1"/>
        <pt x="952" y="195" on="1"/>
        <pt x="963" y="195" on="0"/>
        <pt x="979" y="179" on="0"/>
        <pt x="979" y="168" on="1"/>
        <pt x="979" y="27" on="1"/>
        <pt x="979" y="16" on="0"/>
        <pt x="963" y="0" on="0"/>
        <pt x="952" y="0" on="1"/>
        <pt x="461" y="0" on="1"/>
        <pt x="450" y="0" on="0"/>
        <pt x="434" y="16" on="0"/>
        <pt x="434" y="27" on="1"/>
        <pt x="434" y="91" on="1"/>
        <pt x="285" y="91" on="1"/>
        <pt x="261" y="25" on="1"/>
        <pt x="252" y="0" on="0"/>
        <pt x="222" y="0" on="1"/>
        <pt x="37" y="0" on="1"/>
        <pt x="28" y="0" on="0"/>
        <pt x="15" y="13" on="0"/>
        <pt x="15" y="26" on="0"/>
        <pt x="16" y="29" on="1"/>
        <pt x="239" y="667" on="1"/>
        <pt x="248" y="700" on="0"/>
      </contour>
      <contour>
        <pt x="434" y="286" on="1"/>
        <pt x="434" y="505" on="1"/>
        <pt x="402" y="505" on="1"/>
        <pt x="336" y="286" on="1"/>
      </contour>
      <contour>
        <pt x="594" y="922" on="1"/>
        <pt x="791" y="922" on="1"/>
        <pt x="810" y="922" on="0"/>
        <pt x="810" y="902" on="1"/>
        <pt x="810" y="895" on="0"/>
        <pt x="805" y="890" on="1"/>
        <pt x="647" y="760" on="1"/>
        <pt x="636" y="750" on="0"/>
        <pt x="606" y="750" on="1"/>
        <pt x="466" y="750" on="1"/>
        <pt x="450" y="750" on="0"/>
        <pt x="450" y="766" on="1"/>
        <pt x="450" y="774" on="0"/>
        <pt x="455" y="779" on="1"/>
        <pt x="557" y="903" on="1"/>
        <pt x="574" y="922" on="0"/>
      </contour>
    </TTGlyph>
    <TTGlyph name="Aacute" xMin="15" yMin="0" xMax="770" yMax="922">
      <contour>
        <pt x="284" y="700" on="1"/>
        <pt x="501" y="700" on="1"/>
        <pt x="537" y="700" on="0"/>
        <pt x="546" y="667" on="1"/>
        <pt x="769" y="29" on="1"/>
        <pt x="770" y="26" on="0"/>
        <pt x="770" y="13" on="0"/>
        <pt x="757" y="0" on="0"/>
        <pt x="748" y="0" on="1"/>
        <pt x="563" y="0" on="1"/>
        <pt x="533" y="0" on="0"/>
        <pt x="524" y="25" on="1"/>
        <pt x="500" y="91" on="1"/>
        <pt x="285" y="91" on="1"/>
        <pt x="261" y="25" on="1"/>
        <pt x="252" y="0" on="0"/>
        <pt x="222" y="0" on="1"/>
        <pt x="37" y="0" on="1"/>
        <pt x="28" y="0" on="0"/>
        <pt x="15" y="13" on="0"/>
        <pt x="15" y="26" on="0"/>
        <pt x="16" y="29" on="1"/>
        <pt x="239" y="667" on="1"/>
        <pt x="248" y="700" on="0"/>
      </contour>
      <contour>
        <pt x="336" y="286" on="1"/>
        <pt x="449" y="286" on="1"/>
        <pt x="392" y="472" on="1"/>
      </contour>
      <contour>
        <pt x="437" y="922" on="1"/>
        <pt x="634" y="922" on="1"/>
        <pt x="653" y="922" on="0"/>
        <pt x="653" y="902" on="1"/>
        <pt x="653" y="895" on="0"/>
        <pt x="648" y="890" on="1"/>
        <pt x="490" y="760" on="1"/>
        <pt x="479" y="750" on="0"/>
        <pt x="449" y="750" on="1"/>
        <pt x="309" y="750" on="1"/>
        <pt x="293" y="750" on="0"/>
        <pt x="293" y="766" on="1"/>
        <pt x="293" y="774" on="0"/>
        <pt x="298" y="779" on="1"/>
        <pt x="400" y="903" on="1"/>
        <pt x="417" y="922" on="0"/>
      </contour>
    </TTGlyph>
    <TTGlyph name="Abreve" xMin="15" yMin="0" xMax="770" yMax="925">
      <contour>
        <pt x="284" y="700" on="1"/>
        <pt x="501" y="700" on="1"/>
        <pt x="537" y="700" on="0"/>
        <pt x="546" y="667" on="1"/>
        <pt x="769" y="29" on="1"/>
        <pt x="770" y="26" on="0"/>
        <pt x="770" y="13" on="0"/>
        <pt x="757" y="0" on="0"/>
        <pt x="748" y="0" on="1"/>
        <pt x="563" y="0" on="1"/>
        <pt x="533" y="0" on="0"/>
        <pt x="524" y="25" on="1"/>
        <pt x="500" y="91" on="1"/>
        <pt x="285" y="91" on="1"/>
        <pt x="261" y="25" on="1"/>
        <pt x="252" y="0" on="0"/>
        <pt x="222" y="0" on="1"/>
        <pt x="37" y="0" on="1"/>
        <pt x="28" y="0" on="0"/>
        <pt x="15" y="13" on="0"/>
        <pt x="15" y="26" on="0"/>
        <pt x="16" y="29" on="1"/>
        <pt x="239" y="667" on="1"/>
        <pt x="248" y="700" on="0"/>
      </contour>
      <contour>
        <pt x="336" y="286" on="1"/>
        <pt x="449" y="286" on="1"/>
        <pt x="392" y="472" on="1"/>
      </contour>
      <contour>
        <pt x="433" y="906" on="1"/>
        <pt x="433" y="925" on="0"/>
        <pt x="452" y="925" on="1"/>
        <pt x="551" y="925" on="1"/>
        <pt x="570" y="925" on="0"/>
        <pt x="570" y="906" on="1"/>
        <pt x="570" y="835" on="0"/>
        <pt x="480" y="750" on="0"/>
        <pt x="305" y="750" on="0"/>
        <pt x="215" y="836" on="0"/>
        <pt x="215" y="906" on="1"/>
        <pt x="215" y="925" on="0"/>
        <pt x="234" y="925" on="1"/>
        <pt x="333" y="925" on="1"/>
        <pt x="352" y="925" on="0"/>
        <pt x="352" y="906" on="1"/>
        <pt x="352" y="851" on="0"/>
        <pt x="433" y="851" on="0"/>
      </contour>
    </TTGlyph>
    <TTGlyph name="Acircumflex" xMin="15" yMin="0" xMax="770" yMax="922">
      <contour>
        <pt x="284" y="700" on="1"/>
        <pt x="501" y="700" on="1"/>
        <pt x="537" y="700" on="0"/>
        <pt x="546" y="667" on="1"/>
        <pt x="769" y="29" on="1"/>
        <pt x="770" y="26" on="0"/>
        <pt x="770" y="13" on="0"/>
        <pt x="757" y="0" on="0"/>
        <pt x="748" y="0" on="1"/>
        <pt x="563" y="0" on="1"/>
        <pt x="533" y="0" on="0"/>
        <pt x="524" y="25" on="1"/>
        <pt x="500" y="91" on="1"/>
        <pt x="285" y="91" on="1"/>
        <pt x="261" y="25" on="1"/>
        <pt x="252" y="0" on="0"/>
        <pt x="222" y="0" on="1"/>
        <pt x="37" y="0" on="1"/>
        <pt x="28" y="0" on="0"/>
        <pt x="15" y="13" on="0"/>
        <pt x="15" y="26" on="0"/>
        <pt x="16" y="29" on="1"/>
        <pt x="239" y="667" on="1"/>
        <pt x="248" y="700" on="0"/>
      </contour>
      <contour>
        <pt x="336" y="286" on="1"/>
        <pt x="449" y="286" on="1"/>
        <pt x="392" y="472" on="1"/>
      </contour>
      <contour>
        <pt x="327" y="922" on="1"/>
        <pt x="457" y="922" on="1"/>
        <pt x="468" y="922" on="0"/>
        <pt x="478" y="916" on="0"/>
        <pt x="494" y="903" on="1"/>
        <pt x="611" y="779" on="1"/>
        <pt x="616" y="774" on="0"/>
        <pt x="616" y="766" on="1"/>
        <pt x="616" y="750" on="0"/>
        <pt x="600" y="750" on="1"/>
        <pt x="529" y="750" on="1"/>
        <pt x="510" y="750" on="0"/>
        <pt x="489" y="757" on="1"/>
        <pt x="392" y="799" on="1"/>
        <pt x="295" y="757" on="1"/>
        <pt x="274" y="750" on="0"/>
        <pt x="255" y="750" on="1"/>
        <pt x="184" y="750" on="1"/>
        <pt x="168" y="750" on="0"/>
        <pt x="168" y="766" on="1"/>
        <pt x="168" y="774" on="0"/>
        <pt x="173" y="779" on="1"/>
        <pt x="290" y="903" on="1"/>
        <pt x="306" y="916" on="0"/>
        <pt x="316" y="922" on="0"/>
      </contour>
    </TTGlyph>
    <TTGlyph name="Acute" xMin="50" yMin="750" xMax="410" yMax="922">
      <contour>
        <pt x="194" y="922" on="1"/>
        <pt x="391" y="922" on="1"/>
        <pt x="410" y="922" on="0"/>
        <pt x="410" y="902" on="1"/>
        <pt x="410" y="895" on="0"/>
        <pt x="405" y="890" on="1"/>
        <pt x="247" y="760" on="1"/>
        <pt x="236" y="750" on="0"/>
        <pt x="206" y="750" on="1"/>
        <pt x="66" y="750" on="1"/>
        <pt x="50" y="750" on="0"/>
        <pt x="50" y="766" on="1"/>
        <pt x="50" y="774" on="0"/>
        <pt x="55" y="779" on="1"/>
        <pt x="157" y="903" on="1"/>
        <pt x="174" y="922" on="0"/>
      </contour>
    </TTGlyph>
    <TTGlyph name="Adieresis" xMin="15" yMin="0" xMax="770" yMax="922">
      <contour>
        <pt x="284" y="700" on="1"/>
        <pt x="501" y="700" on="1"/>
        <pt x="537" y="700" on="0"/>
        <pt x="546" y="667" on="1"/>
        <pt x="769" y="29" on="1"/>
        <pt x="770" y="26" on="0"/>
        <pt x="770" y="13" on="0"/>
        <pt x="757" y="0" on="0"/>
        <pt x="748" y="0" on="1"/>
        <pt x="563" y="0" on="1"/>
        <pt x="533" y="0" on="0"/>
        <pt x="524" y="25" on="1"/>
        <pt x="500" y="91" on="1"/>
        <pt x="285" y="91" on="1"/>
        <pt x="261" y="25" on="1"/>
        <pt x="252" y="0" on="0"/>
        <pt x="222" y="0" on="1"/>
        <pt x="37" y="0" on="1"/>
        <pt x="28" y="0" on="0"/>
        <pt x="15" y="13" on="0"/>
        <pt x="15" y="26" on="0"/>
        <pt x="16" y="29" on="1"/>
        <pt x="239" y="667" on="1"/>
        <pt x="248" y="700" on="0"/>
      </contour>
      <contour>
        <pt x="336" y="286" on="1"/>
        <pt x="449" y="286" on="1"/>
        <pt x="392" y="472" on="1"/>
      </contour>
      <contour>
        <pt x="465" y="922" on="1"/>
        <pt x="591" y="922" on="1"/>
        <pt x="601" y="922" on="0"/>
        <pt x="614" y="909" on="0"/>
        <pt x="614" y="899" on="1"/>
        <pt x="614" y="773" on="1"/>
        <pt x="614" y="763" on="0"/>
        <pt x="601" y="750" on="0"/>
        <pt x="591" y="750" on="1"/>
        <pt x="465" y="750" on="1"/>
        <pt x="455" y="750" on="0"/>
        <pt x="442" y="763" on="0"/>
        <pt x="442" y="773" on="1"/>
        <pt x="442" y="899" on="1"/>
        <pt x="442" y="909" on="0"/>
        <pt x="455" y="922" on="0"/>
      </contour>
      <contour>
        <pt x="194" y="922" on="1"/>
        <pt x="320" y="922" on="1"/>
        <pt x="330" y="922" on="0"/>
        <pt x="343" y="909" on="0"/>
        <pt x="343" y="899" on="1"/>
        <pt x="343" y="773" on="1"/>
        <pt x="343" y="763" on="0"/>
        <pt x="330" y="750" on="0"/>
        <pt x="320" y="750" on="1"/>
        <pt x="194" y="750" on="1"/>
        <pt x="184" y="750" on="0"/>
        <pt x="171" y="763" on="0"/>
        <pt x="171" y="773" on="1"/>
        <pt x="171" y="899" on="1"/>
        <pt x="171" y="909" on="0"/>
        <pt x="184" y="922" on="0"/>
      </contour>
    </TTGlyph>
    <TTGlyph name="Agrave" xMin="15" yMin="0" xMax="770" yMax="922">
      <contour>
        <pt x="284" y="700" on="1"/>
        <pt x="501" y="700" on="1"/>
        <pt x="537" y="700" on="0"/>
        <pt x="546" y="667" on="1"/>
        <pt x="769" y="29" on="1"/>
        <pt x="770" y="26" on="0"/>
        <pt x="770" y="13" on="0"/>
        <pt x="757" y="0" on="0"/>
        <pt x="748" y="0" on="1"/>
        <pt x="563" y="0" on="1"/>
        <pt x="533" y="0" on="0"/>
        <pt x="524" y="25" on="1"/>
        <pt x="500" y="91" on="1"/>
        <pt x="285" y="91" on="1"/>
        <pt x="261" y="25" on="1"/>
        <pt x="252" y="0" on="0"/>
        <pt x="222" y="0" on="1"/>
        <pt x="37" y="0" on="1"/>
        <pt x="28" y="0" on="0"/>
        <pt x="15" y="13" on="0"/>
        <pt x="15" y="26" on="0"/>
        <pt x="16" y="29" on="1"/>
        <pt x="239" y="667" on="1"/>
        <pt x="248" y="700" on="0"/>
      </contour>
      <contour>
        <pt x="336" y="286" on="1"/>
        <pt x="449" y="286" on="1"/>
        <pt x="392" y="472" on="1"/>
      </contour>
      <contour>
        <pt x="485" y="766" on="1"/>
        <pt x="485" y="750" on="0"/>
        <pt x="469" y="750" on="1"/>
        <pt x="329" y="750" on="1"/>
        <pt x="299" y="750" on="0"/>
        <pt x="288" y="760" on="1"/>
        <pt x="130" y="890" on="1"/>
        <pt x="125" y="895" on="0"/>
        <pt x="125" y="902" on="1"/>
        <pt x="125" y="922" on="0"/>
        <pt x="144" y="922" on="1"/>
        <pt x="341" y="922" on="1"/>
        <pt x="361" y="922" on="0"/>
        <pt x="378" y="903" on="1"/>
        <pt x="480" y="779" on="1"/>
        <pt x="485" y="774" on="0"/>
      </contour>
    </TTGlyph>
    <TTGlyph name="Amacron" xMin="15" yMin="0" xMax="770" yMax="917">
      <contour>
        <pt x="284" y="700" on="1"/>
        <pt x="501" y="700" on="1"/>
        <pt x="537" y="700" on="0"/>
        <pt x="546" y="667" on="1"/>
        <pt x="769" y="29" on="1"/>
        <pt x="770" y="26" on="0"/>
        <pt x="770" y="13" on="0"/>
        <pt x="757" y="0" on="0"/>
        <pt x="748" y="0" on="1"/>
        <pt x="563" y="0" on="1"/>
        <pt x="533" y="0" on="0"/>
        <pt x="524" y="25" on="1"/>
        <pt x="500" y="91" on="1"/>
        <pt x="285" y="91" on="1"/>
        <pt x="261" y="25" on="1"/>
        <pt x="252" y="0" on="0"/>
        <pt x="222" y="0" on="1"/>
        <pt x="37" y="0" on="1"/>
        <pt x="28" y="0" on="0"/>
        <pt x="15" y="13" on="0"/>
        <pt x="15" y="26" on="0"/>
        <pt x="16" y="29" on="1"/>
        <pt x="239" y="667" on="1"/>
        <pt x="248" y="700" on="0"/>
      </contour>
      <contour>
        <pt x="336" y="286" on="1"/>
        <pt x="449" y="286" on="1"/>
        <pt x="392" y="472" on="1"/>
      </contour>
      <contour>
        <pt x="204" y="917" on="1"/>
        <pt x="581" y="917" on="1"/>
        <pt x="591" y="917" on="0"/>
        <pt x="604" y="904" on="0"/>
        <pt x="604" y="894" on="1"/>
        <pt x="604" y="778" on="1"/>
        <pt x="604" y="768" on="0"/>
        <pt x="591" y="755" on="0"/>
        <pt x="581" y="755" on="1"/>
        <pt x="204" y="755" on="1"/>
        <pt x="194" y="755" on="0"/>
        <pt x="181" y="768" on="0"/>
        <pt x="181" y="778" on="1"/>
        <pt x="181" y="894" on="1"/>
        <pt x="181" y="904" on="0"/>
        <pt x="194" y="917" on="0"/>
      </contour>
    </TTGlyph>
    <TTGlyph name="Aogonek" xMin="15" yMin="-222" xMax="770" yMax="700">
      <contour>
        <pt x="284" y="700" on="1"/>
        <pt x="501" y="700" on="1"/>
        <pt x="537" y="700" on="0"/>
        <pt x="546" y="667" on="1"/>
        <pt x="769" y="29" on="1"/>
        <pt x="770" y="26" on="0"/>
        <pt x="770" y="13" on="0"/>
        <pt x="757" y="0" on="0"/>
        <pt x="748" y="0" on="1"/>
        <pt x="717" y="0" on="1"/>
        <pt x="694" y="-1" on="0"/>
        <pt x="673" y="-32" on="0"/>
        <pt x="673" y="-69" on="0"/>
        <pt x="697" y="-100" on="0"/>
        <pt x="723" y="-100" on="1"/>
        <pt x="733" y="-100" on="1"/>
        <pt x="744" y="-100" on="0"/>
        <pt x="760" y="-116" on="0"/>
        <pt x="760" y="-127" on="1"/>
        <pt x="760" y="-195" on="1"/>
        <pt x="760" y="-206" on="0"/>
        <pt x="744" y="-222" on="0"/>
        <pt x="733" y="-222" on="1"/>
        <pt x="719" y="-222" on="1"/>
        <pt x="633" y="-222" on="0"/>
        <pt x="547" y="-126" on="0"/>
        <pt x="547" y="-50" on="1"/>
        <pt x="547" y="-25" on="0"/>
        <pt x="552" y="0" on="1"/>
        <pt x="530" y="4" on="0"/>
        <pt x="524" y="25" on="1"/>
        <pt x="500" y="91" on="1"/>
        <pt x="285" y="91" on="1"/>
        <pt x="261" y="25" on="1"/>
        <pt x="252" y="0" on="0"/>
        <pt x="222" y="0" on="1"/>
        <pt x="37" y="0" on="1"/>
        <pt x="28" y="0" on="0"/>
        <pt x="15" y="13" on="0"/>
        <pt x="15" y="26" on="0"/>
        <pt x="16" y="29" on="1"/>
        <pt x="239" y="667" on="1"/>
        <pt x="248" y="700" on="0"/>
      </contour>
      <contour>
        <pt x="336" y="286" on="1"/>
        <pt x="449" y="286" on="1"/>
        <pt x="392" y="472" on="1"/>
      </contour>
    </TTGlyph>
    <TTGlyph name="Aring" xMin="15" yMin="0" xMax="770" yMax="932">
      <contour>
        <pt x="284" y="700" on="1"/>
        <pt x="501" y="700" on="1"/>
        <pt x="537" y="700" on="0"/>
        <pt x="546" y="667" on="1"/>
        <pt x="769" y="29" on="1"/>
        <pt x="770" y="26" on="0"/>
        <pt x="770" y="13" on="0"/>
        <pt x="757" y="0" on="0"/>
        <pt x="748" y="0" on="1"/>
        <pt x="563" y="0" on="1"/>
        <pt x="533" y="0" on="0"/>
        <pt x="524" y="25" on="1"/>
        <pt x="500" y="91" on="1"/>
        <pt x="285" y="91" on="1"/>
        <pt x="261" y="25" on="1"/>
        <pt x="252" y="0" on="0"/>
        <pt x="222" y="0" on="1"/>
        <pt x="37" y="0" on="1"/>
        <pt x="28" y="0" on="0"/>
        <pt x="15" y="13" on="0"/>
        <pt x="15" y="26" on="0"/>
        <pt x="16" y="29" on="1"/>
        <pt x="239" y="667" on="1"/>
        <pt x="248" y="700" on="0"/>
      </contour>
      <contour>
        <pt x="336" y="286" on="1"/>
        <pt x="449" y="286" on="1"/>
        <pt x="392" y="472" on="1"/>
      </contour>
      <contour>
        <pt x="503" y="794" on="0"/>
        <pt x="443" y="740" on="0"/>
        <pt x="342" y="740" on="0"/>
        <pt x="282" y="794" on="0"/>
        <pt x="282" y="879" on="0"/>
        <pt x="342" y="932" on="0"/>
        <pt x="443" y="932" on="0"/>
        <pt x="503" y="879" on="0"/>
      </contour>
      <contour>
        <pt x="363" y="805" on="0"/>
        <pt x="421" y="805" on="0"/>
        <pt x="421" y="867" on="0"/>
        <pt x="363" y="867" on="0"/>
      </contour>
    </TTGlyph>
    <TTGlyph name="Atilde" xMin="15" yMin="0" xMax="770" yMax="915">
      <contour>
        <pt x="284" y="700" on="1"/>
        <pt x="501" y="700" on="1"/>
        <pt x="537" y="700" on="0"/>
        <pt x="546" y="667" on="1"/>
        <pt x="769" y="29" on="1"/>
        <pt x="770" y="26" on="0"/>
        <pt x="770" y="13" on="0"/>
        <pt x="757" y="0" on="0"/>
        <pt x="748" y="0" on="1"/>
        <pt x="563" y="0" on="1"/>
        <pt x="533" y="0" on="0"/>
        <pt x="524" y="25" on="1"/>
        <pt x="500" y="91" on="1"/>
        <pt x="285" y="91" on="1"/>
        <pt x="261" y="25" on="1"/>
        <pt x="252" y="0" on="0"/>
        <pt x="222" y="0" on="1"/>
        <pt x="37" y="0" on="1"/>
        <pt x="28" y="0" on="0"/>
        <pt x="15" y="13" on="0"/>
        <pt x="15" y="26" on="0"/>
        <pt x="16" y="29" on="1"/>
        <pt x="239" y="667" on="1"/>
        <pt x="248" y="700" on="0"/>
      </contour>
      <contour>
        <pt x="336" y="286" on="1"/>
        <pt x="449" y="286" on="1"/>
        <pt x="392" y="472" on="1"/>
      </contour>
      <contour>
        <pt x="564" y="779" on="0"/>
        <pt x="507" y="747" on="0"/>
        <pt x="436" y="747" on="0"/>
        <pt x="348" y="781" on="0"/>
        <pt x="309" y="781" on="0"/>
        <pt x="296" y="759" on="1"/>
        <pt x="291" y="750" on="0"/>
        <pt x="281" y="750" on="1"/>
        <pt x="197" y="750" on="1"/>
        <pt x="189" y="750" on="0"/>
        <pt x="178" y="761" on="0"/>
        <pt x="178" y="784" on="0"/>
        <pt x="185" y="819" on="0"/>
        <pt x="204" y="860" on="0"/>
        <pt x="218" y="876" on="1"/>
        <pt x="252" y="915" on="0"/>
        <pt x="314" y="915" on="1"/>
        <pt x="347" y="915" on="0"/>
        <pt x="435" y="881" on="0"/>
        <pt x="472" y="881" on="0"/>
        <pt x="492" y="912" on="0"/>
        <pt x="502" y="912" on="1"/>
        <pt x="586" y="912" on="1"/>
        <pt x="605" y="912" on="0"/>
        <pt x="605" y="873" on="0"/>
        <pt x="592" y="828" on="0"/>
      </contour>
    </TTGlyph>
    <TTGlyph name="B" xMin="65" yMin="0" xMax="716" yMax="700">
      <contour>
        <pt x="440" y="463" on="0"/>
        <pt x="440" y="499" on="0"/>
        <pt x="419" y="528" on="0"/>
        <pt x="399" y="528" on="1"/>
        <pt x="315" y="528" on="1"/>
        <pt x="315" y="437" on="1"/>
        <pt x="399" y="437" on="1"/>
        <pt x="419" y="437" on="0"/>
      </contour>
      <contour>
        <pt x="315" y="270" on="1"/>
        <pt x="315" y="172" on="1"/>
        <pt x="408" y="172" on="1"/>
        <pt x="431" y="172" on="0"/>
        <pt x="454" y="203" on="0"/>
        <pt x="454" y="222" on="1"/>
        <pt x="454" y="223" on="1"/>
        <pt x="454" y="242" on="0"/>
        <pt x="429" y="270" on="0"/>
        <pt x="408" y="270" on="1"/>
      </contour>
      <contour>
        <pt x="434" y="0" on="1"/>
        <pt x="92" y="0" on="1"/>
        <pt x="81" y="0" on="0"/>
        <pt x="65" y="16" on="0"/>
        <pt x="65" y="27" on="1"/>
        <pt x="65" y="673" on="1"/>
        <pt x="65" y="684" on="0"/>
        <pt x="81" y="700" on="0"/>
        <pt x="92" y="700" on="1"/>
        <pt x="424" y="700" on="1"/>
        <pt x="566" y="700" on="0"/>
        <pt x="701" y="597" on="0"/>
        <pt x="701" y="493" on="1"/>
        <pt x="701" y="490" on="1"/>
        <pt x="701" y="447" on="0"/>
        <pt x="651" y="380" on="0"/>
        <pt x="621" y="365" on="1"/>
        <pt x="661" y="349" on="0"/>
        <pt x="716" y="268" on="0"/>
        <pt x="716" y="220" on="1"/>
        <pt x="716" y="0" on="0"/>
      </contour>
    </TTGlyph>
    <TTGlyph name="Breve" xMin="50" yMin="750" xMax="405" yMax="925">
      <contour>
        <pt x="268" y="906" on="1"/>
        <pt x="268" y="925" on="0"/>
        <pt x="287" y="925" on="1"/>
        <pt x="386" y="925" on="1"/>
        <pt x="405" y="925" on="0"/>
        <pt x="405" y="906" on="1"/>
        <pt x="405" y="835" on="0"/>
        <pt x="315" y="750" on="0"/>
        <pt x="140" y="750" on="0"/>
        <pt x="50" y="836" on="0"/>
        <pt x="50" y="906" on="1"/>
        <pt x="50" y="925" on="0"/>
        <pt x="69" y="925" on="1"/>
        <pt x="168" y="925" on="1"/>
        <pt x="187" y="925" on="0"/>
        <pt x="187" y="906" on="1"/>
        <pt x="187" y="851" on="0"/>
        <pt x="268" y="851" on="0"/>
      </contour>
    </TTGlyph>
    <TTGlyph name="C" xMin="45" yMin="-10" xMax="717" yMax="710">
      <contour>
        <pt x="305" y="434" on="1"/>
        <pt x="305" y="266" on="1"/>
        <pt x="305" y="185" on="0"/>
        <pt x="379" y="185" on="1"/>
        <pt x="436" y="185" on="0"/>
        <pt x="454" y="239" on="1"/>
        <pt x="459" y="256" on="0"/>
        <pt x="474" y="268" on="0"/>
        <pt x="491" y="268" on="1"/>
        <pt x="695" y="268" on="1"/>
        <pt x="704" y="268" on="0"/>
        <pt x="717" y="255" on="0"/>
        <pt x="717" y="246" on="1"/>
        <pt x="717" y="159" on="0"/>
        <pt x="667" y="100" on="1"/>
        <pt x="575" y="-10" on="0"/>
        <pt x="380" y="-10" on="1"/>
        <pt x="227" y="-10" on="0"/>
        <pt x="45" y="125" on="0"/>
        <pt x="45" y="265" on="1"/>
        <pt x="45" y="435" on="1"/>
        <pt x="45" y="572" on="0"/>
        <pt x="231" y="710" on="0"/>
        <pt x="380" y="710" on="1"/>
        <pt x="575" y="710" on="0"/>
        <pt x="667" y="600" on="1"/>
        <pt x="717" y="541" on="0"/>
        <pt x="717" y="454" on="1"/>
        <pt x="717" y="445" on="0"/>
        <pt x="704" y="432" on="0"/>
        <pt x="695" y="432" on="1"/>
        <pt x="491" y="432" on="1"/>
        <pt x="475" y="432" on="0"/>
        <pt x="460" y="444" on="0"/>
        <pt x="454" y="461" on="1"/>
        <pt x="435" y="515" on="0"/>
        <pt x="379" y="515" on="1"/>
        <pt x="305" y="515" on="0"/>
      </contour>
    </TTGlyph>
    <TTGlyph name="Cacute" xMin="45" yMin="-10" xMax="717" yMax="922">
      <contour>
        <pt x="305" y="266" on="1"/>
        <pt x="305" y="185" on="0"/>
        <pt x="379" y="185" on="1"/>
        <pt x="436" y="185" on="0"/>
        <pt x="454" y="239" on="1"/>
        <pt x="459" y="256" on="0"/>
        <pt x="474" y="268" on="0"/>
        <pt x="491" y="268" on="1"/>
        <pt x="695" y="268" on="1"/>
        <pt x="704" y="268" on="0"/>
        <pt x="717" y="255" on="0"/>
        <pt x="717" y="246" on="1"/>
        <pt x="717" y="159" on="0"/>
        <pt x="667" y="100" on="1"/>
        <pt x="575" y="-10" on="0"/>
        <pt x="380" y="-10" on="1"/>
        <pt x="227" y="-10" on="0"/>
        <pt x="45" y="125" on="0"/>
        <pt x="45" y="265" on="1"/>
        <pt x="45" y="435" on="1"/>
        <pt x="45" y="572" on="0"/>
        <pt x="231" y="710" on="0"/>
        <pt x="380" y="710" on="1"/>
        <pt x="575" y="710" on="0"/>
        <pt x="667" y="600" on="1"/>
        <pt x="717" y="541" on="0"/>
        <pt x="717" y="454" on="1"/>
        <pt x="717" y="445" on="0"/>
        <pt x="704" y="432" on="0"/>
        <pt x="695" y="432" on="1"/>
        <pt x="491" y="432" on="1"/>
        <pt x="475" y="432" on="0"/>
        <pt x="460" y="444" on="0"/>
        <pt x="454" y="461" on="1"/>
        <pt x="435" y="515" on="0"/>
        <pt x="379" y="515" on="1"/>
        <pt x="305" y="515" on="0"/>
        <pt x="305" y="434" on="1"/>
      </contour>
      <contour>
        <pt x="403" y="922" on="1"/>
        <pt x="600" y="922" on="1"/>
        <pt x="619" y="922" on="0"/>
        <pt x="619" y="902" on="1"/>
        <pt x="619" y="895" on="0"/>
        <pt x="614" y="890" on="1"/>
        <pt x="456" y="760" on="1"/>
        <pt x="445" y="750" on="0"/>
        <pt x="415" y="750" on="1"/>
        <pt x="275" y="750" on="1"/>
        <pt x="259" y="750" on="0"/>
        <pt x="259" y="766" on="1"/>
        <pt x="259" y="774" on="0"/>
        <pt x="264" y="779" on="1"/>
        <pt x="366" y="903" on="1"/>
        <pt x="383" y="922" on="0"/>
      </contour>
    </TTGlyph>
    <TTGlyph name="Caron" xMin="50" yMin="750" xMax="498" yMax="922">
      <contour>
        <pt x="339" y="750" on="1"/>
        <pt x="209" y="750" on="1"/>
        <pt x="198" y="750" on="0"/>
        <pt x="188" y="756" on="0"/>
        <pt x="172" y="769" on="1"/>
        <pt x="55" y="893" on="1"/>
        <pt x="50" y="898" on="0"/>
        <pt x="50" y="906" on="1"/>
        <pt x="50" y="922" on="0"/>
        <pt x="66" y="922" on="1"/>
        <pt x="137" y="922" on="1"/>
        <pt x="156" y="922" on="0"/>
        <pt x="177" y="915" on="1"/>
        <pt x="274" y="873" on="1"/>
        <pt x="371" y="915" on="1"/>
        <pt x="392" y="922" on="0"/>
        <pt x="411" y="922" on="1"/>
        <pt x="482" y="922" on="1"/>
        <pt x="498" y="922" on="0"/>
        <pt x="498" y="906" on="1"/>
        <pt x="498" y="898" on="0"/>
        <pt x="493" y="893" on="1"/>
        <pt x="376" y="769" on="1"/>
        <pt x="360" y="756" on="0"/>
        <pt x="350" y="750" on="0"/>
      </contour>
    </TTGlyph>
    <TTGlyph name="Ccaron" xMin="45" yMin="-10" xMax="717" yMax="922">
      <contour>
        <pt x="305" y="266" on="1"/>
        <pt x="305" y="185" on="0"/>
        <pt x="379" y="185" on="1"/>
        <pt x="436" y="185" on="0"/>
        <pt x="454" y="239" on="1"/>
        <pt x="459" y="256" on="0"/>
        <pt x="474" y="268" on="0"/>
        <pt x="491" y="268" on="1"/>
        <pt x="695" y="268" on="1"/>
        <pt x="704" y="268" on="0"/>
        <pt x="717" y="255" on="0"/>
        <pt x="717" y="246" on="1"/>
        <pt x="717" y="159" on="0"/>
        <pt x="667" y="100" on="1"/>
        <pt x="575" y="-10" on="0"/>
        <pt x="380" y="-10" on="1"/>
        <pt x="227" y="-10" on="0"/>
        <pt x="45" y="125" on="0"/>
        <pt x="45" y="265" on="1"/>
        <pt x="45" y="435" on="1"/>
        <pt x="45" y="572" on="0"/>
        <pt x="231" y="710" on="0"/>
        <pt x="380" y="710" on="1"/>
        <pt x="575" y="710" on="0"/>
        <pt x="667" y="600" on="1"/>
        <pt x="717" y="541" on="0"/>
        <pt x="717" y="454" on="1"/>
        <pt x="717" y="445" on="0"/>
        <pt x="704" y="432" on="0"/>
        <pt x="695" y="432" on="1"/>
        <pt x="491" y="432" on="1"/>
        <pt x="475" y="432" on="0"/>
        <pt x="460" y="444" on="0"/>
        <pt x="454" y="461" on="1"/>
        <pt x="435" y="515" on="0"/>
        <pt x="379" y="515" on="1"/>
        <pt x="305" y="515" on="0"/>
        <pt x="305" y="434" on="1"/>
      </contour>
      <contour>
        <pt x="443" y="750" on="1"/>
        <pt x="313" y="750" on="1"/>
        <pt x="302" y="750" on="0"/>
        <pt x="292" y="756" on="0"/>
        <pt x="276" y="769" on="1"/>
        <pt x="159" y="893" on="1"/>
        <pt x="154" y="898" on="0"/>
        <pt x="154" y="906" on="1"/>
        <pt x="154" y="922" on="0"/>
        <pt x="170" y="922" on="1"/>
        <pt x="241" y="922" on="1"/>
        <pt x="260" y="922" on="0"/>
        <pt x="281" y="915" on="1"/>
        <pt x="378" y="873" on="1"/>
        <pt x="475" y="915" on="1"/>
        <pt x="496" y="922" on="0"/>
        <pt x="515" y="922" on="1"/>
        <pt x="586" y="922" on="1"/>
        <pt x="602" y="922" on="0"/>
        <pt x="602" y="906" on="1"/>
        <pt x="602" y="898" on="0"/>
        <pt x="597" y="893" on="1"/>
        <pt x="480" y="769" on="1"/>
        <pt x="464" y="756" on="0"/>
        <pt x="454" y="750" on="0"/>
      </contour>
    </TTGlyph>
    <TTGlyph name="Ccedilla" xMin="45" yMin="-230" xMax="717" yMax="710">
      <contour>
        <pt x="305" y="434" on="1"/>
        <pt x="305" y="266" on="1"/>
        <pt x="305" y="185" on="0"/>
        <pt x="379" y="185" on="1"/>
        <pt x="436" y="185" on="0"/>
        <pt x="454" y="239" on="1"/>
        <pt x="459" y="256" on="0"/>
        <pt x="474" y="268" on="0"/>
        <pt x="491" y="268" on="1"/>
        <pt x="695" y="268" on="1"/>
        <pt x="704" y="268" on="0"/>
        <pt x="717" y="255" on="0"/>
        <pt x="717" y="246" on="1"/>
        <pt x="717" y="182" on="0"/>
        <pt x="663" y="83" on="0"/>
        <pt x="617" y="53" on="1"/>
        <pt x="527" y="-6" on="0"/>
        <pt x="395" y="-10" on="1"/>
        <pt x="388" y="-39" on="1"/>
        <pt x="399" y="-33" on="0"/>
        <pt x="466" y="-33" on="0"/>
        <pt x="516" y="-86" on="0"/>
        <pt x="516" y="-124" on="1"/>
        <pt x="516" y="-196" on="0"/>
        <pt x="456" y="-219" on="1"/>
        <pt x="426" y="-230" on="0"/>
        <pt x="396" y="-230" on="1"/>
        <pt x="334" y="-218" on="1"/>
        <pt x="274" y="-194" on="0"/>
        <pt x="274" y="-153" on="1"/>
        <pt x="274" y="-140" on="0"/>
        <pt x="287" y="-140" on="1"/>
        <pt x="348" y="-140" on="1"/>
        <pt x="360" y="-140" on="0"/>
        <pt x="387" y="-156" on="0"/>
        <pt x="400" y="-156" on="1"/>
        <pt x="429" y="-156" on="0"/>
        <pt x="429" y="-132" on="1"/>
        <pt x="429" y="-122" on="0"/>
        <pt x="411" y="-107" on="0"/>
        <pt x="382" y="-107" on="0"/>
        <pt x="362" y="-119" on="0"/>
        <pt x="353" y="-119" on="1"/>
        <pt x="309" y="-119" on="1"/>
        <pt x="295" y="-119" on="0"/>
        <pt x="295" y="-105" on="1"/>
        <pt x="295" y="-101" on="0"/>
        <pt x="296" y="-93" on="1"/>
        <pt x="313" y="-6" on="1"/>
        <pt x="188" y="7" on="0"/>
        <pt x="45" y="140" on="0"/>
        <pt x="45" y="265" on="1"/>
        <pt x="45" y="435" on="1"/>
        <pt x="45" y="572" on="0"/>
        <pt x="231" y="710" on="0"/>
        <pt x="380" y="710" on="1"/>
        <pt x="575" y="710" on="0"/>
        <pt x="667" y="600" on="1"/>
        <pt x="717" y="541" on="0"/>
        <pt x="717" y="454" on="1"/>
        <pt x="717" y="445" on="0"/>
        <pt x="704" y="432" on="0"/>
        <pt x="695" y="432" on="1"/>
        <pt x="491" y="432" on="1"/>
        <pt x="475" y="432" on="0"/>
        <pt x="460" y="444" on="0"/>
        <pt x="454" y="461" on="1"/>
        <pt x="435" y="515" on="0"/>
        <pt x="379" y="515" on="1"/>
        <pt x="305" y="515" on="0"/>
      </contour>
    </TTGlyph>
    <TTGlyph name="Ccircumflex" xMin="45" yMin="-10" xMax="717" yMax="922">
      <contour>
        <pt x="305" y="434" on="1"/>
        <pt x="305" y="266" on="1"/>
        <pt x="305" y="185" on="0"/>
        <pt x="379" y="185" on="1"/>
        <pt x="436" y="185" on="0"/>
        <pt x="454" y="239" on="1"/>
        <pt x="459" y="256" on="0"/>
        <pt x="474" y="268" on="0"/>
        <pt x="491" y="268" on="1"/>
        <pt x="695" y="268" on="1"/>
        <pt x="704" y="268" on="0"/>
        <pt x="717" y="255" on="0"/>
        <pt x="717" y="246" on="1"/>
        <pt x="717" y="159" on="0"/>
        <pt x="667" y="100" on="1"/>
        <pt x="575" y="-10" on="0"/>
        <pt x="380" y="-10" on="1"/>
        <pt x="227" y="-10" on="0"/>
        <pt x="45" y="125" on="0"/>
        <pt x="45" y="265" on="1"/>
        <pt x="45" y="435" on="1"/>
        <pt x="45" y="572" on="0"/>
        <pt x="231" y="710" on="0"/>
        <pt x="380" y="710" on="1"/>
        <pt x="575" y="710" on="0"/>
        <pt x="667" y="600" on="1"/>
        <pt x="717" y="541" on="0"/>
        <pt x="717" y="454" on="1"/>
        <pt x="717" y="445" on="0"/>
        <pt x="704" y="432" on="0"/>
        <pt x="695" y="432" on="1"/>
        <pt x="491" y="432" on="1"/>
        <pt x="475" y="432" on="0"/>
        <pt x="460" y="444" on="0"/>
        <pt x="454" y="461" on="1"/>
        <pt x="435" y="515" on="0"/>
        <pt x="379" y="515" on="1"/>
        <pt x="305" y="515" on="0"/>
      </contour>
      <contour>
        <pt x="315" y="922" on="1"/>
        <pt x="445" y="922" on="1"/>
        <pt x="456" y="922" on="0"/>
        <pt x="466" y="916" on="0"/>
        <pt x="482" y="903" on="1"/>
        <pt x="599" y="779" on="1"/>
        <pt x="604" y="774" on="0"/>
        <pt x="604" y="766" on="1"/>
        <pt x="604" y="750" on="0"/>
        <pt x="588" y="750" on="1"/>
        <pt x="517" y="750" on="1"/>
        <pt x="498" y="750" on="0"/>
        <pt x="477" y="757" on="1"/>
        <pt x="380" y="799" on="1"/>
        <pt x="283" y="757" on="1"/>
        <pt x="262" y="750" on="0"/>
        <pt x="243" y="750" on="1"/>
        <pt x="172" y="750" on="1"/>
        <pt x="156" y="750" on="0"/>
        <pt x="156" y="766" on="1"/>
        <pt x="156" y="774" on="0"/>
        <pt x="161" y="779" on="1"/>
        <pt x="278" y="903" on="1"/>
        <pt x="294" y="916" on="0"/>
        <pt x="304" y="922" on="0"/>
      </contour>
    </TTGlyph>
    <TTGlyph name="Cdotaccent" xMin="45" yMin="-10" xMax="717" yMax="922">
      <contour>
        <pt x="305" y="266" on="1"/>
        <pt x="305" y="185" on="0"/>
        <pt x="379" y="185" on="1"/>
        <pt x="436" y="185" on="0"/>
        <pt x="454" y="239" on="1"/>
        <pt x="459" y="256" on="0"/>
        <pt x="474" y="268" on="0"/>
        <pt x="491" y="268" on="1"/>
        <pt x="695" y="268" on="1"/>
        <pt x="704" y="268" on="0"/>
        <pt x="717" y="255" on="0"/>
        <pt x="717" y="246" on="1"/>
        <pt x="717" y="159" on="0"/>
        <pt x="667" y="100" on="1"/>
        <pt x="575" y="-10" on="0"/>
        <pt x="380" y="-10" on="1"/>
        <pt x="227" y="-10" on="0"/>
        <pt x="45" y="125" on="0"/>
        <pt x="45" y="265" on="1"/>
        <pt x="45" y="435" on="1"/>
        <pt x="45" y="572" on="0"/>
        <pt x="231" y="710" on="0"/>
        <pt x="380" y="710" on="1"/>
        <pt x="575" y="710" on="0"/>
        <pt x="667" y="600" on="1"/>
        <pt x="717" y="541" on="0"/>
        <pt x="717" y="454" on="1"/>
        <pt x="717" y="445" on="0"/>
        <pt x="704" y="432" on="0"/>
        <pt x="695" y="432" on="1"/>
        <pt x="491" y="432" on="1"/>
        <pt x="475" y="432" on="0"/>
        <pt x="460" y="444" on="0"/>
        <pt x="454" y="461" on="1"/>
        <pt x="435" y="515" on="0"/>
        <pt x="379" y="515" on="1"/>
        <pt x="305" y="515" on="0"/>
        <pt x="305" y="434" on="1"/>
      </contour>
      <contour>
        <pt x="309" y="922" on="1"/>
        <pt x="445" y="922" on="1"/>
        <pt x="455" y="922" on="0"/>
        <pt x="468" y="909" on="0"/>
        <pt x="468" y="899" on="1"/>
        <pt x="468" y="763" on="1"/>
        <pt x="468" y="753" on="0"/>
        <pt x="455" y="740" on="0"/>
        <pt x="445" y="740" on="1"/>
        <pt x="309" y="740" on="1"/>
        <pt x="299" y="740" on="0"/>
        <pt x="286" y="753" on="0"/>
        <pt x="286" y="763" on="1"/>
        <pt x="286" y="899" on="1"/>
        <pt x="286" y="909" on="0"/>
        <pt x="299" y="922" on="0"/>
      </contour>
    </TTGlyph>
    <TTGlyph name="Cedilla" xMin="50" yMin="-230" xMax="292" yMax="70">
      <contour>
        <pt x="185" y="49" on="1"/>
        <pt x="164" y="-39" on="1"/>
        <pt x="175" y="-33" on="0"/>
        <pt x="242" y="-33" on="0"/>
        <pt x="292" y="-86" on="0"/>
        <pt x="292" y="-124" on="1"/>
        <pt x="292" y="-196" on="0"/>
        <pt x="232" y="-219" on="1"/>
        <pt x="202" y="-230" on="0"/>
        <pt x="172" y="-230" on="1"/>
        <pt x="110" y="-218" on="1"/>
        <pt x="50" y="-194" on="0"/>
        <pt x="50" y="-153" on="1"/>
        <pt x="50" y="-140" on="0"/>
        <pt x="63" y="-140" on="1"/>
        <pt x="124" y="-140" on="1"/>
        <pt x="136" y="-140" on="0"/>
        <pt x="163" y="-156" on="0"/>
        <pt x="176" y="-156" on="1"/>
        <pt x="205" y="-156" on="0"/>
        <pt x="205" y="-132" on="1"/>
        <pt x="205" y="-122" on="0"/>
        <pt x="187" y="-107" on="0"/>
        <pt x="158" y="-107" on="0"/>
        <pt x="138" y="-119" on="0"/>
        <pt x="129" y="-119" on="1"/>
        <pt x="85" y="-119" on="1"/>
        <pt x="71" y="-119" on="0"/>
        <pt x="71" y="-105" on="1"/>
        <pt x="71" y="-101" on="0"/>
        <pt x="72" y="-93" on="1"/>
        <pt x="100" y="51" on="1"/>
        <pt x="103" y="70" on="0"/>
        <pt x="133" y="70" on="1"/>
        <pt x="161" y="70" on="1"/>
        <pt x="185" y="70" on="0"/>
      </contour>
    </TTGlyph>
    <TTGlyph name="Circumflex" xMin="50" yMin="750" xMax="498" yMax="922">
      <contour>
        <pt x="209" y="922" on="1"/>
        <pt x="339" y="922" on="1"/>
        <pt x="350" y="922" on="0"/>
        <pt x="360" y="916" on="0"/>
        <pt x="376" y="903" on="1"/>
        <pt x="493" y="779" on="1"/>
        <pt x="498" y="774" on="0"/>
        <pt x="498" y="766" on="1"/>
        <pt x="498" y="750" on="0"/>
        <pt x="482" y="750" on="1"/>
        <pt x="411" y="750" on="1"/>
        <pt x="392" y="750" on="0"/>
        <pt x="371" y="757" on="1"/>
        <pt x="274" y="799" on="1"/>
        <pt x="177" y="757" on="1"/>
        <pt x="156" y="750" on="0"/>
        <pt x="137" y="750" on="1"/>
        <pt x="66" y="750" on="1"/>
        <pt x="50" y="750" on="0"/>
        <pt x="50" y="766" on="1"/>
        <pt x="50" y="774" on="0"/>
        <pt x="55" y="779" on="1"/>
        <pt x="172" y="903" on="1"/>
        <pt x="188" y="916" on="0"/>
        <pt x="198" y="922" on="0"/>
      </contour>
    </TTGlyph>
    <TTGlyph name="D" xMin="65" yMin="0" xMax="715" yMax="700">
      <contour>
        <pt x="92" y="700" on="1"/>
        <pt x="380" y="700" on="1"/>
        <pt x="526" y="700" on="0"/>
        <pt x="715" y="555" on="0"/>
        <pt x="715" y="425" on="1"/>
        <pt x="715" y="276" on="1"/>
        <pt x="715" y="140" on="0"/>
        <pt x="531" y="0" on="0"/>
        <pt x="381" y="0" on="1"/>
        <pt x="92" y="0" on="1"/>
        <pt x="81" y="0" on="0"/>
        <pt x="65" y="16" on="0"/>
        <pt x="65" y="27" on="1"/>
        <pt x="65" y="673" on="1"/>
        <pt x="65" y="684" on="0"/>
        <pt x="81" y="700" on="0"/>
      </contour>
      <contour>
        <pt x="315" y="505" on="1"/>
        <pt x="315" y="195" on="1"/>
        <pt x="380" y="195" on="1"/>
        <pt x="414" y="195" on="0"/>
        <pt x="455" y="236" on="0"/>
        <pt x="455" y="276" on="1"/>
        <pt x="455" y="425" on="1"/>
        <pt x="455" y="505" on="0"/>
        <pt x="380" y="505" on="1"/>
      </contour>
    </TTGlyph>
    <TTGlyph name="Dcaron" xMin="65" yMin="0" xMax="715" yMax="922">
      <contour>
        <pt x="92" y="700" on="1"/>
        <pt x="380" y="700" on="1"/>
        <pt x="526" y="700" on="0"/>
        <pt x="715" y="555" on="0"/>
        <pt x="715" y="425" on="1"/>
        <pt x="715" y="276" on="1"/>
        <pt x="715" y="140" on="0"/>
        <pt x="531" y="0" on="0"/>
        <pt x="381" y="0" on="1"/>
        <pt x="92" y="0" on="1"/>
        <pt x="81" y="0" on="0"/>
        <pt x="65" y="16" on="0"/>
        <pt x="65" y="27" on="1"/>
        <pt x="65" y="673" on="1"/>
        <pt x="65" y="684" on="0"/>
        <pt x="81" y="700" on="0"/>
      </contour>
      <contour>
        <pt x="315" y="505" on="1"/>
        <pt x="315" y="195" on="1"/>
        <pt x="380" y="195" on="1"/>
        <pt x="414" y="195" on="0"/>
        <pt x="455" y="236" on="0"/>
        <pt x="455" y="276" on="1"/>
        <pt x="455" y="425" on="1"/>
        <pt x="455" y="505" on="0"/>
        <pt x="380" y="505" on="1"/>
      </contour>
      <contour>
        <pt x="435" y="750" on="1"/>
        <pt x="305" y="750" on="1"/>
        <pt x="294" y="750" on="0"/>
        <pt x="284" y="756" on="0"/>
        <pt x="268" y="769" on="1"/>
        <pt x="151" y="893" on="1"/>
        <pt x="146" y="898" on="0"/>
        <pt x="146" y="906" on="1"/>
        <pt x="146" y="922" on="0"/>
        <pt x="162" y="922" on="1"/>
        <pt x="233" y="922" on="1"/>
        <pt x="252" y="922" on="0"/>
        <pt x="273" y="915" on="1"/>
        <pt x="370" y="873" on="1"/>
        <pt x="467" y="915" on="1"/>
        <pt x="488" y="922" on="0"/>
        <pt x="507" y="922" on="1"/>
        <pt x="578" y="922" on="1"/>
        <pt x="594" y="922" on="0"/>
        <pt x="594" y="906" on="1"/>
        <pt x="594" y="898" on="0"/>
        <pt x="589" y="893" on="1"/>
        <pt x="472" y="769" on="1"/>
        <pt x="456" y="756" on="0"/>
        <pt x="446" y="750" on="0"/>
      </contour>
    </TTGlyph>
    <TTGlyph name="Dcroat" xMin="0" yMin="0" xMax="715" yMax="700">
      <contour>
        <pt x="92" y="700" on="1"/>
        <pt x="380" y="700" on="1"/>
        <pt x="526" y="700" on="0"/>
        <pt x="715" y="555" on="0"/>
        <pt x="715" y="425" on="1"/>
        <pt x="715" y="276" on="1"/>
        <pt x="715" y="140" on="0"/>
        <pt x="531" y="0" on="0"/>
        <pt x="381" y="0" on="1"/>
        <pt x="92" y="0" on="1"/>
        <pt x="81" y="0" on="0"/>
        <pt x="65" y="16" on="0"/>
        <pt x="65" y="27" on="1"/>
        <pt x="65" y="274" on="1"/>
        <pt x="27" y="274" on="1"/>
        <pt x="16" y="274" on="0"/>
        <pt x="0" y="290" on="0"/>
        <pt x="0" y="301" on="1"/>
        <pt x="0" y="402" on="1"/>
        <pt x="0" y="413" on="0"/>
        <pt x="16" y="429" on="0"/>
        <pt x="27" y="429" on="1"/>
        <pt x="65" y="429" on="1"/>
        <pt x="65" y="673" on="1"/>
        <pt x="65" y="684" on="0"/>
        <pt x="81" y="700" on="0"/>
      </contour>
      <contour>
        <pt x="315" y="505" on="1"/>
        <pt x="315" y="429" on="1"/>
        <pt x="371" y="429" on="1"/>
        <pt x="382" y="429" on="0"/>
        <pt x="398" y="413" on="0"/>
        <pt x="398" y="402" on="1"/>
        <pt x="398" y="301" on="1"/>
        <pt x="398" y="290" on="0"/>
        <pt x="382" y="274" on="0"/>
        <pt x="371" y="274" on="1"/>
        <pt x="315" y="274" on="1"/>
        <pt x="315" y="195" on="1"/>
        <pt x="380" y="195" on="1"/>
        <pt x="414" y="195" on="0"/>
        <pt x="455" y="236" on="0"/>
        <pt x="455" y="276" on="1"/>
        <pt x="455" y="425" on="1"/>
        <pt x="455" y="505" on="0"/>
        <pt x="380" y="505" on="1"/>
      </contour>
    </TTGlyph>
    <TTGlyph name="Dieresis" xMin="50" yMin="750" xMax="493" yMax="922">
      <contour>
        <pt x="344" y="922" on="1"/>
        <pt x="470" y="922" on="1"/>
        <pt x="480" y="922" on="0"/>
        <pt x="493" y="909" on="0"/>
        <pt x="493" y="899" on="1"/>
        <pt x="493" y="773" on="1"/>
        <pt x="493" y="763" on="0"/>
        <pt x="480" y="750" on="0"/>
        <pt x="470" y="750" on="1"/>
        <pt x="344" y="750" on="1"/>
        <pt x="334" y="750" on="0"/>
        <pt x="321" y="763" on="0"/>
        <pt x="321" y="773" on="1"/>
        <pt x="321" y="899" on="1"/>
        <pt x="321" y="909" on="0"/>
        <pt x="334" y="922" on="0"/>
      </contour>
      <contour>
        <pt x="73" y="922" on="1"/>
        <pt x="199" y="922" on="1"/>
        <pt x="209" y="922" on="0"/>
        <pt x="222" y="909" on="0"/>
        <pt x="222" y="899" on="1"/>
        <pt x="222" y="773" on="1"/>
        <pt x="222" y="763" on="0"/>
        <pt x="209" y="750" on="0"/>
        <pt x="199" y="750" on="1"/>
        <pt x="73" y="750" on="1"/>
        <pt x="63" y="750" on="0"/>
        <pt x="50" y="763" on="0"/>
        <pt x="50" y="773" on="1"/>
        <pt x="50" y="899" on="1"/>
        <pt x="50" y="909" on="0"/>
        <pt x="63" y="922" on="0"/>
      </contour>
    </TTGlyph>
    <TTGlyph name="Dotaccent" xMin="50" yMin="740" xMax="232" yMax="922">
      <contour>
        <pt x="73" y="922" on="1"/>
        <pt x="209" y="922" on="1"/>
        <pt x="219" y="922" on="0"/>
        <pt x="232" y="909" on="0"/>
        <pt x="232" y="899" on="1"/>
        <pt x="232" y="763" on="1"/>
        <pt x="232" y="753" on="0"/>
        <pt x="219" y="740" on="0"/>
        <pt x="209" y="740" on="1"/>
        <pt x="73" y="740" on="1"/>
        <pt x="63" y="740" on="0"/>
        <pt x="50" y="753" on="0"/>
        <pt x="50" y="763" on="1"/>
        <pt x="50" y="899" on="1"/>
        <pt x="50" y="909" on="0"/>
        <pt x="63" y="922" on="0"/>
      </contour>
    </TTGlyph>
    <TTGlyph name="E" xMin="65" yMin="0" xMax="640" yMax="700">
      <contour>
        <pt x="305" y="195" on="1"/>
        <pt x="613" y="195" on="1"/>
        <pt x="624" y="195" on="0"/>
        <pt x="640" y="179" on="0"/>
        <pt x="640" y="168" on="1"/>
        <pt x="640" y="27" on="1"/>
        <pt x="640" y="16" on="0"/>
        <pt x="624" y="0" on="0"/>
        <pt x="613" y="0" on="1"/>
        <pt x="92" y="0" on="1"/>
        <pt x="81" y="0" on="0"/>
        <pt x="65" y="16" on="0"/>
        <pt x="65" y="27" on="1"/>
        <pt x="65" y="673" on="1"/>
        <pt x="65" y="684" on="0"/>
        <pt x="81" y="700" on="0"/>
        <pt x="92" y="700" on="1"/>
        <pt x="605" y="700" on="1"/>
        <pt x="616" y="700" on="0"/>
        <pt x="632" y="684" on="0"/>
        <pt x="632" y="673" on="1"/>
        <pt x="632" y="532" on="1"/>
        <pt x="632" y="521" on="0"/>
        <pt x="616" y="505" on="0"/>
        <pt x="605" y="505" on="1"/>
        <pt x="305" y="505" on="1"/>
        <pt x="305" y="442" on="1"/>
        <pt x="583" y="442" on="1"/>
        <pt x="594" y="442" on="0"/>
        <pt x="610" y="426" on="0"/>
        <pt x="610" y="415" on="1"/>
        <pt x="610" y="285" on="1"/>
        <pt x="610" y="274" on="0"/>
        <pt x="594" y="258" on="0"/>
        <pt x="583" y="258" on="1"/>
        <pt x="305" y="258" on="1"/>
      </contour>
    </TTGlyph>
    <TTGlyph name="Eacute" xMin="65" yMin="0" xMax="640" yMax="922">
      <contour>
        <pt x="613" y="195" on="1"/>
        <pt x="624" y="195" on="0"/>
        <pt x="640" y="179" on="0"/>
        <pt x="640" y="168" on="1"/>
        <pt x="640" y="27" on="1"/>
        <pt x="640" y="16" on="0"/>
        <pt x="624" y="0" on="0"/>
        <pt x="613" y="0" on="1"/>
        <pt x="92" y="0" on="1"/>
        <pt x="81" y="0" on="0"/>
        <pt x="65" y="16" on="0"/>
        <pt x="65" y="27" on="1"/>
        <pt x="65" y="673" on="1"/>
        <pt x="65" y="684" on="0"/>
        <pt x="81" y="700" on="0"/>
        <pt x="92" y="700" on="1"/>
        <pt x="605" y="700" on="1"/>
        <pt x="616" y="700" on="0"/>
        <pt x="632" y="684" on="0"/>
        <pt x="632" y="673" on="1"/>
        <pt x="632" y="532" on="1"/>
        <pt x="632" y="521" on="0"/>
        <pt x="616" y="505" on="0"/>
        <pt x="605" y="505" on="1"/>
        <pt x="305" y="505" on="1"/>
        <pt x="305" y="442" on="1"/>
        <pt x="583" y="442" on="1"/>
        <pt x="594" y="442" on="0"/>
        <pt x="610" y="426" on="0"/>
        <pt x="610" y="415" on="1"/>
        <pt x="610" y="285" on="1"/>
        <pt x="610" y="274" on="0"/>
        <pt x="594" y="258" on="0"/>
        <pt x="583" y="258" on="1"/>
        <pt x="305" y="258" on="1"/>
        <pt x="305" y="195" on="1"/>
      </contour>
      <contour>
        <pt x="364" y="922" on="1"/>
        <pt x="561" y="922" on="1"/>
        <pt x="580" y="922" on="0"/>
        <pt x="580" y="902" on="1"/>
        <pt x="580" y="895" on="0"/>
        <pt x="575" y="890" on="1"/>
        <pt x="417" y="760" on="1"/>
        <pt x="406" y="750" on="0"/>
        <pt x="376" y="750" on="1"/>
        <pt x="236" y="750" on="1"/>
        <pt x="220" y="750" on="0"/>
        <pt x="220" y="766" on="1"/>
        <pt x="220" y="774" on="0"/>
        <pt x="225" y="779" on="1"/>
        <pt x="327" y="903" on="1"/>
        <pt x="344" y="922" on="0"/>
      </contour>
    </TTGlyph>
    <TTGlyph name="Ebreve" xMin="65" yMin="0" xMax="640" yMax="925">
      <contour>
        <pt x="305" y="195" on="1"/>
        <pt x="613" y="195" on="1"/>
        <pt x="624" y="195" on="0"/>
        <pt x="640" y="179" on="0"/>
        <pt x="640" y="168" on="1"/>
        <pt x="640" y="27" on="1"/>
        <pt x="640" y="16" on="0"/>
        <pt x="624" y="0" on="0"/>
        <pt x="613" y="0" on="1"/>
        <pt x="92" y="0" on="1"/>
        <pt x="81" y="0" on="0"/>
        <pt x="65" y="16" on="0"/>
        <pt x="65" y="27" on="1"/>
        <pt x="65" y="673" on="1"/>
        <pt x="65" y="684" on="0"/>
        <pt x="81" y="700" on="0"/>
        <pt x="92" y="700" on="1"/>
        <pt x="605" y="700" on="1"/>
        <pt x="616" y="700" on="0"/>
        <pt x="632" y="684" on="0"/>
        <pt x="632" y="673" on="1"/>
        <pt x="632" y="532" on="1"/>
        <pt x="632" y="521" on="0"/>
        <pt x="616" y="505" on="0"/>
        <pt x="605" y="505" on="1"/>
        <pt x="305" y="505" on="1"/>
        <pt x="305" y="442" on="1"/>
        <pt x="583" y="442" on="1"/>
        <pt x="594" y="442" on="0"/>
        <pt x="610" y="426" on="0"/>
        <pt x="610" y="415" on="1"/>
        <pt x="610" y="285" on="1"/>
        <pt x="610" y="274" on="0"/>
        <pt x="594" y="258" on="0"/>
        <pt x="583" y="258" on="1"/>
        <pt x="305" y="258" on="1"/>
      </contour>
      <contour>
        <pt x="393" y="906" on="1"/>
        <pt x="393" y="925" on="0"/>
        <pt x="412" y="925" on="1"/>
        <pt x="511" y="925" on="1"/>
        <pt x="530" y="925" on="0"/>
        <pt x="530" y="906" on="1"/>
        <pt x="530" y="835" on="0"/>
        <pt x="440" y="750" on="0"/>
        <pt x="265" y="750" on="0"/>
        <pt x="175" y="836" on="0"/>
        <pt x="175" y="906" on="1"/>
        <pt x="175" y="925" on="0"/>
        <pt x="194" y="925" on="1"/>
        <pt x="293" y="925" on="1"/>
        <pt x="312" y="925" on="0"/>
        <pt x="312" y="906" on="1"/>
        <pt x="312" y="851" on="0"/>
        <pt x="393" y="851" on="0"/>
      </contour>
    </TTGlyph>
    <TTGlyph name="Ecaron" xMin="65" yMin="0" xMax="640" yMax="922">
      <contour>
        <pt x="613" y="195" on="1"/>
        <pt x="624" y="195" on="0"/>
        <pt x="640" y="179" on="0"/>
        <pt x="640" y="168" on="1"/>
        <pt x="640" y="27" on="1"/>
        <pt x="640" y="16" on="0"/>
        <pt x="624" y="0" on="0"/>
        <pt x="613" y="0" on="1"/>
        <pt x="92" y="0" on="1"/>
        <pt x="81" y="0" on="0"/>
        <pt x="65" y="16" on="0"/>
        <pt x="65" y="27" on="1"/>
        <pt x="65" y="673" on="1"/>
        <pt x="65" y="684" on="0"/>
        <pt x="81" y="700" on="0"/>
        <pt x="92" y="700" on="1"/>
        <pt x="605" y="700" on="1"/>
        <pt x="616" y="700" on="0"/>
        <pt x="632" y="684" on="0"/>
        <pt x="632" y="673" on="1"/>
        <pt x="632" y="532" on="1"/>
        <pt x="632" y="521" on="0"/>
        <pt x="616" y="505" on="0"/>
        <pt x="605" y="505" on="1"/>
        <pt x="305" y="505" on="1"/>
        <pt x="305" y="442" on="1"/>
        <pt x="583" y="442" on="1"/>
        <pt x="594" y="442" on="0"/>
        <pt x="610" y="426" on="0"/>
        <pt x="610" y="415" on="1"/>
        <pt x="610" y="285" on="1"/>
        <pt x="610" y="274" on="0"/>
        <pt x="594" y="258" on="0"/>
        <pt x="583" y="258" on="1"/>
        <pt x="305" y="258" on="1"/>
        <pt x="305" y="195" on="1"/>
      </contour>
      <contour>
        <pt x="430" y="750" on="1"/>
        <pt x="300" y="750" on="1"/>
        <pt x="289" y="750" on="0"/>
        <pt x="279" y="756" on="0"/>
        <pt x="263" y="769" on="1"/>
        <pt x="146" y="893" on="1"/>
        <pt x="141" y="898" on="0"/>
        <pt x="141" y="906" on="1"/>
        <pt x="141" y="922" on="0"/>
        <pt x="157" y="922" on="1"/>
        <pt x="228" y="922" on="1"/>
        <pt x="247" y="922" on="0"/>
        <pt x="268" y="915" on="1"/>
        <pt x="365" y="873" on="1"/>
        <pt x="462" y="915" on="1"/>
        <pt x="483" y="922" on="0"/>
        <pt x="502" y="922" on="1"/>
        <pt x="573" y="922" on="1"/>
        <pt x="589" y="922" on="0"/>
        <pt x="589" y="906" on="1"/>
        <pt x="589" y="898" on="0"/>
        <pt x="584" y="893" on="1"/>
        <pt x="467" y="769" on="1"/>
        <pt x="451" y="756" on="0"/>
        <pt x="441" y="750" on="0"/>
      </contour>
    </TTGlyph>
    <TTGlyph name="Ecircumflex" xMin="65" yMin="0" xMax="640" yMax="922">
      <contour>
        <pt x="305" y="195" on="1"/>
        <pt x="613" y="195" on="1"/>
        <pt x="624" y="195" on="0"/>
        <pt x="640" y="179" on="0"/>
        <pt x="640" y="168" on="1"/>
        <pt x="640" y="27" on="1"/>
        <pt x="640" y="16" on="0"/>
        <pt x="624" y="0" on="0"/>
        <pt x="613" y="0" on="1"/>
        <pt x="92" y="0" on="1"/>
        <pt x="81" y="0" on="0"/>
        <pt x="65" y="16" on="0"/>
        <pt x="65" y="27" on="1"/>
        <pt x="65" y="673" on="1"/>
        <pt x="65" y="684" on="0"/>
        <pt x="81" y="700" on="0"/>
        <pt x="92" y="700" on="1"/>
        <pt x="605" y="700" on="1"/>
        <pt x="616" y="700" on="0"/>
        <pt x="632" y="684" on="0"/>
        <pt x="632" y="673" on="1"/>
        <pt x="632" y="532" on="1"/>
        <pt x="632" y="521" on="0"/>
        <pt x="616" y="505" on="0"/>
        <pt x="605" y="505" on="1"/>
        <pt x="305" y="505" on="1"/>
        <pt x="305" y="442" on="1"/>
        <pt x="583" y="442" on="1"/>
        <pt x="594" y="442" on="0"/>
        <pt x="610" y="426" on="0"/>
        <pt x="610" y="415" on="1"/>
        <pt x="610" y="285" on="1"/>
        <pt x="610" y="274" on="0"/>
        <pt x="594" y="258" on="0"/>
        <pt x="583" y="258" on="1"/>
        <pt x="305" y="258" on="1"/>
      </contour>
      <contour>
        <pt x="290" y="922" on="1"/>
        <pt x="420" y="922" on="1"/>
        <pt x="431" y="922" on="0"/>
        <pt x="441" y="916" on="0"/>
        <pt x="457" y="903" on="1"/>
        <pt x="574" y="779" on="1"/>
        <pt x="579" y="774" on="0"/>
        <pt x="579" y="766" on="1"/>
        <pt x="579" y="750" on="0"/>
        <pt x="563" y="750" on="1"/>
        <pt x="492" y="750" on="1"/>
        <pt x="473" y="750" on="0"/>
        <pt x="452" y="757" on="1"/>
        <pt x="355" y="799" on="1"/>
        <pt x="258" y="757" on="1"/>
        <pt x="237" y="750" on="0"/>
        <pt x="218" y="750" on="1"/>
        <pt x="147" y="750" on="1"/>
        <pt x="131" y="750" on="0"/>
        <pt x="131" y="766" on="1"/>
        <pt x="131" y="774" on="0"/>
        <pt x="136" y="779" on="1"/>
        <pt x="253" y="903" on="1"/>
        <pt x="269" y="916" on="0"/>
        <pt x="279" y="922" on="0"/>
      </contour>
    </TTGlyph>
    <TTGlyph name="Edieresis" xMin="65" yMin="0" xMax="640" yMax="922">
      <contour>
        <pt x="613" y="195" on="1"/>
        <pt x="624" y="195" on="0"/>
        <pt x="640" y="179" on="0"/>
        <pt x="640" y="168" on="1"/>
        <pt x="640" y="27" on="1"/>
        <pt x="640" y="16" on="0"/>
        <pt x="624" y="0" on="0"/>
        <pt x="613" y="0" on="1"/>
        <pt x="92" y="0" on="1"/>
        <pt x="81" y="0" on="0"/>
        <pt x="65" y="16" on="0"/>
        <pt x="65" y="27" on="1"/>
        <pt x="65" y="673" on="1"/>
        <pt x="65" y="684" on="0"/>
        <pt x="81" y="700" on="0"/>
        <pt x="92" y="700" on="1"/>
        <pt x="605" y="700" on="1"/>
        <pt x="616" y="700" on="0"/>
        <pt x="632" y="684" on="0"/>
        <pt x="632" y="673" on="1"/>
        <pt x="632" y="532" on="1"/>
        <pt x="632" y="521" on="0"/>
        <pt x="616" y="505" on="0"/>
        <pt x="605" y="505" on="1"/>
        <pt x="305" y="505" on="1"/>
        <pt x="305" y="442" on="1"/>
        <pt x="583" y="442" on="1"/>
        <pt x="594" y="442" on="0"/>
        <pt x="610" y="426" on="0"/>
        <pt x="610" y="415" on="1"/>
        <pt x="610" y="285" on="1"/>
        <pt x="610" y="274" on="0"/>
        <pt x="594" y="258" on="0"/>
        <pt x="583" y="258" on="1"/>
        <pt x="305" y="258" on="1"/>
        <pt x="305" y="195" on="1"/>
      </contour>
      <contour>
        <pt x="412" y="922" on="1"/>
        <pt x="538" y="922" on="1"/>
        <pt x="548" y="922" on="0"/>
        <pt x="561" y="909" on="0"/>
        <pt x="561" y="899" on="1"/>
        <pt x="561" y="773" on="1"/>
        <pt x="561" y="763" on="0"/>
        <pt x="548" y="750" on="0"/>
        <pt x="538" y="750" on="1"/>
        <pt x="412" y="750" on="1"/>
        <pt x="402" y="750" on="0"/>
        <pt x="389" y="763" on="0"/>
        <pt x="389" y="773" on="1"/>
        <pt x="389" y="899" on="1"/>
        <pt x="389" y="909" on="0"/>
        <pt x="402" y="922" on="0"/>
      </contour>
      <contour>
        <pt x="141" y="922" on="1"/>
        <pt x="267" y="922" on="1"/>
        <pt x="277" y="922" on="0"/>
        <pt x="290" y="909" on="0"/>
        <pt x="290" y="899" on="1"/>
        <pt x="290" y="773" on="1"/>
        <pt x="290" y="763" on="0"/>
        <pt x="277" y="750" on="0"/>
        <pt x="267" y="750" on="1"/>
        <pt x="141" y="750" on="1"/>
        <pt x="131" y="750" on="0"/>
        <pt x="118" y="763" on="0"/>
        <pt x="118" y="773" on="1"/>
        <pt x="118" y="899" on="1"/>
        <pt x="118" y="909" on="0"/>
        <pt x="131" y="922" on="0"/>
      </contour>
    </TTGlyph>
    <TTGlyph name="Edotaccent" xMin="65" yMin="0" xMax="640" yMax="922">
      <contour>
        <pt x="613" y="195" on="1"/>
        <pt x="624" y="195" on="0"/>
        <pt x="640" y="179" on="0"/>
        <pt x="640" y="168" on="1"/>
        <pt x="640" y="27" on="1"/>
        <pt x="640" y="16" on="0"/>
        <pt x="624" y="0" on="0"/>
        <pt x="613" y="0" on="1"/>
        <pt x="92" y="0" on="1"/>
        <pt x="81" y="0" on="0"/>
        <pt x="65" y="16" on="0"/>
        <pt x="65" y="27" on="1"/>
        <pt x="65" y="673" on="1"/>
        <pt x="65" y="684" on="0"/>
        <pt x="81" y="700" on="0"/>
        <pt x="92" y="700" on="1"/>
        <pt x="605" y="700" on="1"/>
        <pt x="616" y="700" on="0"/>
        <pt x="632" y="684" on="0"/>
        <pt x="632" y="673" on="1"/>
        <pt x="632" y="532" on="1"/>
        <pt x="632" y="521" on="0"/>
        <pt x="616" y="505" on="0"/>
        <pt x="605" y="505" on="1"/>
        <pt x="305" y="505" on="1"/>
        <pt x="305" y="442" on="1"/>
        <pt x="583" y="442" on="1"/>
        <pt x="594" y="442" on="0"/>
        <pt x="610" y="426" on="0"/>
        <pt x="610" y="415" on="1"/>
        <pt x="610" y="285" on="1"/>
        <pt x="610" y="274" on="0"/>
        <pt x="594" y="258" on="0"/>
        <pt x="583" y="258" on="1"/>
        <pt x="305" y="258" on="1"/>
        <pt x="305" y="195" on="1"/>
      </contour>
      <contour>
        <pt x="281" y="922" on="1"/>
        <pt x="417" y="922" on="1"/>
        <pt x="427" y="922" on="0"/>
        <pt x="440" y="909" on="0"/>
        <pt x="440" y="899" on="1"/>
        <pt x="440" y="763" on="1"/>
        <pt x="440" y="753" on="0"/>
        <pt x="427" y="740" on="0"/>
        <pt x="417" y="740" on="1"/>
        <pt x="281" y="740" on="1"/>
        <pt x="271" y="740" on="0"/>
        <pt x="258" y="753" on="0"/>
        <pt x="258" y="763" on="1"/>
        <pt x="258" y="899" on="1"/>
        <pt x="258" y="909" on="0"/>
        <pt x="271" y="922" on="0"/>
      </contour>
    </TTGlyph>
    <TTGlyph name="Egrave" xMin="65" yMin="0" xMax="640" yMax="922">
      <contour>
        <pt x="305" y="195" on="1"/>
        <pt x="613" y="195" on="1"/>
        <pt x="624" y="195" on="0"/>
        <pt x="640" y="179" on="0"/>
        <pt x="640" y="168" on="1"/>
        <pt x="640" y="27" on="1"/>
        <pt x="640" y="16" on="0"/>
        <pt x="624" y="0" on="0"/>
        <pt x="613" y="0" on="1"/>
        <pt x="92" y="0" on="1"/>
        <pt x="81" y="0" on="0"/>
        <pt x="65" y="16" on="0"/>
        <pt x="65" y="27" on="1"/>
        <pt x="65" y="673" on="1"/>
        <pt x="65" y="684" on="0"/>
        <pt x="81" y="700" on="0"/>
        <pt x="92" y="700" on="1"/>
        <pt x="605" y="700" on="1"/>
        <pt x="616" y="700" on="0"/>
        <pt x="632" y="684" on="0"/>
        <pt x="632" y="673" on="1"/>
        <pt x="632" y="532" on="1"/>
        <pt x="632" y="521" on="0"/>
        <pt x="616" y="505" on="0"/>
        <pt x="605" y="505" on="1"/>
        <pt x="305" y="505" on="1"/>
        <pt x="305" y="442" on="1"/>
        <pt x="583" y="442" on="1"/>
        <pt x="594" y="442" on="0"/>
        <pt x="610" y="426" on="0"/>
        <pt x="610" y="415" on="1"/>
        <pt x="610" y="285" on="1"/>
        <pt x="610" y="274" on="0"/>
        <pt x="594" y="258" on="0"/>
        <pt x="583" y="258" on="1"/>
        <pt x="305" y="258" on="1"/>
      </contour>
      <contour>
        <pt x="468" y="766" on="1"/>
        <pt x="468" y="750" on="0"/>
        <pt x="452" y="750" on="1"/>
        <pt x="312" y="750" on="1"/>
        <pt x="282" y="750" on="0"/>
        <pt x="271" y="760" on="1"/>
        <pt x="113" y="890" on="1"/>
        <pt x="108" y="895" on="0"/>
        <pt x="108" y="902" on="1"/>
        <pt x="108" y="922" on="0"/>
        <pt x="127" y="922" on="1"/>
        <pt x="324" y="922" on="1"/>
        <pt x="344" y="922" on="0"/>
        <pt x="361" y="903" on="1"/>
        <pt x="463" y="779" on="1"/>
        <pt x="468" y="774" on="0"/>
      </contour>
    </TTGlyph>
    <TTGlyph name="Emacron" xMin="65" yMin="0" xMax="640" yMax="917">
      <contour>
        <pt x="613" y="195" on="1"/>
        <pt x="624" y="195" on="0"/>
        <pt x="640" y="179" on="0"/>
        <pt x="640" y="168" on="1"/>
        <pt x="640" y="27" on="1"/>
        <pt x="640" y="16" on="0"/>
        <pt x="624" y="0" on="0"/>
        <pt x="613" y="0" on="1"/>
        <pt x="92" y="0" on="1"/>
        <pt x="81" y="0" on="0"/>
        <pt x="65" y="16" on="0"/>
        <pt x="65" y="27" on="1"/>
        <pt x="65" y="673" on="1"/>
        <pt x="65" y="684" on="0"/>
        <pt x="81" y="700" on="0"/>
        <pt x="92" y="700" on="1"/>
        <pt x="605" y="700" on="1"/>
        <pt x="616" y="700" on="0"/>
        <pt x="632" y="684" on="0"/>
        <pt x="632" y="673" on="1"/>
        <pt x="632" y="532" on="1"/>
        <pt x="632" y="521" on="0"/>
        <pt x="616" y="505" on="0"/>
        <pt x="605" y="505" on="1"/>
        <pt x="305" y="505" on="1"/>
        <pt x="305" y="442" on="1"/>
        <pt x="583" y="442" on="1"/>
        <pt x="594" y="442" on="0"/>
        <pt x="610" y="426" on="0"/>
        <pt x="610" y="415" on="1"/>
        <pt x="610" y="285" on="1"/>
        <pt x="610" y="274" on="0"/>
        <pt x="594" y="258" on="0"/>
        <pt x="583" y="258" on="1"/>
        <pt x="305" y="258" on="1"/>
        <pt x="305" y="195" on="1"/>
      </contour>
      <contour>
        <pt x="153" y="917" on="1"/>
        <pt x="530" y="917" on="1"/>
        <pt x="540" y="917" on="0"/>
        <pt x="553" y="904" on="0"/>
        <pt x="553" y="894" on="1"/>
        <pt x="553" y="778" on="1"/>
        <pt x="553" y="768" on="0"/>
        <pt x="540" y="755" on="0"/>
        <pt x="530" y="755" on="1"/>
        <pt x="153" y="755" on="1"/>
        <pt x="143" y="755" on="0"/>
        <pt x="130" y="768" on="0"/>
        <pt x="130" y="778" on="1"/>
        <pt x="130" y="894" on="1"/>
        <pt x="130" y="904" on="0"/>
        <pt x="143" y="917" on="0"/>
      </contour>
    </TTGlyph>
    <TTGlyph name="Eng" xMin="65" yMin="-306" xMax="695" yMax="700">
      <contour>
        <pt x="326" y="-130" on="1"/>
        <pt x="326" y="-119" on="0"/>
        <pt x="342" y="-103" on="0"/>
        <pt x="353" y="-103" on="1"/>
        <pt x="393" y="-103" on="1"/>
        <pt x="427" y="-103" on="0"/>
        <pt x="460" y="-66" on="0"/>
        <pt x="460" y="-22" on="1"/>
        <pt x="460" y="36" on="1"/>
        <pt x="300" y="278" on="1"/>
        <pt x="300" y="27" on="1"/>
        <pt x="300" y="16" on="0"/>
        <pt x="284" y="0" on="0"/>
        <pt x="273" y="0" on="1"/>
        <pt x="92" y="0" on="1"/>
        <pt x="81" y="0" on="0"/>
        <pt x="65" y="16" on="0"/>
        <pt x="65" y="27" on="1"/>
        <pt x="65" y="673" on="1"/>
        <pt x="65" y="684" on="0"/>
        <pt x="81" y="700" on="0"/>
        <pt x="92" y="700" on="1"/>
        <pt x="250" y="700" on="1"/>
        <pt x="278" y="700" on="0"/>
        <pt x="291" y="677" on="1"/>
        <pt x="460" y="400" on="1"/>
        <pt x="460" y="673" on="1"/>
        <pt x="460" y="684" on="0"/>
        <pt x="476" y="700" on="0"/>
        <pt x="487" y="700" on="1"/>
        <pt x="668" y="700" on="1"/>
        <pt x="679" y="700" on="0"/>
        <pt x="695" y="684" on="0"/>
        <pt x="695" y="673" on="1"/>
        <pt x="695" y="-33" on="1"/>
        <pt x="695" y="-169" on="0"/>
        <pt x="514" y="-306" on="0"/>
        <pt x="369" y="-306" on="1"/>
        <pt x="353" y="-306" on="1"/>
        <pt x="342" y="-306" on="0"/>
        <pt x="326" y="-290" on="0"/>
        <pt x="326" y="-279" on="1"/>
      </contour>
    </TTGlyph>
    <TTGlyph name="Eogonek" xMin="65" yMin="-222" xMax="640" yMax="700">
      <contour>
        <pt x="603" y="-100" on="1"/>
        <pt x="613" y="-100" on="1"/>
        <pt x="624" y="-100" on="0"/>
        <pt x="640" y="-116" on="0"/>
        <pt x="640" y="-127" on="1"/>
        <pt x="640" y="-195" on="1"/>
        <pt x="640" y="-206" on="0"/>
        <pt x="624" y="-222" on="0"/>
        <pt x="613" y="-222" on="1"/>
        <pt x="599" y="-222" on="1"/>
        <pt x="513" y="-222" on="0"/>
        <pt x="427" y="-126" on="0"/>
        <pt x="427" y="-50" on="1"/>
        <pt x="427" y="-27" on="0"/>
        <pt x="432" y="0" on="1"/>
        <pt x="92" y="0" on="1"/>
        <pt x="81" y="0" on="0"/>
        <pt x="65" y="16" on="0"/>
        <pt x="65" y="27" on="1"/>
        <pt x="65" y="673" on="1"/>
        <pt x="65" y="684" on="0"/>
        <pt x="81" y="700" on="0"/>
        <pt x="92" y="700" on="1"/>
        <pt x="605" y="700" on="1"/>
        <pt x="616" y="700" on="0"/>
        <pt x="632" y="684" on="0"/>
        <pt x="632" y="673" on="1"/>
        <pt x="632" y="532" on="1"/>
        <pt x="632" y="521" on="0"/>
        <pt x="616" y="505" on="0"/>
        <pt x="605" y="505" on="1"/>
        <pt x="305" y="505" on="1"/>
        <pt x="305" y="442" on="1"/>
        <pt x="583" y="442" on="1"/>
        <pt x="594" y="442" on="0"/>
        <pt x="610" y="426" on="0"/>
        <pt x="610" y="415" on="1"/>
        <pt x="610" y="285" on="1"/>
        <pt x="610" y="274" on="0"/>
        <pt x="594" y="258" on="0"/>
        <pt x="583" y="258" on="1"/>
        <pt x="305" y="258" on="1"/>
        <pt x="305" y="195" on="1"/>
        <pt x="613" y="195" on="1"/>
        <pt x="624" y="195" on="0"/>
        <pt x="640" y="179" on="0"/>
        <pt x="640" y="168" on="1"/>
        <pt x="640" y="27" on="1"/>
        <pt x="640" y="16" on="0"/>
        <pt x="624" y="0" on="0"/>
        <pt x="613" y="0" on="1"/>
        <pt x="603" y="0" on="1"/>
        <pt x="577" y="0" on="0"/>
        <pt x="553" y="-31" on="0"/>
        <pt x="553" y="-69" on="0"/>
        <pt x="577" y="-100" on="0"/>
      </contour>
    </TTGlyph>
    <TTGlyph name="Eth" xMin="0" yMin="0" xMax="715" yMax="700">
      <contour>
        <pt x="27" y="429" on="1"/>
        <pt x="65" y="429" on="1"/>
        <pt x="65" y="673" on="1"/>
        <pt x="65" y="684" on="0"/>
        <pt x="81" y="700" on="0"/>
        <pt x="92" y="700" on="1"/>
        <pt x="380" y="700" on="1"/>
        <pt x="526" y="700" on="0"/>
        <pt x="715" y="555" on="0"/>
        <pt x="715" y="425" on="1"/>
        <pt x="715" y="276" on="1"/>
        <pt x="715" y="140" on="0"/>
        <pt x="531" y="0" on="0"/>
        <pt x="381" y="0" on="1"/>
        <pt x="92" y="0" on="1"/>
        <pt x="81" y="0" on="0"/>
        <pt x="65" y="16" on="0"/>
        <pt x="65" y="27" on="1"/>
        <pt x="65" y="274" on="1"/>
        <pt x="27" y="274" on="1"/>
        <pt x="16" y="274" on="0"/>
        <pt x="0" y="290" on="0"/>
        <pt x="0" y="301" on="1"/>
        <pt x="0" y="402" on="1"/>
        <pt x="0" y="413" on="0"/>
        <pt x="16" y="429" on="0"/>
      </contour>
      <contour>
        <pt x="315" y="505" on="1"/>
        <pt x="315" y="429" on="1"/>
        <pt x="371" y="429" on="1"/>
        <pt x="382" y="429" on="0"/>
        <pt x="398" y="413" on="0"/>
        <pt x="398" y="402" on="1"/>
        <pt x="398" y="301" on="1"/>
        <pt x="398" y="290" on="0"/>
        <pt x="382" y="274" on="0"/>
        <pt x="371" y="274" on="1"/>
        <pt x="315" y="274" on="1"/>
        <pt x="315" y="195" on="1"/>
        <pt x="380" y="195" on="1"/>
        <pt x="414" y="195" on="0"/>
        <pt x="455" y="236" on="0"/>
        <pt x="455" y="276" on="1"/>
        <pt x="455" y="425" on="1"/>
        <pt x="455" y="505" on="0"/>
        <pt x="380" y="505" on="1"/>
      </contour>
    </TTGlyph>
    <TTGlyph name="Euro" xMin="25" yMin="-10" xMax="775" yMax="711">
      <contour>
        <pt x="52" y="436" on="1"/>
        <pt x="103" y="436" on="1"/>
        <pt x="103" y="576" on="0"/>
        <pt x="285" y="711" on="0"/>
        <pt x="581" y="711" on="0"/>
        <pt x="775" y="581" on="0"/>
        <pt x="775" y="465" on="1"/>
        <pt x="775" y="456" on="0"/>
        <pt x="762" y="443" on="0"/>
        <pt x="753" y="443" on="1"/>
        <pt x="549" y="443" on="1"/>
        <pt x="520" y="443" on="0"/>
        <pt x="508" y="472" on="1"/>
        <pt x="490" y="516" on="0"/>
        <pt x="437" y="516" on="1"/>
        <pt x="363" y="516" on="0"/>
        <pt x="363" y="436" on="1"/>
        <pt x="457" y="436" on="1"/>
        <pt x="468" y="436" on="0"/>
        <pt x="484" y="420" on="0"/>
        <pt x="484" y="409" on="1"/>
        <pt x="484" y="293" on="1"/>
        <pt x="484" y="282" on="0"/>
        <pt x="468" y="266" on="0"/>
        <pt x="457" y="266" on="1"/>
        <pt x="363" y="266" on="1"/>
        <pt x="363" y="185" on="0"/>
        <pt x="437" y="185" on="1"/>
        <pt x="490" y="185" on="0"/>
        <pt x="508" y="229" on="1"/>
        <pt x="520" y="258" on="0"/>
        <pt x="549" y="258" on="1"/>
        <pt x="753" y="258" on="1"/>
        <pt x="762" y="258" on="0"/>
        <pt x="775" y="245" on="0"/>
        <pt x="775" y="236" on="1"/>
        <pt x="775" y="120" on="0"/>
        <pt x="581" y="-10" on="0"/>
        <pt x="285" y="-10" on="0"/>
        <pt x="103" y="125" on="0"/>
        <pt x="103" y="265" on="1"/>
        <pt x="103" y="266" on="1"/>
        <pt x="52" y="266" on="1"/>
        <pt x="41" y="266" on="0"/>
        <pt x="25" y="282" on="0"/>
        <pt x="25" y="293" on="1"/>
        <pt x="25" y="409" on="1"/>
        <pt x="25" y="420" on="0"/>
        <pt x="41" y="436" on="0"/>
      </contour>
    </TTGlyph>
    <TTGlyph name="F" xMin="65" yMin="0" xMax="623" yMax="700">
      <contour>
        <pt x="92" y="700" on="1"/>
        <pt x="596" y="700" on="1"/>
        <pt x="607" y="700" on="0"/>
        <pt x="623" y="684" on="0"/>
        <pt x="623" y="673" on="1"/>
        <pt x="623" y="521" on="1"/>
        <pt x="623" y="510" on="0"/>
        <pt x="607" y="494" on="0"/>
        <pt x="596" y="494" on="1"/>
        <pt x="310" y="494" on="1"/>
        <pt x="310" y="420" on="1"/>
        <pt x="576" y="420" on="1"/>
        <pt x="587" y="420" on="0"/>
        <pt x="603" y="404" on="0"/>
        <pt x="603" y="393" on="1"/>
        <pt x="603" y="242" on="1"/>
        <pt x="603" y="231" on="0"/>
        <pt x="587" y="215" on="0"/>
        <pt x="576" y="215" on="1"/>
        <pt x="310" y="215" on="1"/>
        <pt x="310" y="27" on="1"/>
        <pt x="310" y="16" on="0"/>
        <pt x="294" y="0" on="0"/>
        <pt x="283" y="0" on="1"/>
        <pt x="92" y="0" on="1"/>
        <pt x="81" y="0" on="0"/>
        <pt x="65" y="16" on="0"/>
        <pt x="65" y="27" on="1"/>
        <pt x="65" y="673" on="1"/>
        <pt x="65" y="684" on="0"/>
        <pt x="81" y="700" on="0"/>
      </contour>
    </TTGlyph>
    <TTGlyph name="G" xMin="45" yMin="-10" xMax="726" yMax="710">
      <contour>
        <pt x="424" y="422" on="1"/>
        <pt x="699" y="422" on="1"/>
        <pt x="710" y="422" on="0"/>
        <pt x="726" y="406" on="0"/>
        <pt x="726" y="395" on="1"/>
        <pt x="726" y="265" on="1"/>
        <pt x="726" y="133" on="0"/>
        <pt x="538" y="-10" on="0"/>
        <pt x="225" y="-10" on="0"/>
        <pt x="45" y="129" on="0"/>
        <pt x="45" y="268" on="1"/>
        <pt x="45" y="436" on="1"/>
        <pt x="45" y="569" on="0"/>
        <pt x="229" y="710" on="0"/>
        <pt x="536" y="710" on="0"/>
        <pt x="726" y="581" on="0"/>
        <pt x="726" y="487" on="1"/>
        <pt x="726" y="478" on="0"/>
        <pt x="713" y="465" on="0"/>
        <pt x="704" y="465" on="1"/>
        <pt x="483" y="465" on="1"/>
        <pt x="463" y="465" on="0"/>
        <pt x="454" y="476" on="1"/>
        <pt x="434" y="502" on="0"/>
        <pt x="424" y="506" on="1"/>
        <pt x="401" y="515" on="0"/>
        <pt x="382" y="515" on="1"/>
        <pt x="305" y="515" on="0"/>
        <pt x="305" y="440" on="1"/>
        <pt x="305" y="270" on="1"/>
        <pt x="305" y="185" on="0"/>
        <pt x="387" y="185" on="1"/>
        <pt x="471" y="185" on="0"/>
        <pt x="471" y="257" on="1"/>
        <pt x="424" y="257" on="1"/>
        <pt x="413" y="257" on="0"/>
        <pt x="397" y="273" on="0"/>
        <pt x="397" y="284" on="1"/>
        <pt x="397" y="395" on="1"/>
        <pt x="397" y="406" on="0"/>
        <pt x="413" y="422" on="0"/>
      </contour>
    </TTGlyph>
    <TTGlyph name="Gbreve" xMin="45" yMin="-10" xMax="726" yMax="925">
      <contour>
        <pt x="424" y="422" on="1"/>
        <pt x="699" y="422" on="1"/>
        <pt x="710" y="422" on="0"/>
        <pt x="726" y="406" on="0"/>
        <pt x="726" y="395" on="1"/>
        <pt x="726" y="265" on="1"/>
        <pt x="726" y="133" on="0"/>
        <pt x="538" y="-10" on="0"/>
        <pt x="225" y="-10" on="0"/>
        <pt x="45" y="129" on="0"/>
        <pt x="45" y="268" on="1"/>
        <pt x="45" y="436" on="1"/>
        <pt x="45" y="569" on="0"/>
        <pt x="229" y="710" on="0"/>
        <pt x="536" y="710" on="0"/>
        <pt x="726" y="581" on="0"/>
        <pt x="726" y="487" on="1"/>
        <pt x="726" y="478" on="0"/>
        <pt x="713" y="465" on="0"/>
        <pt x="704" y="465" on="1"/>
        <pt x="483" y="465" on="1"/>
        <pt x="463" y="465" on="0"/>
        <pt x="454" y="476" on="1"/>
        <pt x="434" y="502" on="0"/>
        <pt x="424" y="506" on="1"/>
        <pt x="401" y="515" on="0"/>
        <pt x="382" y="515" on="1"/>
        <pt x="305" y="515" on="0"/>
        <pt x="305" y="440" on="1"/>
        <pt x="305" y="270" on="1"/>
        <pt x="305" y="185" on="0"/>
        <pt x="387" y="185" on="1"/>
        <pt x="471" y="185" on="0"/>
        <pt x="471" y="257" on="1"/>
        <pt x="424" y="257" on="1"/>
        <pt x="413" y="257" on="0"/>
        <pt x="397" y="273" on="0"/>
        <pt x="397" y="284" on="1"/>
        <pt x="397" y="395" on="1"/>
        <pt x="397" y="406" on="0"/>
        <pt x="413" y="422" on="0"/>
      </contour>
      <contour>
        <pt x="420" y="906" on="1"/>
        <pt x="420" y="925" on="0"/>
        <pt x="439" y="925" on="1"/>
        <pt x="538" y="925" on="1"/>
        <pt x="557" y="925" on="0"/>
        <pt x="557" y="906" on="1"/>
        <pt x="557" y="835" on="0"/>
        <pt x="467" y="750" on="0"/>
        <pt x="292" y="750" on="0"/>
        <pt x="202" y="836" on="0"/>
        <pt x="202" y="906" on="1"/>
        <pt x="202" y="925" on="0"/>
        <pt x="221" y="925" on="1"/>
        <pt x="320" y="925" on="1"/>
        <pt x="339" y="925" on="0"/>
        <pt x="339" y="906" on="1"/>
        <pt x="339" y="851" on="0"/>
        <pt x="420" y="851" on="0"/>
      </contour>
    </TTGlyph>
    <TTGlyph name="Gcircumflex" xMin="45" yMin="-10" xMax="726" yMax="922">
      <contour>
        <pt x="424" y="422" on="1"/>
        <pt x="699" y="422" on="1"/>
        <pt x="710" y="422" on="0"/>
        <pt x="726" y="406" on="0"/>
        <pt x="726" y="395" on="1"/>
        <pt x="726" y="265" on="1"/>
        <pt x="726" y="133" on="0"/>
        <pt x="538" y="-10" on="0"/>
        <pt x="225" y="-10" on="0"/>
        <pt x="45" y="129" on="0"/>
        <pt x="45" y="268" on="1"/>
        <pt x="45" y="436" on="1"/>
        <pt x="45" y="569" on="0"/>
        <pt x="229" y="710" on="0"/>
        <pt x="536" y="710" on="0"/>
        <pt x="726" y="581" on="0"/>
        <pt x="726" y="487" on="1"/>
        <pt x="726" y="478" on="0"/>
        <pt x="713" y="465" on="0"/>
        <pt x="704" y="465" on="1"/>
        <pt x="483" y="465" on="1"/>
        <pt x="463" y="465" on="0"/>
        <pt x="454" y="476" on="1"/>
        <pt x="434" y="502" on="0"/>
        <pt x="424" y="506" on="1"/>
        <pt x="401" y="515" on="0"/>
        <pt x="382" y="515" on="1"/>
        <pt x="305" y="515" on="0"/>
        <pt x="305" y="440" on="1"/>
        <pt x="305" y="270" on="1"/>
        <pt x="305" y="185" on="0"/>
        <pt x="387" y="185" on="1"/>
        <pt x="471" y="185" on="0"/>
        <pt x="471" y="257" on="1"/>
        <pt x="424" y="257" on="1"/>
        <pt x="413" y="257" on="0"/>
        <pt x="397" y="273" on="0"/>
        <pt x="397" y="284" on="1"/>
        <pt x="397" y="395" on="1"/>
        <pt x="397" y="406" on="0"/>
        <pt x="413" y="422" on="0"/>
      </contour>
      <contour>
        <pt x="328" y="922" on="1"/>
        <pt x="458" y="922" on="1"/>
        <pt x="469" y="922" on="0"/>
        <pt x="479" y="916" on="0"/>
        <pt x="495" y="903" on="1"/>
        <pt x="612" y="779" on="1"/>
        <pt x="617" y="774" on="0"/>
        <pt x="617" y="766" on="1"/>
        <pt x="617" y="750" on="0"/>
        <pt x="601" y="750" on="1"/>
        <pt x="530" y="750" on="1"/>
        <pt x="511" y="750" on="0"/>
        <pt x="490" y="757" on="1"/>
        <pt x="393" y="799" on="1"/>
        <pt x="296" y="757" on="1"/>
        <pt x="275" y="750" on="0"/>
        <pt x="256" y="750" on="1"/>
        <pt x="185" y="750" on="1"/>
        <pt x="169" y="750" on="0"/>
        <pt x="169" y="766" on="1"/>
        <pt x="169" y="774" on="0"/>
        <pt x="174" y="779" on="1"/>
        <pt x="291" y="903" on="1"/>
        <pt x="307" y="916" on="0"/>
        <pt x="317" y="922" on="0"/>
      </contour>
    </TTGlyph>
    <TTGlyph name="Gcommaaccent" xMin="45" yMin="-250" xMax="726" yMax="710">
      <contour>
        <pt x="424" y="422" on="1"/>
        <pt x="699" y="422" on="1"/>
        <pt x="710" y="422" on="0"/>
        <pt x="726" y="406" on="0"/>
        <pt x="726" y="395" on="1"/>
        <pt x="726" y="265" on="1"/>
        <pt x="726" y="133" on="0"/>
        <pt x="538" y="-10" on="0"/>
        <pt x="225" y="-10" on="0"/>
        <pt x="45" y="129" on="0"/>
        <pt x="45" y="268" on="1"/>
        <pt x="45" y="436" on="1"/>
        <pt x="45" y="569" on="0"/>
        <pt x="229" y="710" on="0"/>
        <pt x="536" y="710" on="0"/>
        <pt x="726" y="581" on="0"/>
        <pt x="726" y="487" on="1"/>
        <pt x="726" y="478" on="0"/>
        <pt x="713" y="465" on="0"/>
        <pt x="704" y="465" on="1"/>
        <pt x="483" y="465" on="1"/>
        <pt x="463" y="465" on="0"/>
        <pt x="454" y="476" on="1"/>
        <pt x="434" y="502" on="0"/>
        <pt x="424" y="506" on="1"/>
        <pt x="401" y="515" on="0"/>
        <pt x="382" y="515" on="1"/>
        <pt x="305" y="515" on="0"/>
        <pt x="305" y="440" on="1"/>
        <pt x="305" y="270" on="1"/>
        <pt x="305" y="185" on="0"/>
        <pt x="387" y="185" on="1"/>
        <pt x="471" y="185" on="0"/>
        <pt x="471" y="257" on="1"/>
        <pt x="424" y="257" on="1"/>
        <pt x="413" y="257" on="0"/>
        <pt x="397" y="273" on="0"/>
        <pt x="397" y="284" on="1"/>
        <pt x="397" y="395" on="1"/>
        <pt x="397" y="406" on="0"/>
        <pt x="413" y="422" on="0"/>
      </contour>
      <contour>
        <pt x="326" y="-250" on="1"/>
        <pt x="209" y="-250" on="1"/>
        <pt x="190" y="-250" on="0"/>
        <pt x="190" y="-231" on="1"/>
        <pt x="190" y="-226" on="0"/>
        <pt x="195" y="-216" on="1"/>
        <pt x="270" y="-70" on="1"/>
        <pt x="279" y="-50" on="0"/>
        <pt x="312" y="-50" on="1"/>
        <pt x="452" y="-50" on="1"/>
        <pt x="468" y="-50" on="0"/>
        <pt x="468" y="-66" on="1"/>
        <pt x="468" y="-74" on="0"/>
        <pt x="463" y="-81" on="1"/>
        <pt x="363" y="-231" on="1"/>
        <pt x="351" y="-250" on="0"/>
      </contour>
    </TTGlyph>
    <TTGlyph name="Gdotaccent" xMin="45" yMin="-10" xMax="726" yMax="922">
      <contour>
        <pt x="424" y="422" on="1"/>
        <pt x="699" y="422" on="1"/>
        <pt x="710" y="422" on="0"/>
        <pt x="726" y="406" on="0"/>
        <pt x="726" y="395" on="1"/>
        <pt x="726" y="265" on="1"/>
        <pt x="726" y="133" on="0"/>
        <pt x="538" y="-10" on="0"/>
        <pt x="225" y="-10" on="0"/>
        <pt x="45" y="129" on="0"/>
        <pt x="45" y="268" on="1"/>
        <pt x="45" y="436" on="1"/>
        <pt x="45" y="569" on="0"/>
        <pt x="229" y="710" on="0"/>
        <pt x="536" y="710" on="0"/>
        <pt x="726" y="581" on="0"/>
        <pt x="726" y="487" on="1"/>
        <pt x="726" y="478" on="0"/>
        <pt x="713" y="465" on="0"/>
        <pt x="704" y="465" on="1"/>
        <pt x="483" y="465" on="1"/>
        <pt x="463" y="465" on="0"/>
        <pt x="454" y="476" on="1"/>
        <pt x="434" y="502" on="0"/>
        <pt x="424" y="506" on="1"/>
        <pt x="401" y="515" on="0"/>
        <pt x="382" y="515" on="1"/>
        <pt x="305" y="515" on="0"/>
        <pt x="305" y="440" on="1"/>
        <pt x="305" y="270" on="1"/>
        <pt x="305" y="185" on="0"/>
        <pt x="387" y="185" on="1"/>
        <pt x="471" y="185" on="0"/>
        <pt x="471" y="257" on="1"/>
        <pt x="424" y="257" on="1"/>
        <pt x="413" y="257" on="0"/>
        <pt x="397" y="273" on="0"/>
        <pt x="397" y="284" on="1"/>
        <pt x="397" y="395" on="1"/>
        <pt x="397" y="406" on="0"/>
        <pt x="413" y="422" on="0"/>
      </contour>
      <contour>
        <pt x="311" y="922" on="1"/>
        <pt x="447" y="922" on="1"/>
        <pt x="457" y="922" on="0"/>
        <pt x="470" y="909" on="0"/>
        <pt x="470" y="899" on="1"/>
        <pt x="470" y="763" on="1"/>
        <pt x="470" y="753" on="0"/>
        <pt x="457" y="740" on="0"/>
        <pt x="447" y="740" on="1"/>
        <pt x="311" y="740" on="1"/>
        <pt x="301" y="740" on="0"/>
        <pt x="288" y="753" on="0"/>
        <pt x="288" y="763" on="1"/>
        <pt x="288" y="899" on="1"/>
        <pt x="288" y="909" on="0"/>
        <pt x="301" y="922" on="0"/>
      </contour>
    </TTGlyph>
    <TTGlyph name="Grave" xMin="50" yMin="750" xMax="410" yMax="922">
      <contour>
        <pt x="410" y="766" on="1"/>
        <pt x="410" y="750" on="0"/>
        <pt x="394" y="750" on="1"/>
        <pt x="254" y="750" on="1"/>
        <pt x="224" y="750" on="0"/>
        <pt x="213" y="760" on="1"/>
        <pt x="55" y="890" on="1"/>
        <pt x="50" y="895" on="0"/>
        <pt x="50" y="902" on="1"/>
        <pt x="50" y="922" on="0"/>
        <pt x="69" y="922" on="1"/>
        <pt x="266" y="922" on="1"/>
        <pt x="286" y="922" on="0"/>
        <pt x="303" y="903" on="1"/>
        <pt x="405" y="779" on="1"/>
        <pt x="410" y="774" on="0"/>
      </contour>
    </TTGlyph>
    <TTGlyph name="H" xMin="65" yMin="0" xMax="727" yMax="700">
      <contour>
        <pt x="504" y="700" on="1"/>
        <pt x="700" y="700" on="1"/>
        <pt x="711" y="700" on="0"/>
        <pt x="727" y="684" on="0"/>
        <pt x="727" y="673" on="1"/>
        <pt x="727" y="27" on="1"/>
        <pt x="727" y="16" on="0"/>
        <pt x="711" y="0" on="0"/>
        <pt x="700" y="0" on="1"/>
        <pt x="504" y="0" on="1"/>
        <pt x="493" y="0" on="0"/>
        <pt x="477" y="16" on="0"/>
        <pt x="477" y="27" on="1"/>
        <pt x="477" y="243" on="1"/>
        <pt x="315" y="243" on="1"/>
        <pt x="315" y="27" on="1"/>
        <pt x="315" y="16" on="0"/>
        <pt x="299" y="0" on="0"/>
        <pt x="288" y="0" on="1"/>
        <pt x="92" y="0" on="1"/>
        <pt x="81" y="0" on="0"/>
        <pt x="65" y="15" on="0"/>
        <pt x="65" y="27" on="1"/>
        <pt x="65" y="673" on="1"/>
        <pt x="65" y="684" on="0"/>
        <pt x="81" y="700" on="0"/>
        <pt x="92" y="700" on="1"/>
        <pt x="288" y="700" on="1"/>
        <pt x="299" y="700" on="0"/>
        <pt x="315" y="684" on="0"/>
        <pt x="315" y="673" on="1"/>
        <pt x="315" y="463" on="1"/>
        <pt x="477" y="463" on="1"/>
        <pt x="477" y="673" on="1"/>
        <pt x="477" y="684" on="0"/>
        <pt x="493" y="700" on="0"/>
      </contour>
    </TTGlyph>
    <TTGlyph name="Hbar" xMin="65" yMin="0" xMax="727" yMax="700">
      <contour>
        <pt x="504" y="700" on="1"/>
        <pt x="700" y="700" on="1"/>
        <pt x="711" y="700" on="0"/>
        <pt x="727" y="684" on="0"/>
        <pt x="727" y="673" on="1"/>
        <pt x="727" y="27" on="1"/>
        <pt x="727" y="16" on="0"/>
        <pt x="711" y="0" on="0"/>
        <pt x="700" y="0" on="1"/>
        <pt x="504" y="0" on="1"/>
        <pt x="493" y="0" on="0"/>
        <pt x="477" y="16" on="0"/>
        <pt x="477" y="27" on="1"/>
        <pt x="477" y="243" on="1"/>
        <pt x="315" y="243" on="1"/>
        <pt x="315" y="27" on="1"/>
        <pt x="315" y="16" on="0"/>
        <pt x="299" y="0" on="0"/>
        <pt x="288" y="0" on="1"/>
        <pt x="92" y="0" on="1"/>
        <pt x="81" y="0" on="0"/>
        <pt x="65" y="15" on="0"/>
        <pt x="65" y="27" on="1"/>
        <pt x="65" y="673" on="1"/>
        <pt x="65" y="684" on="0"/>
        <pt x="81" y="700" on="0"/>
        <pt x="92" y="700" on="1"/>
        <pt x="288" y="700" on="1"/>
        <pt x="299" y="700" on="0"/>
        <pt x="315" y="684" on="0"/>
        <pt x="315" y="673" on="1"/>
        <pt x="315" y="636" on="1"/>
        <pt x="477" y="636" on="1"/>
        <pt x="477" y="673" on="1"/>
        <pt x="477" y="684" on="0"/>
        <pt x="493" y="700" on="0"/>
      </contour>
      <contour>
        <pt x="315" y="463" on="1"/>
        <pt x="477" y="463" on="1"/>
        <pt x="477" y="511" on="1"/>
        <pt x="315" y="511" on="1"/>
      </contour>
    </TTGlyph>
    <TTGlyph name="Hcircumflex" xMin="65" yMin="0" xMax="727" yMax="922">
      <contour>
        <pt x="504" y="700" on="1"/>
        <pt x="700" y="700" on="1"/>
        <pt x="711" y="700" on="0"/>
        <pt x="727" y="684" on="0"/>
        <pt x="727" y="673" on="1"/>
        <pt x="727" y="27" on="1"/>
        <pt x="727" y="16" on="0"/>
        <pt x="711" y="0" on="0"/>
        <pt x="700" y="0" on="1"/>
        <pt x="504" y="0" on="1"/>
        <pt x="493" y="0" on="0"/>
        <pt x="477" y="16" on="0"/>
        <pt x="477" y="27" on="1"/>
        <pt x="477" y="243" on="1"/>
        <pt x="315" y="243" on="1"/>
        <pt x="315" y="27" on="1"/>
        <pt x="315" y="16" on="0"/>
        <pt x="299" y="0" on="0"/>
        <pt x="288" y="0" on="1"/>
        <pt x="92" y="0" on="1"/>
        <pt x="81" y="0" on="0"/>
        <pt x="65" y="15" on="0"/>
        <pt x="65" y="27" on="1"/>
        <pt x="65" y="673" on="1"/>
        <pt x="65" y="684" on="0"/>
        <pt x="81" y="700" on="0"/>
        <pt x="92" y="700" on="1"/>
        <pt x="288" y="700" on="1"/>
        <pt x="299" y="700" on="0"/>
        <pt x="315" y="684" on="0"/>
        <pt x="315" y="673" on="1"/>
        <pt x="315" y="463" on="1"/>
        <pt x="477" y="463" on="1"/>
        <pt x="477" y="673" on="1"/>
        <pt x="477" y="684" on="0"/>
        <pt x="493" y="700" on="0"/>
      </contour>
      <contour>
        <pt x="326" y="922" on="1"/>
        <pt x="456" y="922" on="1"/>
        <pt x="467" y="922" on="0"/>
        <pt x="477" y="916" on="0"/>
        <pt x="493" y="903" on="1"/>
        <pt x="610" y="779" on="1"/>
        <pt x="615" y="774" on="0"/>
        <pt x="615" y="766" on="1"/>
        <pt x="615" y="750" on="0"/>
        <pt x="599" y="750" on="1"/>
        <pt x="528" y="750" on="1"/>
        <pt x="509" y="750" on="0"/>
        <pt x="488" y="757" on="1"/>
        <pt x="391" y="799" on="1"/>
        <pt x="294" y="757" on="1"/>
        <pt x="273" y="750" on="0"/>
        <pt x="254" y="750" on="1"/>
        <pt x="183" y="750" on="1"/>
        <pt x="167" y="750" on="0"/>
        <pt x="167" y="766" on="1"/>
        <pt x="167" y="774" on="0"/>
        <pt x="172" y="779" on="1"/>
        <pt x="289" y="903" on="1"/>
        <pt x="305" y="916" on="0"/>
        <pt x="315" y="922" on="0"/>
      </contour>
    </TTGlyph>
    <TTGlyph name="Hungarumlaut" xMin="50" yMin="750" xMax="596" yMax="922">
      <contour>
        <pt x="147" y="922" on="1"/>
        <pt x="305" y="922" on="1"/>
        <pt x="325" y="922" on="0"/>
        <pt x="325" y="903" on="1"/>
        <pt x="325" y="896" on="0"/>
        <pt x="319" y="890" on="1"/>
        <pt x="197" y="757" on="1"/>
        <pt x="191" y="750" on="0"/>
        <pt x="157" y="750" on="1"/>
        <pt x="66" y="750" on="1"/>
        <pt x="50" y="750" on="0"/>
        <pt x="50" y="766" on="1"/>
        <pt x="50" y="771" on="0"/>
        <pt x="55" y="781" on="1"/>
        <pt x="110" y="903" on="1"/>
        <pt x="117" y="920" on="0"/>
        <pt x="132" y="922" on="1"/>
        <pt x="136" y="922" on="0"/>
      </contour>
      <contour>
        <pt x="418" y="922" on="1"/>
        <pt x="576" y="922" on="1"/>
        <pt x="596" y="922" on="0"/>
        <pt x="596" y="903" on="1"/>
        <pt x="596" y="896" on="0"/>
        <pt x="590" y="890" on="1"/>
        <pt x="468" y="757" on="1"/>
        <pt x="462" y="750" on="0"/>
        <pt x="428" y="750" on="1"/>
        <pt x="337" y="750" on="1"/>
        <pt x="321" y="750" on="0"/>
        <pt x="321" y="766" on="1"/>
        <pt x="321" y="771" on="0"/>
        <pt x="326" y="781" on="1"/>
        <pt x="381" y="903" on="1"/>
        <pt x="388" y="920" on="0"/>
        <pt x="403" y="922" on="1"/>
        <pt x="407" y="922" on="0"/>
      </contour>
    </TTGlyph>
    <TTGlyph name="I" xMin="65" yMin="0" xMax="323" yMax="700">
      <contour>
        <pt x="296" y="0" on="1"/>
        <pt x="92" y="0" on="1"/>
        <pt x="81" y="0" on="0"/>
        <pt x="65" y="16" on="0"/>
        <pt x="65" y="27" on="1"/>
        <pt x="65" y="673" on="1"/>
        <pt x="65" y="684" on="0"/>
        <pt x="81" y="700" on="0"/>
        <pt x="92" y="700" on="1"/>
        <pt x="296" y="700" on="1"/>
        <pt x="307" y="700" on="0"/>
        <pt x="323" y="684" on="0"/>
        <pt x="323" y="673" on="1"/>
        <pt x="323" y="27" on="1"/>
        <pt x="323" y="16" on="0"/>
        <pt x="307" y="0" on="0"/>
      </contour>
    </TTGlyph>
    <TTGlyph name="IJ" xMin="65" yMin="-10" xMax="1011" yMax="700">
      <contour>
        <pt x="296" y="0" on="1"/>
        <pt x="92" y="0" on="1"/>
        <pt x="81" y="0" on="0"/>
        <pt x="65" y="16" on="0"/>
        <pt x="65" y="27" on="1"/>
        <pt x="65" y="673" on="1"/>
        <pt x="65" y="684" on="0"/>
        <pt x="81" y="700" on="0"/>
        <pt x="92" y="700" on="1"/>
        <pt x="296" y="700" on="1"/>
        <pt x="307" y="700" on="0"/>
        <pt x="323" y="684" on="0"/>
        <pt x="323" y="673" on="1"/>
        <pt x="323" y="27" on="1"/>
        <pt x="323" y="16" on="0"/>
        <pt x="307" y="0" on="0"/>
      </contour>
      <contour>
        <pt x="1011" y="673" on="1"/>
        <pt x="1011" y="263" on="1"/>
        <pt x="1011" y="127" on="0"/>
        <pt x="830" y="-10" on="0"/>
        <pt x="554" y="-10" on="0"/>
        <pt x="368" y="122" on="0"/>
        <pt x="368" y="235" on="1"/>
        <pt x="368" y="244" on="0"/>
        <pt x="381" y="257" on="0"/>
        <pt x="390" y="257" on="1"/>
        <pt x="594" y="257" on="1"/>
        <pt x="610" y="257" on="0"/>
        <pt x="627" y="242" on="0"/>
        <pt x="645" y="203" on="0"/>
        <pt x="670" y="185" on="0"/>
        <pt x="693" y="185" on="1"/>
        <pt x="752" y="185" on="0"/>
        <pt x="752" y="266" on="1"/>
        <pt x="752" y="497" on="1"/>
        <pt x="455" y="497" on="1"/>
        <pt x="444" y="497" on="0"/>
        <pt x="428" y="513" on="0"/>
        <pt x="428" y="524" on="1"/>
        <pt x="428" y="673" on="1"/>
        <pt x="428" y="684" on="0"/>
        <pt x="444" y="700" on="0"/>
        <pt x="455" y="700" on="1"/>
        <pt x="984" y="700" on="1"/>
        <pt x="995" y="700" on="0"/>
        <pt x="1011" y="684" on="0"/>
      </contour>
    </TTGlyph>
    <TTGlyph name="Iacute" xMin="65" yMin="0" xMax="458" yMax="922">
      <contour>
        <pt x="296" y="0" on="1"/>
        <pt x="92" y="0" on="1"/>
        <pt x="81" y="0" on="0"/>
        <pt x="65" y="16" on="0"/>
        <pt x="65" y="27" on="1"/>
        <pt x="65" y="673" on="1"/>
        <pt x="65" y="684" on="0"/>
        <pt x="81" y="700" on="0"/>
        <pt x="92" y="700" on="1"/>
        <pt x="296" y="700" on="1"/>
        <pt x="307" y="700" on="0"/>
        <pt x="323" y="684" on="0"/>
        <pt x="323" y="673" on="1"/>
        <pt x="323" y="27" on="1"/>
        <pt x="323" y="16" on="0"/>
        <pt x="307" y="0" on="0"/>
      </contour>
      <contour>
        <pt x="242" y="922" on="1"/>
        <pt x="439" y="922" on="1"/>
        <pt x="458" y="922" on="0"/>
        <pt x="458" y="902" on="1"/>
        <pt x="458" y="895" on="0"/>
        <pt x="453" y="890" on="1"/>
        <pt x="295" y="760" on="1"/>
        <pt x="284" y="750" on="0"/>
        <pt x="254" y="750" on="1"/>
        <pt x="114" y="750" on="1"/>
        <pt x="98" y="750" on="0"/>
        <pt x="98" y="766" on="1"/>
        <pt x="98" y="774" on="0"/>
        <pt x="103" y="779" on="1"/>
        <pt x="205" y="903" on="1"/>
        <pt x="222" y="922" on="0"/>
      </contour>
    </TTGlyph>
    <TTGlyph name="Ibreve" xMin="16" yMin="0" xMax="371" yMax="925">
      <contour>
        <pt x="296" y="0" on="1"/>
        <pt x="92" y="0" on="1"/>
        <pt x="81" y="0" on="0"/>
        <pt x="65" y="16" on="0"/>
        <pt x="65" y="27" on="1"/>
        <pt x="65" y="673" on="1"/>
        <pt x="65" y="684" on="0"/>
        <pt x="81" y="700" on="0"/>
        <pt x="92" y="700" on="1"/>
        <pt x="296" y="700" on="1"/>
        <pt x="307" y="700" on="0"/>
        <pt x="323" y="684" on="0"/>
        <pt x="323" y="673" on="1"/>
        <pt x="323" y="27" on="1"/>
        <pt x="323" y="16" on="0"/>
        <pt x="307" y="0" on="0"/>
      </contour>
      <contour>
        <pt x="234" y="906" on="1"/>
        <pt x="234" y="925" on="0"/>
        <pt x="253" y="925" on="1"/>
        <pt x="352" y="925" on="1"/>
        <pt x="371" y="925" on="0"/>
        <pt x="371" y="906" on="1"/>
        <pt x="371" y="835" on="0"/>
        <pt x="281" y="750" on="0"/>
        <pt x="106" y="750" on="0"/>
        <pt x="16" y="836" on="0"/>
        <pt x="16" y="906" on="1"/>
        <pt x="16" y="925" on="0"/>
        <pt x="35" y="925" on="1"/>
        <pt x="134" y="925" on="1"/>
        <pt x="153" y="925" on="0"/>
        <pt x="153" y="906" on="1"/>
        <pt x="153" y="851" on="0"/>
        <pt x="234" y="851" on="0"/>
      </contour>
    </TTGlyph>
    <TTGlyph name="Icircumflex" xMin="-27" yMin="0" xMax="421" yMax="922">
      <contour>
        <pt x="300" y="0" on="1"/>
        <pt x="96" y="0" on="1"/>
        <pt x="85" y="0" on="0"/>
        <pt x="69" y="16" on="0"/>
        <pt x="69" y="27" on="1"/>
        <pt x="69" y="673" on="1"/>
        <pt x="69" y="684" on="0"/>
        <pt x="85" y="700" on="0"/>
        <pt x="96" y="700" on="1"/>
        <pt x="300" y="700" on="1"/>
        <pt x="311" y="700" on="0"/>
        <pt x="327" y="684" on="0"/>
        <pt x="327" y="673" on="1"/>
        <pt x="327" y="27" on="1"/>
        <pt x="327" y="16" on="0"/>
        <pt x="311" y="0" on="0"/>
      </contour>
      <contour>
        <pt x="132" y="922" on="1"/>
        <pt x="262" y="922" on="1"/>
        <pt x="273" y="922" on="0"/>
        <pt x="283" y="916" on="0"/>
        <pt x="299" y="903" on="1"/>
        <pt x="416" y="779" on="1"/>
        <pt x="421" y="774" on="0"/>
        <pt x="421" y="766" on="1"/>
        <pt x="421" y="750" on="0"/>
        <pt x="405" y="750" on="1"/>
        <pt x="334" y="750" on="1"/>
        <pt x="315" y="750" on="0"/>
        <pt x="294" y="757" on="1"/>
        <pt x="197" y="799" on="1"/>
        <pt x="100" y="757" on="1"/>
        <pt x="79" y="750" on="0"/>
        <pt x="60" y="750" on="1"/>
        <pt x="-11" y="750" on="1"/>
        <pt x="-27" y="750" on="0"/>
        <pt x="-27" y="766" on="1"/>
        <pt x="-27" y="774" on="0"/>
        <pt x="-22" y="779" on="1"/>
        <pt x="95" y="903" on="1"/>
        <pt x="111" y="916" on="0"/>
        <pt x="121" y="922" on="0"/>
      </contour>
    </TTGlyph>
    <TTGlyph name="Idieresis" xMin="-20" yMin="0" xMax="423" yMax="922">
      <contour>
        <pt x="299" y="0" on="1"/>
        <pt x="95" y="0" on="1"/>
        <pt x="84" y="0" on="0"/>
        <pt x="68" y="16" on="0"/>
        <pt x="68" y="27" on="1"/>
        <pt x="68" y="673" on="1"/>
        <pt x="68" y="684" on="0"/>
        <pt x="84" y="700" on="0"/>
        <pt x="95" y="700" on="1"/>
        <pt x="299" y="700" on="1"/>
        <pt x="310" y="700" on="0"/>
        <pt x="326" y="684" on="0"/>
        <pt x="326" y="673" on="1"/>
        <pt x="326" y="27" on="1"/>
        <pt x="326" y="16" on="0"/>
        <pt x="310" y="0" on="0"/>
      </contour>
      <contour>
        <pt x="274" y="922" on="1"/>
        <pt x="400" y="922" on="1"/>
        <pt x="410" y="922" on="0"/>
        <pt x="423" y="909" on="0"/>
        <pt x="423" y="899" on="1"/>
        <pt x="423" y="773" on="1"/>
        <pt x="423" y="763" on="0"/>
        <pt x="410" y="750" on="0"/>
        <pt x="400" y="750" on="1"/>
        <pt x="274" y="750" on="1"/>
        <pt x="264" y="750" on="0"/>
        <pt x="251" y="763" on="0"/>
        <pt x="251" y="773" on="1"/>
        <pt x="251" y="899" on="1"/>
        <pt x="251" y="909" on="0"/>
        <pt x="264" y="922" on="0"/>
      </contour>
      <contour>
        <pt x="3" y="922" on="1"/>
        <pt x="129" y="922" on="1"/>
        <pt x="139" y="922" on="0"/>
        <pt x="152" y="909" on="0"/>
        <pt x="152" y="899" on="1"/>
        <pt x="152" y="773" on="1"/>
        <pt x="152" y="763" on="0"/>
        <pt x="139" y="750" on="0"/>
        <pt x="129" y="750" on="1"/>
        <pt x="3" y="750" on="1"/>
        <pt x="-7" y="750" on="0"/>
        <pt x="-20" y="763" on="0"/>
        <pt x="-20" y="773" on="1"/>
        <pt x="-20" y="899" on="1"/>
        <pt x="-20" y="909" on="0"/>
        <pt x="-7" y="922" on="0"/>
      </contour>
    </TTGlyph>
    <TTGlyph name="Idotaccent" xMin="65" yMin="0" xMax="323" yMax="922">
      <contour>
        <pt x="296" y="0" on="1"/>
        <pt x="92" y="0" on="1"/>
        <pt x="81" y="0" on="0"/>
        <pt x="65" y="16" on="0"/>
        <pt x="65" y="27" on="1"/>
        <pt x="65" y="673" on="1"/>
        <pt x="65" y="684" on="0"/>
        <pt x="81" y="700" on="0"/>
        <pt x="92" y="700" on="1"/>
        <pt x="296" y="700" on="1"/>
        <pt x="307" y="700" on="0"/>
        <pt x="323" y="684" on="0"/>
        <pt x="323" y="673" on="1"/>
        <pt x="323" y="27" on="1"/>
        <pt x="323" y="16" on="0"/>
        <pt x="307" y="0" on="0"/>
      </contour>
      <contour>
        <pt x="126" y="922" on="1"/>
        <pt x="262" y="922" on="1"/>
        <pt x="272" y="922" on="0"/>
        <pt x="285" y="909" on="0"/>
        <pt x="285" y="899" on="1"/>
        <pt x="285" y="763" on="1"/>
        <pt x="285" y="753" on="0"/>
        <pt x="272" y="740" on="0"/>
        <pt x="262" y="740" on="1"/>
        <pt x="126" y="740" on="1"/>
        <pt x="116" y="740" on="0"/>
        <pt x="103" y="753" on="0"/>
        <pt x="103" y="763" on="1"/>
        <pt x="103" y="899" on="1"/>
        <pt x="103" y="909" on="0"/>
        <pt x="116" y="922" on="0"/>
      </contour>
    </TTGlyph>
    <TTGlyph name="Igrave" xMin="-61" yMin="0" xMax="325" yMax="922">
      <contour>
        <pt x="298" y="0" on="1"/>
        <pt x="94" y="0" on="1"/>
        <pt x="83" y="0" on="0"/>
        <pt x="67" y="16" on="0"/>
        <pt x="67" y="27" on="1"/>
        <pt x="67" y="673" on="1"/>
        <pt x="67" y="684" on="0"/>
        <pt x="83" y="700" on="0"/>
        <pt x="94" y="700" on="1"/>
        <pt x="298" y="700" on="1"/>
        <pt x="309" y="700" on="0"/>
        <pt x="325" y="684" on="0"/>
        <pt x="325" y="673" on="1"/>
        <pt x="325" y="27" on="1"/>
        <pt x="325" y="16" on="0"/>
        <pt x="309" y="0" on="0"/>
      </contour>
      <contour>
        <pt x="299" y="766" on="1"/>
        <pt x="299" y="750" on="0"/>
        <pt x="283" y="750" on="1"/>
        <pt x="143" y="750" on="1"/>
        <pt x="113" y="750" on="0"/>
        <pt x="102" y="760" on="1"/>
        <pt x="-56" y="890" on="1"/>
        <pt x="-61" y="895" on="0"/>
        <pt x="-61" y="902" on="1"/>
        <pt x="-61" y="922" on="0"/>
        <pt x="-42" y="922" on="1"/>
        <pt x="155" y="922" on="1"/>
        <pt x="175" y="922" on="0"/>
        <pt x="192" y="903" on="1"/>
        <pt x="294" y="779" on="1"/>
        <pt x="299" y="774" on="0"/>
      </contour>
    </TTGlyph>
    <TTGlyph name="Imacron" xMin="-18" yMin="0" xMax="405" yMax="917">
      <contour>
        <pt x="296" y="0" on="1"/>
        <pt x="92" y="0" on="1"/>
        <pt x="81" y="0" on="0"/>
        <pt x="65" y="16" on="0"/>
        <pt x="65" y="27" on="1"/>
        <pt x="65" y="673" on="1"/>
        <pt x="65" y="684" on="0"/>
        <pt x="81" y="700" on="0"/>
        <pt x="92" y="700" on="1"/>
        <pt x="296" y="700" on="1"/>
        <pt x="307" y="700" on="0"/>
        <pt x="323" y="684" on="0"/>
        <pt x="323" y="673" on="1"/>
        <pt x="323" y="27" on="1"/>
        <pt x="323" y="16" on="0"/>
        <pt x="307" y="0" on="0"/>
      </contour>
      <contour>
        <pt x="5" y="917" on="1"/>
        <pt x="382" y="917" on="1"/>
        <pt x="392" y="917" on="0"/>
        <pt x="405" y="904" on="0"/>
        <pt x="405" y="894" on="1"/>
        <pt x="405" y="778" on="1"/>
        <pt x="405" y="768" on="0"/>
        <pt x="392" y="755" on="0"/>
        <pt x="382" y="755" on="1"/>
        <pt x="5" y="755" on="1"/>
        <pt x="-5" y="755" on="0"/>
        <pt x="-18" y="768" on="0"/>
        <pt x="-18" y="778" on="1"/>
        <pt x="-18" y="894" on="1"/>
        <pt x="-18" y="904" on="0"/>
        <pt x="-5" y="917" on="0"/>
      </contour>
    </TTGlyph>
    <TTGlyph name="Iogonek" xMin="65" yMin="-222" xMax="323" yMax="700">
      <contour>
        <pt x="286" y="-100" on="1"/>
        <pt x="296" y="-100" on="1"/>
        <pt x="307" y="-100" on="0"/>
        <pt x="323" y="-116" on="0"/>
        <pt x="323" y="-127" on="1"/>
        <pt x="323" y="-195" on="1"/>
        <pt x="323" y="-206" on="0"/>
        <pt x="307" y="-222" on="0"/>
        <pt x="296" y="-222" on="1"/>
        <pt x="282" y="-222" on="1"/>
        <pt x="196" y="-222" on="0"/>
        <pt x="110" y="-126" on="0"/>
        <pt x="110" y="-50" on="1"/>
        <pt x="110" y="-27" on="0"/>
        <pt x="115" y="0" on="1"/>
        <pt x="92" y="0" on="1"/>
        <pt x="81" y="0" on="0"/>
        <pt x="65" y="16" on="0"/>
        <pt x="65" y="27" on="1"/>
        <pt x="65" y="673" on="1"/>
        <pt x="65" y="684" on="0"/>
        <pt x="81" y="700" on="0"/>
        <pt x="92" y="700" on="1"/>
        <pt x="296" y="700" on="1"/>
        <pt x="307" y="700" on="0"/>
        <pt x="323" y="684" on="0"/>
        <pt x="323" y="673" on="1"/>
        <pt x="323" y="27" on="1"/>
        <pt x="323" y="16" on="0"/>
        <pt x="307" y="0" on="0"/>
        <pt x="296" y="0" on="1"/>
        <pt x="286" y="0" on="1"/>
        <pt x="260" y="0" on="0"/>
        <pt x="236" y="-31" on="0"/>
        <pt x="236" y="-69" on="0"/>
        <pt x="260" y="-100" on="0"/>
      </contour>
    </TTGlyph>
    <TTGlyph name="Itilde" xMin="-20" yMin="0" xMax="407" yMax="915">
      <contour>
        <pt x="296" y="0" on="1"/>
        <pt x="92" y="0" on="1"/>
        <pt x="81" y="0" on="0"/>
        <pt x="65" y="16" on="0"/>
        <pt x="65" y="27" on="1"/>
        <pt x="65" y="673" on="1"/>
        <pt x="65" y="684" on="0"/>
        <pt x="81" y="700" on="0"/>
        <pt x="92" y="700" on="1"/>
        <pt x="296" y="700" on="1"/>
        <pt x="307" y="700" on="0"/>
        <pt x="323" y="684" on="0"/>
        <pt x="323" y="673" on="1"/>
        <pt x="323" y="27" on="1"/>
        <pt x="323" y="16" on="0"/>
        <pt x="307" y="0" on="0"/>
      </contour>
      <contour>
        <pt x="366" y="779" on="0"/>
        <pt x="309" y="747" on="0"/>
        <pt x="238" y="747" on="0"/>
        <pt x="150" y="781" on="0"/>
        <pt x="111" y="781" on="0"/>
        <pt x="98" y="759" on="1"/>
        <pt x="93" y="750" on="0"/>
        <pt x="83" y="750" on="1"/>
        <pt x="-1" y="750" on="1"/>
        <pt x="-9" y="750" on="0"/>
        <pt x="-20" y="761" on="0"/>
        <pt x="-20" y="784" on="0"/>
        <pt x="-13" y="819" on="0"/>
        <pt x="6" y="860" on="0"/>
        <pt x="20" y="876" on="1"/>
        <pt x="54" y="915" on="0"/>
        <pt x="116" y="915" on="1"/>
        <pt x="149" y="915" on="0"/>
        <pt x="237" y="881" on="0"/>
        <pt x="274" y="881" on="0"/>
        <pt x="294" y="912" on="0"/>
        <pt x="304" y="912" on="1"/>
        <pt x="388" y="912" on="1"/>
        <pt x="407" y="912" on="0"/>
        <pt x="407" y="873" on="0"/>
        <pt x="394" y="828" on="0"/>
      </contour>
    </TTGlyph>
    <TTGlyph name="J" xMin="40" yMin="-10" xMax="683" yMax="700">
      <contour>
        <pt x="683" y="673" on="1"/>
        <pt x="683" y="263" on="1"/>
        <pt x="683" y="127" on="0"/>
        <pt x="502" y="-10" on="0"/>
        <pt x="226" y="-10" on="0"/>
        <pt x="40" y="122" on="0"/>
        <pt x="40" y="235" on="1"/>
        <pt x="40" y="244" on="0"/>
        <pt x="53" y="257" on="0"/>
        <pt x="62" y="257" on="1"/>
        <pt x="266" y="257" on="1"/>
        <pt x="282" y="257" on="0"/>
        <pt x="299" y="242" on="0"/>
        <pt x="317" y="203" on="0"/>
        <pt x="342" y="185" on="0"/>
        <pt x="365" y="185" on="1"/>
        <pt x="424" y="185" on="0"/>
        <pt x="424" y="266" on="1"/>
        <pt x="424" y="497" on="1"/>
        <pt x="127" y="497" on="1"/>
        <pt x="116" y="497" on="0"/>
        <pt x="100" y="513" on="0"/>
        <pt x="100" y="524" on="1"/>
        <pt x="100" y="673" on="1"/>
        <pt x="100" y="684" on="0"/>
        <pt x="116" y="700" on="0"/>
        <pt x="127" y="700" on="1"/>
        <pt x="656" y="700" on="1"/>
        <pt x="667" y="700" on="0"/>
        <pt x="683" y="684" on="0"/>
      </contour>
    </TTGlyph>
    <TTGlyph name="Jcircumflex" xMin="40" yMin="-10" xMax="683" yMax="922">
      <contour>
        <pt x="683" y="673" on="1"/>
        <pt x="683" y="263" on="1"/>
        <pt x="683" y="127" on="0"/>
        <pt x="502" y="-10" on="0"/>
        <pt x="226" y="-10" on="0"/>
        <pt x="40" y="122" on="0"/>
        <pt x="40" y="235" on="1"/>
        <pt x="40" y="244" on="0"/>
        <pt x="53" y="257" on="0"/>
        <pt x="62" y="257" on="1"/>
        <pt x="266" y="257" on="1"/>
        <pt x="282" y="257" on="0"/>
        <pt x="299" y="242" on="0"/>
        <pt x="317" y="203" on="0"/>
        <pt x="342" y="185" on="0"/>
        <pt x="365" y="185" on="1"/>
        <pt x="424" y="185" on="0"/>
        <pt x="424" y="266" on="1"/>
        <pt x="424" y="497" on="1"/>
        <pt x="127" y="497" on="1"/>
        <pt x="116" y="497" on="0"/>
        <pt x="100" y="513" on="0"/>
        <pt x="100" y="524" on="1"/>
        <pt x="100" y="673" on="1"/>
        <pt x="100" y="684" on="0"/>
        <pt x="116" y="700" on="0"/>
        <pt x="127" y="700" on="1"/>
        <pt x="656" y="700" on="1"/>
        <pt x="667" y="700" on="0"/>
        <pt x="683" y="684" on="0"/>
      </contour>
      <contour>
        <pt x="324" y="922" on="1"/>
        <pt x="454" y="922" on="1"/>
        <pt x="465" y="922" on="0"/>
        <pt x="475" y="916" on="0"/>
        <pt x="491" y="903" on="1"/>
        <pt x="608" y="779" on="1"/>
        <pt x="613" y="774" on="0"/>
        <pt x="613" y="766" on="1"/>
        <pt x="613" y="750" on="0"/>
        <pt x="597" y="750" on="1"/>
        <pt x="526" y="750" on="1"/>
        <pt x="507" y="750" on="0"/>
        <pt x="486" y="757" on="1"/>
        <pt x="389" y="799" on="1"/>
        <pt x="292" y="757" on="1"/>
        <pt x="271" y="750" on="0"/>
        <pt x="252" y="750" on="1"/>
        <pt x="181" y="750" on="1"/>
        <pt x="165" y="750" on="0"/>
        <pt x="165" y="766" on="1"/>
        <pt x="165" y="774" on="0"/>
        <pt x="170" y="779" on="1"/>
        <pt x="287" y="903" on="1"/>
        <pt x="303" y="916" on="0"/>
        <pt x="313" y="922" on="0"/>
      </contour>
    </TTGlyph>
    <TTGlyph name="K" xMin="65" yMin="0" xMax="723" yMax="700">
      <contour>
        <pt x="720" y="33" on="1"/>
        <pt x="723" y="28" on="0"/>
        <pt x="723" y="13" on="0"/>
        <pt x="710" y="0" on="0"/>
        <pt x="701" y="0" on="1"/>
        <pt x="473" y="0" on="1"/>
        <pt x="444" y="0" on="0"/>
        <pt x="432" y="23" on="1"/>
        <pt x="310" y="241" on="1"/>
        <pt x="310" y="27" on="1"/>
        <pt x="310" y="16" on="0"/>
        <pt x="294" y="0" on="0"/>
        <pt x="283" y="0" on="1"/>
        <pt x="92" y="0" on="1"/>
        <pt x="81" y="0" on="0"/>
        <pt x="65" y="16" on="0"/>
        <pt x="65" y="27" on="1"/>
        <pt x="65" y="673" on="1"/>
        <pt x="65" y="684" on="0"/>
        <pt x="81" y="700" on="0"/>
        <pt x="92" y="700" on="1"/>
        <pt x="283" y="700" on="1"/>
        <pt x="294" y="700" on="0"/>
        <pt x="310" y="684" on="0"/>
        <pt x="310" y="673" on="1"/>
        <pt x="310" y="475" on="1"/>
        <pt x="423" y="678" on="1"/>
        <pt x="434" y="700" on="0"/>
        <pt x="463" y="700" on="1"/>
        <pt x="684" y="700" on="1"/>
        <pt x="693" y="700" on="0"/>
        <pt x="706" y="687" on="0"/>
        <pt x="706" y="672" on="0"/>
        <pt x="703" y="667" on="1"/>
        <pt x="523" y="365" on="1"/>
      </contour>
    </TTGlyph>
    <TTGlyph name="Kcommaaccent" xMin="65" yMin="-250" xMax="723" yMax="700">
      <contour>
        <pt x="720" y="33" on="1"/>
        <pt x="723" y="28" on="0"/>
        <pt x="723" y="13" on="0"/>
        <pt x="710" y="0" on="0"/>
        <pt x="701" y="0" on="1"/>
        <pt x="473" y="0" on="1"/>
        <pt x="444" y="0" on="0"/>
        <pt x="432" y="23" on="1"/>
        <pt x="310" y="241" on="1"/>
        <pt x="310" y="27" on="1"/>
        <pt x="310" y="16" on="0"/>
        <pt x="294" y="0" on="0"/>
        <pt x="283" y="0" on="1"/>
        <pt x="92" y="0" on="1"/>
        <pt x="81" y="0" on="0"/>
        <pt x="65" y="16" on="0"/>
        <pt x="65" y="27" on="1"/>
        <pt x="65" y="673" on="1"/>
        <pt x="65" y="684" on="0"/>
        <pt x="81" y="700" on="0"/>
        <pt x="92" y="700" on="1"/>
        <pt x="283" y="700" on="1"/>
        <pt x="294" y="700" on="0"/>
        <pt x="310" y="684" on="0"/>
        <pt x="310" y="673" on="1"/>
        <pt x="310" y="475" on="1"/>
        <pt x="423" y="678" on="1"/>
        <pt x="434" y="700" on="0"/>
        <pt x="463" y="700" on="1"/>
        <pt x="684" y="700" on="1"/>
        <pt x="693" y="700" on="0"/>
        <pt x="706" y="687" on="0"/>
        <pt x="706" y="672" on="0"/>
        <pt x="703" y="667" on="1"/>
        <pt x="523" y="365" on="1"/>
      </contour>
      <contour>
        <pt x="336" y="-250" on="1"/>
        <pt x="219" y="-250" on="1"/>
        <pt x="200" y="-250" on="0"/>
        <pt x="200" y="-231" on="1"/>
        <pt x="200" y="-226" on="0"/>
        <pt x="205" y="-216" on="1"/>
        <pt x="280" y="-70" on="1"/>
        <pt x="289" y="-50" on="0"/>
        <pt x="322" y="-50" on="1"/>
        <pt x="462" y="-50" on="1"/>
        <pt x="478" y="-50" on="0"/>
        <pt x="478" y="-66" on="1"/>
        <pt x="478" y="-74" on="0"/>
        <pt x="473" y="-81" on="1"/>
        <pt x="373" y="-231" on="1"/>
        <pt x="361" y="-250" on="0"/>
      </contour>
    </TTGlyph>
    <TTGlyph name="L" xMin="65" yMin="0" xMax="623" yMax="700">
      <contour>
        <pt x="319" y="205" on="1"/>
        <pt x="596" y="205" on="1"/>
        <pt x="607" y="205" on="0"/>
        <pt x="623" y="189" on="0"/>
        <pt x="623" y="178" on="1"/>
        <pt x="623" y="27" on="1"/>
        <pt x="623" y="16" on="0"/>
        <pt x="607" y="0" on="0"/>
        <pt x="596" y="0" on="1"/>
        <pt x="92" y="0" on="1"/>
        <pt x="81" y="0" on="0"/>
        <pt x="65" y="16" on="0"/>
        <pt x="65" y="27" on="1"/>
        <pt x="65" y="673" on="1"/>
        <pt x="65" y="684" on="0"/>
        <pt x="81" y="700" on="0"/>
        <pt x="92" y="700" on="1"/>
        <pt x="292" y="700" on="1"/>
        <pt x="303" y="700" on="0"/>
        <pt x="319" y="684" on="0"/>
        <pt x="319" y="673" on="1"/>
      </contour>
    </TTGlyph>
    <TTGlyph name="Lacute" xMin="65" yMin="0" xMax="623" yMax="922">
      <contour>
        <pt x="319" y="205" on="1"/>
        <pt x="596" y="205" on="1"/>
        <pt x="607" y="205" on="0"/>
        <pt x="623" y="189" on="0"/>
        <pt x="623" y="178" on="1"/>
        <pt x="623" y="27" on="1"/>
        <pt x="623" y="16" on="0"/>
        <pt x="607" y="0" on="0"/>
        <pt x="596" y="0" on="1"/>
        <pt x="92" y="0" on="1"/>
        <pt x="81" y="0" on="0"/>
        <pt x="65" y="16" on="0"/>
        <pt x="65" y="27" on="1"/>
        <pt x="65" y="673" on="1"/>
        <pt x="65" y="684" on="0"/>
        <pt x="81" y="700" on="0"/>
        <pt x="92" y="700" on="1"/>
        <pt x="292" y="700" on="1"/>
        <pt x="303" y="700" on="0"/>
        <pt x="319" y="684" on="0"/>
        <pt x="319" y="673" on="1"/>
      </contour>
      <contour>
        <pt x="233" y="922" on="1"/>
        <pt x="430" y="922" on="1"/>
        <pt x="449" y="922" on="0"/>
        <pt x="449" y="902" on="1"/>
        <pt x="449" y="895" on="0"/>
        <pt x="444" y="890" on="1"/>
        <pt x="286" y="760" on="1"/>
        <pt x="275" y="750" on="0"/>
        <pt x="245" y="750" on="1"/>
        <pt x="105" y="750" on="1"/>
        <pt x="89" y="750" on="0"/>
        <pt x="89" y="766" on="1"/>
        <pt x="89" y="774" on="0"/>
        <pt x="94" y="779" on="1"/>
        <pt x="196" y="903" on="1"/>
        <pt x="213" y="922" on="0"/>
      </contour>
    </TTGlyph>
    <TTGlyph name="Lcaron" xMin="65" yMin="0" xMax="640" yMax="711">
      <contour>
        <pt x="319" y="205" on="1"/>
        <pt x="596" y="205" on="1"/>
        <pt x="607" y="205" on="0"/>
        <pt x="623" y="189" on="0"/>
        <pt x="623" y="178" on="1"/>
        <pt x="623" y="27" on="1"/>
        <pt x="623" y="16" on="0"/>
        <pt x="607" y="0" on="0"/>
        <pt x="596" y="0" on="1"/>
        <pt x="92" y="0" on="1"/>
        <pt x="81" y="0" on="0"/>
        <pt x="65" y="16" on="0"/>
        <pt x="65" y="27" on="1"/>
        <pt x="65" y="673" on="1"/>
        <pt x="65" y="684" on="0"/>
        <pt x="81" y="700" on="0"/>
        <pt x="92" y="700" on="1"/>
        <pt x="292" y="700" on="1"/>
        <pt x="303" y="700" on="0"/>
        <pt x="319" y="684" on="0"/>
        <pt x="319" y="673" on="1"/>
      </contour>
      <contour>
        <pt x="453" y="711" on="1"/>
        <pt x="618" y="711" on="1"/>
        <pt x="627" y="711" on="0"/>
        <pt x="640" y="698" on="0"/>
        <pt x="640" y="685" on="0"/>
        <pt x="639" y="682" on="1"/>
        <pt x="544" y="441" on="1"/>
        <pt x="532" y="409" on="0"/>
        <pt x="498" y="409" on="1"/>
        <pt x="390" y="409" on="1"/>
        <pt x="381" y="409" on="0"/>
        <pt x="368" y="422" on="0"/>
        <pt x="368" y="431" on="1"/>
        <pt x="368" y="433" on="1"/>
        <pt x="405" y="672" on="1"/>
        <pt x="407" y="687" on="0"/>
        <pt x="434" y="711" on="0"/>
      </contour>
    </TTGlyph>
    <TTGlyph name="Lcommaaccent" xMin="65" yMin="-250" xMax="623" yMax="700">
      <contour>
        <pt x="319" y="205" on="1"/>
        <pt x="596" y="205" on="1"/>
        <pt x="607" y="205" on="0"/>
        <pt x="623" y="189" on="0"/>
        <pt x="623" y="178" on="1"/>
        <pt x="623" y="27" on="1"/>
        <pt x="623" y="16" on="0"/>
        <pt x="607" y="0" on="0"/>
        <pt x="596" y="0" on="1"/>
        <pt x="92" y="0" on="1"/>
        <pt x="81" y="0" on="0"/>
        <pt x="65" y="16" on="0"/>
        <pt x="65" y="27" on="1"/>
        <pt x="65" y="673" on="1"/>
        <pt x="65" y="684" on="0"/>
        <pt x="81" y="700" on="0"/>
        <pt x="92" y="700" on="1"/>
        <pt x="292" y="700" on="1"/>
        <pt x="303" y="700" on="0"/>
        <pt x="319" y="684" on="0"/>
        <pt x="319" y="673" on="1"/>
      </contour>
      <contour>
        <pt x="286" y="-250" on="1"/>
        <pt x="169" y="-250" on="1"/>
        <pt x="150" y="-250" on="0"/>
        <pt x="150" y="-231" on="1"/>
        <pt x="150" y="-226" on="0"/>
        <pt x="155" y="-216" on="1"/>
        <pt x="230" y="-70" on="1"/>
        <pt x="239" y="-50" on="0"/>
        <pt x="272" y="-50" on="1"/>
        <pt x="412" y="-50" on="1"/>
        <pt x="428" y="-50" on="0"/>
        <pt x="428" y="-66" on="1"/>
        <pt x="428" y="-74" on="0"/>
        <pt x="423" y="-81" on="1"/>
        <pt x="323" y="-231" on="1"/>
        <pt x="311" y="-250" on="0"/>
      </contour>
    </TTGlyph>
    <TTGlyph name="Ldot" xMin="65" yMin="0" xMax="623" yMax="700">
      <contour>
        <pt x="398" y="496" on="1"/>
        <pt x="534" y="496" on="1"/>
        <pt x="544" y="496" on="0"/>
        <pt x="557" y="483" on="0"/>
        <pt x="557" y="473" on="1"/>
        <pt x="557" y="337" on="1"/>
        <pt x="557" y="327" on="0"/>
        <pt x="544" y="314" on="0"/>
        <pt x="534" y="314" on="1"/>
        <pt x="398" y="314" on="1"/>
        <pt x="388" y="314" on="0"/>
        <pt x="375" y="327" on="0"/>
        <pt x="375" y="337" on="1"/>
        <pt x="375" y="473" on="1"/>
        <pt x="375" y="483" on="0"/>
        <pt x="388" y="496" on="0"/>
      </contour>
      <contour>
        <pt x="319" y="205" on="1"/>
        <pt x="596" y="205" on="1"/>
        <pt x="607" y="205" on="0"/>
        <pt x="623" y="189" on="0"/>
        <pt x="623" y="178" on="1"/>
        <pt x="623" y="27" on="1"/>
        <pt x="623" y="16" on="0"/>
        <pt x="607" y="0" on="0"/>
        <pt x="596" y="0" on="1"/>
        <pt x="92" y="0" on="1"/>
        <pt x="81" y="0" on="0"/>
        <pt x="65" y="16" on="0"/>
        <pt x="65" y="27" on="1"/>
        <pt x="65" y="673" on="1"/>
        <pt x="65" y="684" on="0"/>
        <pt x="81" y="700" on="0"/>
        <pt x="92" y="700" on="1"/>
        <pt x="292" y="700" on="1"/>
        <pt x="303" y="700" on="0"/>
        <pt x="319" y="684" on="0"/>
        <pt x="319" y="673" on="1"/>
      </contour>
    </TTGlyph>
    <TTGlyph name="Lslash" xMin="15" yMin="0" xMax="623" yMax="700">
      <contour>
        <pt x="65" y="673" on="1"/>
        <pt x="65" y="684" on="0"/>
        <pt x="81" y="700" on="0"/>
        <pt x="92" y="700" on="1"/>
        <pt x="292" y="700" on="1"/>
        <pt x="303" y="700" on="0"/>
        <pt x="319" y="684" on="0"/>
        <pt x="319" y="673" on="1"/>
        <pt x="319" y="488" on="1"/>
        <pt x="464" y="545" on="1"/>
        <pt x="472" y="548" on="0"/>
        <pt x="484" y="548" on="0"/>
        <pt x="496" y="536" on="0"/>
        <pt x="496" y="527" on="1"/>
        <pt x="496" y="419" on="1"/>
        <pt x="496" y="394" on="0"/>
        <pt x="474" y="386" on="1"/>
        <pt x="319" y="325" on="1"/>
        <pt x="319" y="205" on="1"/>
        <pt x="596" y="205" on="1"/>
        <pt x="607" y="205" on="0"/>
        <pt x="623" y="189" on="0"/>
        <pt x="623" y="178" on="1"/>
        <pt x="623" y="27" on="1"/>
        <pt x="623" y="16" on="0"/>
        <pt x="607" y="0" on="0"/>
        <pt x="596" y="0" on="1"/>
        <pt x="92" y="0" on="1"/>
        <pt x="81" y="0" on="0"/>
        <pt x="65" y="16" on="0"/>
        <pt x="65" y="27" on="1"/>
        <pt x="65" y="225" on="1"/>
        <pt x="47" y="218" on="1"/>
        <pt x="40" y="215" on="0"/>
        <pt x="27" y="215" on="0"/>
        <pt x="15" y="227" on="0"/>
        <pt x="15" y="236" on="1"/>
        <pt x="15" y="344" on="1"/>
        <pt x="15" y="369" on="0"/>
        <pt x="37" y="377" on="1"/>
        <pt x="65" y="388" on="1"/>
      </contour>
    </TTGlyph>
    <TTGlyph name="M" xMin="65" yMin="0" xMax="811" yMax="700">
      <contour>
        <pt x="626" y="700" on="1"/>
        <pt x="784" y="700" on="1"/>
        <pt x="795" y="700" on="0"/>
        <pt x="811" y="684" on="0"/>
        <pt x="811" y="673" on="1"/>
        <pt x="811" y="27" on="1"/>
        <pt x="811" y="16" on="0"/>
        <pt x="795" y="0" on="0"/>
        <pt x="784" y="0" on="1"/>
        <pt x="603" y="0" on="1"/>
        <pt x="592" y="0" on="0"/>
        <pt x="576" y="16" on="0"/>
        <pt x="576" y="27" on="1"/>
        <pt x="576" y="301" on="1"/>
        <pt x="510" y="193" on="1"/>
        <pt x="494" y="168" on="0"/>
        <pt x="473" y="168" on="1"/>
        <pt x="403" y="168" on="1"/>
        <pt x="382" y="168" on="0"/>
        <pt x="366" y="193" on="1"/>
        <pt x="300" y="301" on="1"/>
        <pt x="300" y="27" on="1"/>
        <pt x="300" y="16" on="0"/>
        <pt x="284" y="0" on="0"/>
        <pt x="273" y="0" on="1"/>
        <pt x="92" y="0" on="1"/>
        <pt x="81" y="0" on="0"/>
        <pt x="65" y="16" on="0"/>
        <pt x="65" y="27" on="1"/>
        <pt x="65" y="673" on="1"/>
        <pt x="65" y="684" on="0"/>
        <pt x="81" y="700" on="0"/>
        <pt x="92" y="700" on="1"/>
        <pt x="250" y="700" on="1"/>
        <pt x="278" y="700" on="0"/>
        <pt x="293" y="673" on="1"/>
        <pt x="438" y="433" on="1"/>
        <pt x="583" y="673" on="1"/>
        <pt x="598" y="700" on="0"/>
      </contour>
    </TTGlyph>
    <TTGlyph name="Macron" xMin="50" yMin="755" xMax="473" yMax="917">
      <contour>
        <pt x="73" y="917" on="1"/>
        <pt x="450" y="917" on="1"/>
        <pt x="460" y="917" on="0"/>
        <pt x="473" y="904" on="0"/>
        <pt x="473" y="894" on="1"/>
        <pt x="473" y="778" on="1"/>
        <pt x="473" y="768" on="0"/>
        <pt x="460" y="755" on="0"/>
        <pt x="450" y="755" on="1"/>
        <pt x="73" y="755" on="1"/>
        <pt x="63" y="755" on="0"/>
        <pt x="50" y="768" on="0"/>
        <pt x="50" y="778" on="1"/>
        <pt x="50" y="894" on="1"/>
        <pt x="50" y="904" on="0"/>
        <pt x="63" y="917" on="0"/>
      </contour>
    </TTGlyph>
    <TTGlyph name="N" xMin="65" yMin="0" xMax="695" yMax="700">
      <contour>
        <pt x="487" y="700" on="1"/>
        <pt x="668" y="700" on="1"/>
        <pt x="679" y="700" on="0"/>
        <pt x="695" y="684" on="0"/>
        <pt x="695" y="673" on="1"/>
        <pt x="695" y="27" on="1"/>
        <pt x="695" y="16" on="0"/>
        <pt x="679" y="0" on="0"/>
        <pt x="668" y="0" on="1"/>
        <pt x="510" y="0" on="1"/>
        <pt x="484" y="0" on="0"/>
        <pt x="469" y="23" on="1"/>
        <pt x="300" y="278" on="1"/>
        <pt x="300" y="27" on="1"/>
        <pt x="300" y="16" on="0"/>
        <pt x="284" y="0" on="0"/>
        <pt x="273" y="0" on="1"/>
        <pt x="92" y="0" on="1"/>
        <pt x="81" y="0" on="0"/>
        <pt x="65" y="16" on="0"/>
        <pt x="65" y="27" on="1"/>
        <pt x="65" y="673" on="1"/>
        <pt x="65" y="684" on="0"/>
        <pt x="81" y="700" on="0"/>
        <pt x="92" y="700" on="1"/>
        <pt x="250" y="700" on="1"/>
        <pt x="278" y="700" on="0"/>
        <pt x="291" y="677" on="1"/>
        <pt x="460" y="400" on="1"/>
        <pt x="460" y="673" on="1"/>
        <pt x="460" y="684" on="0"/>
        <pt x="476" y="700" on="0"/>
      </contour>
    </TTGlyph>
    <TTGlyph name="Nacute" xMin="65" yMin="0" xMax="695" yMax="922">
      <contour>
        <pt x="487" y="700" on="1"/>
        <pt x="668" y="700" on="1"/>
        <pt x="679" y="700" on="0"/>
        <pt x="695" y="684" on="0"/>
        <pt x="695" y="673" on="1"/>
        <pt x="695" y="27" on="1"/>
        <pt x="695" y="16" on="0"/>
        <pt x="679" y="0" on="0"/>
        <pt x="668" y="0" on="1"/>
        <pt x="510" y="0" on="1"/>
        <pt x="484" y="0" on="0"/>
        <pt x="469" y="23" on="1"/>
        <pt x="300" y="278" on="1"/>
        <pt x="300" y="27" on="1"/>
        <pt x="300" y="16" on="0"/>
        <pt x="284" y="0" on="0"/>
        <pt x="273" y="0" on="1"/>
        <pt x="92" y="0" on="1"/>
        <pt x="81" y="0" on="0"/>
        <pt x="65" y="16" on="0"/>
        <pt x="65" y="27" on="1"/>
        <pt x="65" y="673" on="1"/>
        <pt x="65" y="684" on="0"/>
        <pt x="81" y="700" on="0"/>
        <pt x="92" y="700" on="1"/>
        <pt x="250" y="700" on="1"/>
        <pt x="278" y="700" on="0"/>
        <pt x="291" y="677" on="1"/>
        <pt x="460" y="400" on="1"/>
        <pt x="460" y="673" on="1"/>
        <pt x="460" y="684" on="0"/>
        <pt x="476" y="700" on="0"/>
      </contour>
      <contour>
        <pt x="394" y="922" on="1"/>
        <pt x="591" y="922" on="1"/>
        <pt x="610" y="922" on="0"/>
        <pt x="610" y="902" on="1"/>
        <pt x="610" y="895" on="0"/>
        <pt x="605" y="890" on="1"/>
        <pt x="447" y="760" on="1"/>
        <pt x="436" y="750" on="0"/>
        <pt x="406" y="750" on="1"/>
        <pt x="266" y="750" on="1"/>
        <pt x="250" y="750" on="0"/>
        <pt x="250" y="766" on="1"/>
        <pt x="250" y="774" on="0"/>
        <pt x="255" y="779" on="1"/>
        <pt x="357" y="903" on="1"/>
        <pt x="374" y="922" on="0"/>
      </contour>
    </TTGlyph>
    <TTGlyph name="Ncaron" xMin="65" yMin="0" xMax="695" yMax="922">
      <contour>
        <pt x="487" y="700" on="1"/>
        <pt x="668" y="700" on="1"/>
        <pt x="679" y="700" on="0"/>
        <pt x="695" y="684" on="0"/>
        <pt x="695" y="673" on="1"/>
        <pt x="695" y="27" on="1"/>
        <pt x="695" y="16" on="0"/>
        <pt x="679" y="0" on="0"/>
        <pt x="668" y="0" on="1"/>
        <pt x="510" y="0" on="1"/>
        <pt x="484" y="0" on="0"/>
        <pt x="469" y="23" on="1"/>
        <pt x="300" y="278" on="1"/>
        <pt x="300" y="27" on="1"/>
        <pt x="300" y="16" on="0"/>
        <pt x="284" y="0" on="0"/>
        <pt x="273" y="0" on="1"/>
        <pt x="92" y="0" on="1"/>
        <pt x="81" y="0" on="0"/>
        <pt x="65" y="16" on="0"/>
        <pt x="65" y="27" on="1"/>
        <pt x="65" y="673" on="1"/>
        <pt x="65" y="684" on="0"/>
        <pt x="81" y="700" on="0"/>
        <pt x="92" y="700" on="1"/>
        <pt x="250" y="700" on="1"/>
        <pt x="278" y="700" on="0"/>
        <pt x="291" y="677" on="1"/>
        <pt x="460" y="400" on="1"/>
        <pt x="460" y="673" on="1"/>
        <pt x="460" y="684" on="0"/>
        <pt x="476" y="700" on="0"/>
      </contour>
      <contour>
        <pt x="445" y="750" on="1"/>
        <pt x="315" y="750" on="1"/>
        <pt x="304" y="750" on="0"/>
        <pt x="294" y="756" on="0"/>
        <pt x="278" y="769" on="1"/>
        <pt x="161" y="893" on="1"/>
        <pt x="156" y="898" on="0"/>
        <pt x="156" y="906" on="1"/>
        <pt x="156" y="922" on="0"/>
        <pt x="172" y="922" on="1"/>
        <pt x="243" y="922" on="1"/>
        <pt x="262" y="922" on="0"/>
        <pt x="283" y="915" on="1"/>
        <pt x="380" y="873" on="1"/>
        <pt x="477" y="915" on="1"/>
        <pt x="498" y="922" on="0"/>
        <pt x="517" y="922" on="1"/>
        <pt x="588" y="922" on="1"/>
        <pt x="604" y="922" on="0"/>
        <pt x="604" y="906" on="1"/>
        <pt x="604" y="898" on="0"/>
        <pt x="599" y="893" on="1"/>
        <pt x="482" y="769" on="1"/>
        <pt x="466" y="756" on="0"/>
        <pt x="456" y="750" on="0"/>
      </contour>
    </TTGlyph>
    <TTGlyph name="Ncommaaccent" xMin="65" yMin="-250" xMax="695" yMax="700">
      <contour>
        <pt x="487" y="700" on="1"/>
        <pt x="668" y="700" on="1"/>
        <pt x="679" y="700" on="0"/>
        <pt x="695" y="684" on="0"/>
        <pt x="695" y="673" on="1"/>
        <pt x="695" y="27" on="1"/>
        <pt x="695" y="16" on="0"/>
        <pt x="679" y="0" on="0"/>
        <pt x="668" y="0" on="1"/>
        <pt x="510" y="0" on="1"/>
        <pt x="484" y="0" on="0"/>
        <pt x="469" y="23" on="1"/>
        <pt x="300" y="278" on="1"/>
        <pt x="300" y="27" on="1"/>
        <pt x="300" y="16" on="0"/>
        <pt x="284" y="0" on="0"/>
        <pt x="273" y="0" on="1"/>
        <pt x="92" y="0" on="1"/>
        <pt x="81" y="0" on="0"/>
        <pt x="65" y="16" on="0"/>
        <pt x="65" y="27" on="1"/>
        <pt x="65" y="673" on="1"/>
        <pt x="65" y="684" on="0"/>
        <pt x="81" y="700" on="0"/>
        <pt x="92" y="700" on="1"/>
        <pt x="250" y="700" on="1"/>
        <pt x="278" y="700" on="0"/>
        <pt x="291" y="677" on="1"/>
        <pt x="460" y="400" on="1"/>
        <pt x="460" y="673" on="1"/>
        <pt x="460" y="684" on="0"/>
        <pt x="476" y="700" on="0"/>
      </contour>
      <contour>
        <pt x="346" y="-250" on="1"/>
        <pt x="229" y="-250" on="1"/>
        <pt x="210" y="-250" on="0"/>
        <pt x="210" y="-231" on="1"/>
        <pt x="210" y="-226" on="0"/>
        <pt x="215" y="-216" on="1"/>
        <pt x="290" y="-70" on="1"/>
        <pt x="299" y="-50" on="0"/>
        <pt x="332" y="-50" on="1"/>
        <pt x="472" y="-50" on="1"/>
        <pt x="488" y="-50" on="0"/>
        <pt x="488" y="-66" on="1"/>
        <pt x="488" y="-74" on="0"/>
        <pt x="483" y="-81" on="1"/>
        <pt x="383" y="-231" on="1"/>
        <pt x="371" y="-250" on="0"/>
      </contour>
    </TTGlyph>
    <TTGlyph name="Ntilde" xMin="65" yMin="0" xMax="695" yMax="915">
      <contour>
        <pt x="487" y="700" on="1"/>
        <pt x="668" y="700" on="1"/>
        <pt x="679" y="700" on="0"/>
        <pt x="695" y="684" on="0"/>
        <pt x="695" y="673" on="1"/>
        <pt x="695" y="27" on="1"/>
        <pt x="695" y="16" on="0"/>
        <pt x="679" y="0" on="0"/>
        <pt x="668" y="0" on="1"/>
        <pt x="510" y="0" on="1"/>
        <pt x="484" y="0" on="0"/>
        <pt x="469" y="23" on="1"/>
        <pt x="300" y="278" on="1"/>
        <pt x="300" y="27" on="1"/>
        <pt x="300" y="16" on="0"/>
        <pt x="284" y="0" on="0"/>
        <pt x="273" y="0" on="1"/>
        <pt x="92" y="0" on="1"/>
        <pt x="81" y="0" on="0"/>
        <pt x="65" y="16" on="0"/>
        <pt x="65" y="27" on="1"/>
        <pt x="65" y="673" on="1"/>
        <pt x="65" y="684" on="0"/>
        <pt x="81" y="700" on="0"/>
        <pt x="92" y="700" on="1"/>
        <pt x="250" y="700" on="1"/>
        <pt x="278" y="700" on="0"/>
        <pt x="291" y="677" on="1"/>
        <pt x="460" y="400" on="1"/>
        <pt x="460" y="673" on="1"/>
        <pt x="460" y="684" on="0"/>
        <pt x="476" y="700" on="0"/>
      </contour>
      <contour>
        <pt x="553" y="779" on="0"/>
        <pt x="496" y="747" on="0"/>
        <pt x="425" y="747" on="0"/>
        <pt x="337" y="781" on="0"/>
        <pt x="298" y="781" on="0"/>
        <pt x="285" y="759" on="1"/>
        <pt x="280" y="750" on="0"/>
        <pt x="270" y="750" on="1"/>
        <pt x="186" y="750" on="1"/>
        <pt x="178" y="750" on="0"/>
        <pt x="167" y="761" on="0"/>
        <pt x="167" y="784" on="0"/>
        <pt x="174" y="819" on="0"/>
        <pt x="193" y="860" on="0"/>
        <pt x="208" y="876" on="1"/>
        <pt x="241" y="915" on="0"/>
        <pt x="303" y="915" on="1"/>
        <pt x="336" y="915" on="0"/>
        <pt x="424" y="881" on="0"/>
        <pt x="461" y="881" on="0"/>
        <pt x="481" y="912" on="0"/>
        <pt x="491" y="912" on="1"/>
        <pt x="575" y="912" on="1"/>
        <pt x="594" y="912" on="0"/>
        <pt x="594" y="873" on="0"/>
        <pt x="581" y="828" on="0"/>
      </contour>
    </TTGlyph>
    <TTGlyph name="O" xMin="45" yMin="-10" xMax="713" yMax="710">
      <contour>
        <pt x="228" y="710" on="0"/>
        <pt x="530" y="710" on="0"/>
        <pt x="713" y="561" on="0"/>
        <pt x="713" y="426" on="1"/>
        <pt x="713" y="270" on="1"/>
        <pt x="713" y="133" on="0"/>
        <pt x="532" y="-10" on="0"/>
        <pt x="226" y="-10" on="0"/>
        <pt x="45" y="133" on="0"/>
        <pt x="45" y="270" on="1"/>
        <pt x="45" y="426" on="1"/>
        <pt x="45" y="562" on="0"/>
      </contour>
      <contour>
        <pt x="345" y="185" on="0"/>
        <pt x="413" y="185" on="0"/>
        <pt x="453" y="225" on="0"/>
        <pt x="453" y="266" on="1"/>
        <pt x="453" y="434" on="1"/>
        <pt x="453" y="474" on="0"/>
        <pt x="413" y="515" on="0"/>
        <pt x="345" y="515" on="0"/>
        <pt x="305" y="474" on="0"/>
        <pt x="305" y="434" on="1"/>
        <pt x="305" y="266" on="1"/>
        <pt x="305" y="225" on="0"/>
      </contour>
    </TTGlyph>
    <TTGlyph name="OE" xMin="45" yMin="0" xMax="973" yMax="700">
      <contour>
        <pt x="45" y="280" on="1"/>
        <pt x="45" y="416" on="1"/>
        <pt x="45" y="551" on="0"/>
        <pt x="228" y="699" on="0"/>
        <pt x="378" y="700" on="1"/>
        <pt x="938" y="700" on="1"/>
        <pt x="949" y="700" on="0"/>
        <pt x="965" y="684" on="0"/>
        <pt x="965" y="673" on="1"/>
        <pt x="965" y="532" on="1"/>
        <pt x="965" y="521" on="0"/>
        <pt x="949" y="505" on="0"/>
        <pt x="938" y="505" on="1"/>
        <pt x="658" y="505" on="1"/>
        <pt x="658" y="442" on="1"/>
        <pt x="916" y="442" on="1"/>
        <pt x="927" y="442" on="0"/>
        <pt x="943" y="426" on="0"/>
        <pt x="943" y="415" on="1"/>
        <pt x="943" y="285" on="1"/>
        <pt x="943" y="274" on="0"/>
        <pt x="927" y="258" on="0"/>
        <pt x="916" y="258" on="1"/>
        <pt x="658" y="258" on="1"/>
        <pt x="658" y="195" on="1"/>
        <pt x="946" y="195" on="1"/>
        <pt x="957" y="195" on="0"/>
        <pt x="973" y="179" on="0"/>
        <pt x="973" y="168" on="1"/>
        <pt x="973" y="27" on="1"/>
        <pt x="973" y="16" on="0"/>
        <pt x="957" y="0" on="0"/>
        <pt x="946" y="0" on="1"/>
        <pt x="378" y="0" on="1"/>
        <pt x="226" y="1" on="0"/>
        <pt x="45" y="143" on="0"/>
      </contour>
      <contour>
        <pt x="305" y="276" on="1"/>
        <pt x="305" y="195" on="0"/>
        <pt x="378" y="195" on="1"/>
        <pt x="418" y="195" on="1"/>
        <pt x="418" y="505" on="1"/>
        <pt x="378" y="505" on="1"/>
        <pt x="305" y="503" on="0"/>
        <pt x="305" y="424" on="1"/>
      </contour>
    </TTGlyph>
    <TTGlyph name="Oacute" xMin="45" yMin="-10" xMax="713" yMax="922">
      <contour>
        <pt x="228" y="710" on="0"/>
        <pt x="530" y="710" on="0"/>
        <pt x="713" y="561" on="0"/>
        <pt x="713" y="426" on="1"/>
        <pt x="713" y="270" on="1"/>
        <pt x="713" y="133" on="0"/>
        <pt x="532" y="-10" on="0"/>
        <pt x="226" y="-10" on="0"/>
        <pt x="45" y="133" on="0"/>
        <pt x="45" y="270" on="1"/>
        <pt x="45" y="426" on="1"/>
        <pt x="45" y="562" on="0"/>
      </contour>
      <contour>
        <pt x="345" y="185" on="0"/>
        <pt x="413" y="185" on="0"/>
        <pt x="453" y="225" on="0"/>
        <pt x="453" y="266" on="1"/>
        <pt x="453" y="434" on="1"/>
        <pt x="453" y="474" on="0"/>
        <pt x="413" y="515" on="0"/>
        <pt x="345" y="515" on="0"/>
        <pt x="305" y="474" on="0"/>
        <pt x="305" y="434" on="1"/>
        <pt x="305" y="266" on="1"/>
        <pt x="305" y="225" on="0"/>
      </contour>
      <contour>
        <pt x="429" y="922" on="1"/>
        <pt x="626" y="922" on="1"/>
        <pt x="645" y="922" on="0"/>
        <pt x="645" y="902" on="1"/>
        <pt x="645" y="895" on="0"/>
        <pt x="640" y="890" on="1"/>
        <pt x="482" y="760" on="1"/>
        <pt x="471" y="750" on="0"/>
        <pt x="441" y="750" on="1"/>
        <pt x="301" y="750" on="1"/>
        <pt x="285" y="750" on="0"/>
        <pt x="285" y="766" on="1"/>
        <pt x="285" y="774" on="0"/>
        <pt x="290" y="779" on="1"/>
        <pt x="392" y="903" on="1"/>
        <pt x="409" y="922" on="0"/>
      </contour>
    </TTGlyph>
    <TTGlyph name="Obreve" xMin="45" yMin="-10" xMax="713" yMax="925">
      <contour>
        <pt x="228" y="710" on="0"/>
        <pt x="530" y="710" on="0"/>
        <pt x="713" y="561" on="0"/>
        <pt x="713" y="426" on="1"/>
        <pt x="713" y="270" on="1"/>
        <pt x="713" y="133" on="0"/>
        <pt x="532" y="-10" on="0"/>
        <pt x="226" y="-10" on="0"/>
        <pt x="45" y="133" on="0"/>
        <pt x="45" y="270" on="1"/>
        <pt x="45" y="426" on="1"/>
        <pt x="45" y="562" on="0"/>
      </contour>
      <contour>
        <pt x="345" y="185" on="0"/>
        <pt x="413" y="185" on="0"/>
        <pt x="453" y="225" on="0"/>
        <pt x="453" y="266" on="1"/>
        <pt x="453" y="434" on="1"/>
        <pt x="453" y="474" on="0"/>
        <pt x="413" y="515" on="0"/>
        <pt x="345" y="515" on="0"/>
        <pt x="305" y="474" on="0"/>
        <pt x="305" y="434" on="1"/>
        <pt x="305" y="266" on="1"/>
        <pt x="305" y="225" on="0"/>
      </contour>
      <contour>
        <pt x="423" y="906" on="1"/>
        <pt x="423" y="925" on="0"/>
        <pt x="442" y="925" on="1"/>
        <pt x="541" y="925" on="1"/>
        <pt x="560" y="925" on="0"/>
        <pt x="560" y="906" on="1"/>
        <pt x="560" y="835" on="0"/>
        <pt x="470" y="750" on="0"/>
        <pt x="295" y="750" on="0"/>
        <pt x="205" y="836" on="0"/>
        <pt x="205" y="906" on="1"/>
        <pt x="205" y="925" on="0"/>
        <pt x="224" y="925" on="1"/>
        <pt x="323" y="925" on="1"/>
        <pt x="342" y="925" on="0"/>
        <pt x="342" y="906" on="1"/>
        <pt x="342" y="851" on="0"/>
        <pt x="423" y="851" on="0"/>
      </contour>
    </TTGlyph>
    <TTGlyph name="Ocircumflex" xMin="45" yMin="-10" xMax="713" yMax="922">
      <contour>
        <pt x="228" y="710" on="0"/>
        <pt x="530" y="710" on="0"/>
        <pt x="713" y="561" on="0"/>
        <pt x="713" y="426" on="1"/>
        <pt x="713" y="270" on="1"/>
        <pt x="713" y="133" on="0"/>
        <pt x="532" y="-10" on="0"/>
        <pt x="226" y="-10" on="0"/>
        <pt x="45" y="133" on="0"/>
        <pt x="45" y="270" on="1"/>
        <pt x="45" y="426" on="1"/>
        <pt x="45" y="562" on="0"/>
      </contour>
      <contour>
        <pt x="345" y="185" on="0"/>
        <pt x="413" y="185" on="0"/>
        <pt x="453" y="225" on="0"/>
        <pt x="453" y="266" on="1"/>
        <pt x="453" y="434" on="1"/>
        <pt x="453" y="474" on="0"/>
        <pt x="413" y="515" on="0"/>
        <pt x="345" y="515" on="0"/>
        <pt x="305" y="474" on="0"/>
        <pt x="305" y="434" on="1"/>
        <pt x="305" y="266" on="1"/>
        <pt x="305" y="225" on="0"/>
      </contour>
      <contour>
        <pt x="314" y="922" on="1"/>
        <pt x="444" y="922" on="1"/>
        <pt x="455" y="922" on="0"/>
        <pt x="465" y="916" on="0"/>
        <pt x="481" y="903" on="1"/>
        <pt x="598" y="779" on="1"/>
        <pt x="603" y="774" on="0"/>
        <pt x="603" y="766" on="1"/>
        <pt x="603" y="750" on="0"/>
        <pt x="587" y="750" on="1"/>
        <pt x="516" y="750" on="1"/>
        <pt x="497" y="750" on="0"/>
        <pt x="476" y="757" on="1"/>
        <pt x="379" y="799" on="1"/>
        <pt x="282" y="757" on="1"/>
        <pt x="261" y="750" on="0"/>
        <pt x="242" y="750" on="1"/>
        <pt x="171" y="750" on="1"/>
        <pt x="155" y="750" on="0"/>
        <pt x="155" y="766" on="1"/>
        <pt x="155" y="774" on="0"/>
        <pt x="160" y="779" on="1"/>
        <pt x="277" y="903" on="1"/>
        <pt x="293" y="916" on="0"/>
        <pt x="303" y="922" on="0"/>
      </contour>
    </TTGlyph>
    <TTGlyph name="Odieresis" xMin="45" yMin="-10" xMax="713" yMax="922">
      <contour>
        <pt x="228" y="710" on="0"/>
        <pt x="530" y="710" on="0"/>
        <pt x="713" y="561" on="0"/>
        <pt x="713" y="426" on="1"/>
        <pt x="713" y="270" on="1"/>
        <pt x="713" y="133" on="0"/>
        <pt x="532" y="-10" on="0"/>
        <pt x="226" y="-10" on="0"/>
        <pt x="45" y="133" on="0"/>
        <pt x="45" y="270" on="1"/>
        <pt x="45" y="426" on="1"/>
        <pt x="45" y="562" on="0"/>
      </contour>
      <contour>
        <pt x="345" y="185" on="0"/>
        <pt x="413" y="185" on="0"/>
        <pt x="453" y="225" on="0"/>
        <pt x="453" y="266" on="1"/>
        <pt x="453" y="434" on="1"/>
        <pt x="453" y="474" on="0"/>
        <pt x="413" y="515" on="0"/>
        <pt x="345" y="515" on="0"/>
        <pt x="305" y="474" on="0"/>
        <pt x="305" y="434" on="1"/>
        <pt x="305" y="266" on="1"/>
        <pt x="305" y="225" on="0"/>
      </contour>
      <contour>
        <pt x="451" y="922" on="1"/>
        <pt x="577" y="922" on="1"/>
        <pt x="587" y="922" on="0"/>
        <pt x="600" y="909" on="0"/>
        <pt x="600" y="899" on="1"/>
        <pt x="600" y="773" on="1"/>
        <pt x="600" y="763" on="0"/>
        <pt x="587" y="750" on="0"/>
        <pt x="577" y="750" on="1"/>
        <pt x="451" y="750" on="1"/>
        <pt x="441" y="750" on="0"/>
        <pt x="428" y="763" on="0"/>
        <pt x="428" y="773" on="1"/>
        <pt x="428" y="899" on="1"/>
        <pt x="428" y="909" on="0"/>
        <pt x="441" y="922" on="0"/>
      </contour>
      <contour>
        <pt x="180" y="922" on="1"/>
        <pt x="306" y="922" on="1"/>
        <pt x="316" y="922" on="0"/>
        <pt x="329" y="909" on="0"/>
        <pt x="329" y="899" on="1"/>
        <pt x="329" y="773" on="1"/>
        <pt x="329" y="763" on="0"/>
        <pt x="316" y="750" on="0"/>
        <pt x="306" y="750" on="1"/>
        <pt x="180" y="750" on="1"/>
        <pt x="170" y="750" on="0"/>
        <pt x="157" y="763" on="0"/>
        <pt x="157" y="773" on="1"/>
        <pt x="157" y="899" on="1"/>
        <pt x="157" y="909" on="0"/>
        <pt x="170" y="922" on="0"/>
      </contour>
    </TTGlyph>
    <TTGlyph name="Ogonek" xMin="40" yMin="-222" xMax="253" yMax="122">
      <contour>
        <pt x="216" y="-100" on="1"/>
        <pt x="226" y="-100" on="1"/>
        <pt x="237" y="-100" on="0"/>
        <pt x="253" y="-116" on="0"/>
        <pt x="253" y="-127" on="1"/>
        <pt x="253" y="-195" on="1"/>
        <pt x="253" y="-206" on="0"/>
        <pt x="237" y="-222" on="0"/>
        <pt x="226" y="-222" on="1"/>
        <pt x="212" y="-222" on="1"/>
        <pt x="126" y="-222" on="0"/>
        <pt x="40" y="-126" on="0"/>
        <pt x="40" y="26" on="0"/>
        <pt x="126" y="122" on="0"/>
        <pt x="212" y="122" on="1"/>
        <pt x="226" y="122" on="1"/>
        <pt x="237" y="122" on="0"/>
        <pt x="253" y="106" on="0"/>
        <pt x="253" y="95" on="1"/>
        <pt x="253" y="27" on="1"/>
        <pt x="253" y="16" on="0"/>
        <pt x="237" y="0" on="0"/>
        <pt x="226" y="0" on="1"/>
        <pt x="216" y="0" on="1"/>
        <pt x="190" y="0" on="0"/>
        <pt x="166" y="-31" on="0"/>
        <pt x="166" y="-69" on="0"/>
        <pt x="190" y="-100" on="0"/>
      </contour>
    </TTGlyph>
    <TTGlyph name="Ograve" xMin="45" yMin="-10" xMax="713" yMax="922">
      <contour>
        <pt x="228" y="710" on="0"/>
        <pt x="530" y="710" on="0"/>
        <pt x="713" y="561" on="0"/>
        <pt x="713" y="426" on="1"/>
        <pt x="713" y="270" on="1"/>
        <pt x="713" y="133" on="0"/>
        <pt x="532" y="-10" on="0"/>
        <pt x="226" y="-10" on="0"/>
        <pt x="45" y="133" on="0"/>
        <pt x="45" y="270" on="1"/>
        <pt x="45" y="426" on="1"/>
        <pt x="45" y="562" on="0"/>
      </contour>
      <contour>
        <pt x="345" y="185" on="0"/>
        <pt x="413" y="185" on="0"/>
        <pt x="453" y="225" on="0"/>
        <pt x="453" y="266" on="1"/>
        <pt x="453" y="434" on="1"/>
        <pt x="453" y="474" on="0"/>
        <pt x="413" y="515" on="0"/>
        <pt x="345" y="515" on="0"/>
        <pt x="305" y="474" on="0"/>
        <pt x="305" y="434" on="1"/>
        <pt x="305" y="266" on="1"/>
        <pt x="305" y="225" on="0"/>
      </contour>
      <contour>
        <pt x="485" y="766" on="1"/>
        <pt x="485" y="750" on="0"/>
        <pt x="469" y="750" on="1"/>
        <pt x="329" y="750" on="1"/>
        <pt x="299" y="750" on="0"/>
        <pt x="288" y="760" on="1"/>
        <pt x="130" y="890" on="1"/>
        <pt x="125" y="895" on="0"/>
        <pt x="125" y="902" on="1"/>
        <pt x="125" y="922" on="0"/>
        <pt x="144" y="922" on="1"/>
        <pt x="341" y="922" on="1"/>
        <pt x="361" y="922" on="0"/>
        <pt x="378" y="903" on="1"/>
        <pt x="480" y="779" on="1"/>
        <pt x="485" y="774" on="0"/>
      </contour>
    </TTGlyph>
    <TTGlyph name="Ohungarumlaut" xMin="45" yMin="-10" xMax="713" yMax="922">
      <contour>
        <pt x="228" y="710" on="0"/>
        <pt x="530" y="710" on="0"/>
        <pt x="713" y="561" on="0"/>
        <pt x="713" y="426" on="1"/>
        <pt x="713" y="270" on="1"/>
        <pt x="713" y="133" on="0"/>
        <pt x="532" y="-10" on="0"/>
        <pt x="226" y="-10" on="0"/>
        <pt x="45" y="133" on="0"/>
        <pt x="45" y="270" on="1"/>
        <pt x="45" y="426" on="1"/>
        <pt x="45" y="562" on="0"/>
      </contour>
      <contour>
        <pt x="345" y="185" on="0"/>
        <pt x="413" y="185" on="0"/>
        <pt x="453" y="225" on="0"/>
        <pt x="453" y="266" on="1"/>
        <pt x="453" y="434" on="1"/>
        <pt x="453" y="474" on="0"/>
        <pt x="413" y="515" on="0"/>
        <pt x="345" y="515" on="0"/>
        <pt x="305" y="474" on="0"/>
        <pt x="305" y="434" on="1"/>
        <pt x="305" y="266" on="1"/>
        <pt x="305" y="225" on="0"/>
      </contour>
      <contour>
        <pt x="256" y="922" on="1"/>
        <pt x="414" y="922" on="1"/>
        <pt x="434" y="922" on="0"/>
        <pt x="434" y="903" on="1"/>
        <pt x="434" y="896" on="0"/>
        <pt x="428" y="890" on="1"/>
        <pt x="306" y="757" on="1"/>
        <pt x="300" y="750" on="0"/>
        <pt x="266" y="750" on="1"/>
        <pt x="175" y="750" on="1"/>
        <pt x="159" y="750" on="0"/>
        <pt x="159" y="766" on="1"/>
        <pt x="159" y="771" on="0"/>
        <pt x="164" y="781" on="1"/>
        <pt x="219" y="903" on="1"/>
        <pt x="226" y="920" on="0"/>
        <pt x="241" y="922" on="1"/>
        <pt x="245" y="922" on="0"/>
      </contour>
      <contour>
        <pt x="527" y="922" on="1"/>
        <pt x="685" y="922" on="1"/>
        <pt x="705" y="922" on="0"/>
        <pt x="705" y="903" on="1"/>
        <pt x="705" y="896" on="0"/>
        <pt x="699" y="890" on="1"/>
        <pt x="577" y="757" on="1"/>
        <pt x="571" y="750" on="0"/>
        <pt x="537" y="750" on="1"/>
        <pt x="446" y="750" on="1"/>
        <pt x="430" y="750" on="0"/>
        <pt x="430" y="766" on="1"/>
        <pt x="430" y="771" on="0"/>
        <pt x="435" y="781" on="1"/>
        <pt x="490" y="903" on="1"/>
        <pt x="497" y="920" on="0"/>
        <pt x="512" y="922" on="1"/>
        <pt x="516" y="922" on="0"/>
      </contour>
    </TTGlyph>
    <TTGlyph name="Omacron" xMin="45" yMin="-10" xMax="713" yMax="917">
      <contour>
        <pt x="228" y="710" on="0"/>
        <pt x="530" y="710" on="0"/>
        <pt x="713" y="561" on="0"/>
        <pt x="713" y="426" on="1"/>
        <pt x="713" y="270" on="1"/>
        <pt x="713" y="133" on="0"/>
        <pt x="532" y="-10" on="0"/>
        <pt x="226" y="-10" on="0"/>
        <pt x="45" y="133" on="0"/>
        <pt x="45" y="270" on="1"/>
        <pt x="45" y="426" on="1"/>
        <pt x="45" y="562" on="0"/>
      </contour>
      <contour>
        <pt x="345" y="185" on="0"/>
        <pt x="413" y="185" on="0"/>
        <pt x="453" y="225" on="0"/>
        <pt x="453" y="266" on="1"/>
        <pt x="453" y="434" on="1"/>
        <pt x="453" y="474" on="0"/>
        <pt x="413" y="515" on="0"/>
        <pt x="345" y="515" on="0"/>
        <pt x="305" y="474" on="0"/>
        <pt x="305" y="434" on="1"/>
        <pt x="305" y="266" on="1"/>
        <pt x="305" y="225" on="0"/>
      </contour>
      <contour>
        <pt x="193" y="917" on="1"/>
        <pt x="570" y="917" on="1"/>
        <pt x="580" y="917" on="0"/>
        <pt x="593" y="904" on="0"/>
        <pt x="593" y="894" on="1"/>
        <pt x="593" y="778" on="1"/>
        <pt x="593" y="768" on="0"/>
        <pt x="580" y="755" on="0"/>
        <pt x="570" y="755" on="1"/>
        <pt x="193" y="755" on="1"/>
        <pt x="183" y="755" on="0"/>
        <pt x="170" y="768" on="0"/>
        <pt x="170" y="778" on="1"/>
        <pt x="170" y="894" on="1"/>
        <pt x="170" y="904" on="0"/>
        <pt x="183" y="917" on="0"/>
      </contour>
    </TTGlyph>
    <TTGlyph name="Oslash" xMin="0" yMin="-10" xMax="758" yMax="710">
      <contour>
        <pt x="379" y="710" on="1"/>
        <pt x="486" y="710" on="0"/>
        <pt x="645" y="632" on="0"/>
        <pt x="683" y="559" on="1"/>
        <pt x="726" y="576" on="1"/>
        <pt x="734" y="579" on="0"/>
        <pt x="746" y="579" on="0"/>
        <pt x="758" y="567" on="0"/>
        <pt x="758" y="558" on="1"/>
        <pt x="758" y="450" on="1"/>
        <pt x="758" y="425" on="0"/>
        <pt x="736" y="417" on="1"/>
        <pt x="713" y="408" on="1"/>
        <pt x="713" y="270" on="1"/>
        <pt x="713" y="133" on="0"/>
        <pt x="532" y="-10" on="0"/>
        <pt x="379" y="-10" on="1"/>
        <pt x="263" y="-10" on="0"/>
        <pt x="99" y="73" on="0"/>
        <pt x="66" y="154" on="1"/>
        <pt x="32" y="141" on="1"/>
        <pt x="25" y="138" on="0"/>
        <pt x="12" y="138" on="0"/>
        <pt x="0" y="150" on="0"/>
        <pt x="0" y="159" on="1"/>
        <pt x="0" y="267" on="1"/>
        <pt x="0" y="292" on="0"/>
        <pt x="22" y="300" on="1"/>
        <pt x="45" y="309" on="1"/>
        <pt x="45" y="426" on="1"/>
        <pt x="45" y="562" on="0"/>
        <pt x="228" y="710" on="0"/>
      </contour>
      <contour>
        <pt x="379" y="185" on="1"/>
        <pt x="413" y="185" on="0"/>
        <pt x="453" y="225" on="0"/>
        <pt x="453" y="266" on="1"/>
        <pt x="453" y="306" on="1"/>
        <pt x="306" y="248" on="1"/>
        <pt x="313" y="185" on="0"/>
      </contour>
      <contour>
        <pt x="379" y="515" on="1"/>
        <pt x="345" y="515" on="0"/>
        <pt x="305" y="474" on="0"/>
        <pt x="305" y="434" on="1"/>
        <pt x="305" y="411" on="1"/>
        <pt x="448" y="467" on="1"/>
        <pt x="433" y="515" on="0"/>
      </contour>
    </TTGlyph>
    <TTGlyph name="Oslashacute" xMin="0" yMin="-10" xMax="758" yMax="922">
      <contour>
        <pt x="379" y="710" on="1"/>
        <pt x="486" y="710" on="0"/>
        <pt x="645" y="632" on="0"/>
        <pt x="683" y="559" on="1"/>
        <pt x="726" y="576" on="1"/>
        <pt x="734" y="579" on="0"/>
        <pt x="746" y="579" on="0"/>
        <pt x="758" y="567" on="0"/>
        <pt x="758" y="558" on="1"/>
        <pt x="758" y="450" on="1"/>
        <pt x="758" y="425" on="0"/>
        <pt x="736" y="417" on="1"/>
        <pt x="713" y="408" on="1"/>
        <pt x="713" y="270" on="1"/>
        <pt x="713" y="133" on="0"/>
        <pt x="532" y="-10" on="0"/>
        <pt x="379" y="-10" on="1"/>
        <pt x="263" y="-10" on="0"/>
        <pt x="99" y="73" on="0"/>
        <pt x="66" y="154" on="1"/>
        <pt x="32" y="141" on="1"/>
        <pt x="24" y="138" on="0"/>
        <pt x="12" y="138" on="0"/>
        <pt x="0" y="150" on="0"/>
        <pt x="0" y="159" on="1"/>
        <pt x="0" y="267" on="1"/>
        <pt x="0" y="292" on="0"/>
        <pt x="22" y="300" on="1"/>
        <pt x="45" y="309" on="1"/>
        <pt x="45" y="426" on="1"/>
        <pt x="45" y="562" on="0"/>
        <pt x="228" y="710" on="0"/>
      </contour>
      <contour>
        <pt x="379" y="185" on="1"/>
        <pt x="413" y="185" on="0"/>
        <pt x="453" y="225" on="0"/>
        <pt x="453" y="266" on="1"/>
        <pt x="453" y="306" on="1"/>
        <pt x="306" y="248" on="1"/>
        <pt x="313" y="185" on="0"/>
      </contour>
      <contour>
        <pt x="379" y="515" on="1"/>
        <pt x="345" y="515" on="0"/>
        <pt x="305" y="474" on="0"/>
        <pt x="305" y="434" on="1"/>
        <pt x="305" y="411" on="1"/>
        <pt x="448" y="467" on="1"/>
        <pt x="433" y="515" on="0"/>
      </contour>
      <contour>
        <pt x="414" y="922" on="1"/>
        <pt x="611" y="922" on="1"/>
        <pt x="630" y="922" on="0"/>
        <pt x="630" y="902" on="1"/>
        <pt x="630" y="895" on="0"/>
        <pt x="625" y="890" on="1"/>
        <pt x="467" y="760" on="1"/>
        <pt x="456" y="750" on="0"/>
        <pt x="426" y="750" on="1"/>
        <pt x="286" y="750" on="1"/>
        <pt x="270" y="750" on="0"/>
        <pt x="270" y="766" on="1"/>
        <pt x="270" y="774" on="0"/>
        <pt x="275" y="779" on="1"/>
        <pt x="377" y="903" on="1"/>
        <pt x="394" y="922" on="0"/>
      </contour>
    </TTGlyph>
    <TTGlyph name="Otilde" xMin="45" yMin="-10" xMax="713" yMax="915">
      <contour>
        <pt x="228" y="710" on="0"/>
        <pt x="530" y="710" on="0"/>
        <pt x="713" y="561" on="0"/>
        <pt x="713" y="426" on="1"/>
        <pt x="713" y="270" on="1"/>
        <pt x="713" y="133" on="0"/>
        <pt x="532" y="-10" on="0"/>
        <pt x="226" y="-10" on="0"/>
        <pt x="45" y="133" on="0"/>
        <pt x="45" y="270" on="1"/>
        <pt x="45" y="426" on="1"/>
        <pt x="45" y="562" on="0"/>
      </contour>
      <contour>
        <pt x="345" y="185" on="0"/>
        <pt x="413" y="185" on="0"/>
        <pt x="453" y="225" on="0"/>
        <pt x="453" y="266" on="1"/>
        <pt x="453" y="434" on="1"/>
        <pt x="453" y="474" on="0"/>
        <pt x="413" y="515" on="0"/>
        <pt x="345" y="515" on="0"/>
        <pt x="305" y="474" on="0"/>
        <pt x="305" y="434" on="1"/>
        <pt x="305" y="266" on="1"/>
        <pt x="305" y="225" on="0"/>
      </contour>
      <contour>
        <pt x="549" y="779" on="0"/>
        <pt x="492" y="747" on="0"/>
        <pt x="421" y="747" on="0"/>
        <pt x="333" y="781" on="0"/>
        <pt x="294" y="781" on="0"/>
        <pt x="281" y="759" on="1"/>
        <pt x="276" y="750" on="0"/>
        <pt x="266" y="750" on="1"/>
        <pt x="182" y="750" on="1"/>
        <pt x="174" y="750" on="0"/>
        <pt x="163" y="761" on="0"/>
        <pt x="163" y="784" on="0"/>
        <pt x="170" y="819" on="0"/>
        <pt x="189" y="860" on="0"/>
        <pt x="204" y="876" on="1"/>
        <pt x="237" y="915" on="0"/>
        <pt x="299" y="915" on="1"/>
        <pt x="332" y="915" on="0"/>
        <pt x="420" y="881" on="0"/>
        <pt x="457" y="881" on="0"/>
        <pt x="477" y="912" on="0"/>
        <pt x="487" y="912" on="1"/>
        <pt x="571" y="912" on="1"/>
        <pt x="590" y="912" on="0"/>
        <pt x="590" y="873" on="0"/>
        <pt x="577" y="828" on="0"/>
      </contour>
    </TTGlyph>
    <TTGlyph name="P" xMin="65" yMin="0" xMax="696" yMax="700">
      <contour>
        <pt x="92" y="700" on="1"/>
        <pt x="390" y="700" on="1"/>
        <pt x="534" y="700" on="0"/>
        <pt x="696" y="576" on="0"/>
        <pt x="696" y="334" on="0"/>
        <pt x="535" y="218" on="0"/>
        <pt x="390" y="218" on="1"/>
        <pt x="325" y="218" on="1"/>
        <pt x="325" y="27" on="1"/>
        <pt x="325" y="16" on="0"/>
        <pt x="309" y="0" on="0"/>
        <pt x="298" y="0" on="1"/>
        <pt x="92" y="0" on="1"/>
        <pt x="81" y="0" on="0"/>
        <pt x="65" y="16" on="0"/>
        <pt x="65" y="27" on="1"/>
        <pt x="65" y="673" on="1"/>
        <pt x="65" y="684" on="0"/>
        <pt x="81" y="700" on="0"/>
      </contour>
      <contour>
        <pt x="320" y="514" on="1"/>
        <pt x="320" y="403" on="1"/>
        <pt x="390" y="403" on="1"/>
        <pt x="408" y="403" on="0"/>
        <pt x="436" y="430" on="0"/>
        <pt x="436" y="480" on="0"/>
        <pt x="414" y="514" on="0"/>
        <pt x="390" y="514" on="1"/>
      </contour>
    </TTGlyph>
    <TTGlyph name="Q" xMin="45" yMin="-65" xMax="723" yMax="710">
      <contour>
        <pt x="228" y="710" on="0"/>
        <pt x="530" y="710" on="0"/>
        <pt x="713" y="561" on="0"/>
        <pt x="713" y="426" on="1"/>
        <pt x="713" y="270" on="1"/>
        <pt x="713" y="152" on="0"/>
        <pt x="642" y="79" on="1"/>
        <pt x="720" y="-34" on="1"/>
        <pt x="723" y="-40" on="0"/>
        <pt x="723" y="-53" on="0"/>
        <pt x="712" y="-65" on="0"/>
        <pt x="703" y="-65" on="1"/>
        <pt x="507" y="-65" on="1"/>
        <pt x="482" y="-65" on="0"/>
        <pt x="465" y="-42" on="1"/>
        <pt x="437" y="-7" on="1"/>
        <pt x="408" y="-10" on="0"/>
        <pt x="379" y="-10" on="1"/>
        <pt x="226" y="-10" on="0"/>
        <pt x="45" y="133" on="0"/>
        <pt x="45" y="270" on="1"/>
        <pt x="45" y="426" on="1"/>
        <pt x="45" y="562" on="0"/>
      </contour>
      <contour>
        <pt x="345" y="185" on="0"/>
        <pt x="413" y="185" on="0"/>
        <pt x="453" y="225" on="0"/>
        <pt x="453" y="266" on="1"/>
        <pt x="453" y="434" on="1"/>
        <pt x="453" y="474" on="0"/>
        <pt x="413" y="515" on="0"/>
        <pt x="345" y="515" on="0"/>
        <pt x="305" y="474" on="0"/>
        <pt x="305" y="434" on="1"/>
        <pt x="305" y="266" on="1"/>
        <pt x="305" y="225" on="0"/>
      </contour>
    </TTGlyph>
    <TTGlyph name="R" xMin="65" yMin="0" xMax="712" yMax="700">
      <contour>
        <pt x="709" y="33" on="1"/>
        <pt x="712" y="27" on="0"/>
        <pt x="712" y="13" on="0"/>
        <pt x="699" y="0" on="0"/>
        <pt x="690" y="0" on="1"/>
        <pt x="485" y="0" on="1"/>
        <pt x="454" y="0" on="0"/>
        <pt x="442" y="27" on="1"/>
        <pt x="356" y="218" on="1"/>
        <pt x="315" y="218" on="1"/>
        <pt x="315" y="27" on="1"/>
        <pt x="315" y="16" on="0"/>
        <pt x="299" y="0" on="0"/>
        <pt x="288" y="0" on="1"/>
        <pt x="92" y="0" on="1"/>
        <pt x="81" y="0" on="0"/>
        <pt x="65" y="16" on="0"/>
        <pt x="65" y="27" on="1"/>
        <pt x="65" y="673" on="1"/>
        <pt x="65" y="684" on="0"/>
        <pt x="81" y="700" on="0"/>
        <pt x="92" y="700" on="1"/>
        <pt x="388" y="700" on="1"/>
        <pt x="532" y="700" on="0"/>
        <pt x="694" y="571" on="0"/>
        <pt x="694" y="330" on="0"/>
        <pt x="586" y="261" on="1"/>
      </contour>
      <contour>
        <pt x="315" y="514" on="1"/>
        <pt x="315" y="408" on="1"/>
        <pt x="388" y="408" on="1"/>
        <pt x="410" y="408" on="0"/>
        <pt x="434" y="437" on="0"/>
        <pt x="434" y="481" on="0"/>
        <pt x="411" y="514" on="0"/>
        <pt x="388" y="514" on="1"/>
      </contour>
    </TTGlyph>
    <TTGlyph name="Racute" xMin="65" yMin="0" xMax="712" yMax="922">
      <contour>
        <pt x="709" y="33" on="1"/>
        <pt x="712" y="27" on="0"/>
        <pt x="712" y="13" on="0"/>
        <pt x="699" y="0" on="0"/>
        <pt x="690" y="0" on="1"/>
        <pt x="485" y="0" on="1"/>
        <pt x="454" y="0" on="0"/>
        <pt x="442" y="27" on="1"/>
        <pt x="356" y="218" on="1"/>
        <pt x="315" y="218" on="1"/>
        <pt x="315" y="27" on="1"/>
        <pt x="315" y="16" on="0"/>
        <pt x="299" y="0" on="0"/>
        <pt x="288" y="0" on="1"/>
        <pt x="92" y="0" on="1"/>
        <pt x="81" y="0" on="0"/>
        <pt x="65" y="16" on="0"/>
        <pt x="65" y="27" on="1"/>
        <pt x="65" y="673" on="1"/>
        <pt x="65" y="684" on="0"/>
        <pt x="81" y="700" on="0"/>
        <pt x="92" y="700" on="1"/>
        <pt x="388" y="700" on="1"/>
        <pt x="532" y="700" on="0"/>
        <pt x="694" y="571" on="0"/>
        <pt x="694" y="330" on="0"/>
        <pt x="586" y="261" on="1"/>
      </contour>
      <contour>
        <pt x="315" y="514" on="1"/>
        <pt x="315" y="408" on="1"/>
        <pt x="388" y="408" on="1"/>
        <pt x="410" y="408" on="0"/>
        <pt x="434" y="437" on="0"/>
        <pt x="434" y="481" on="0"/>
        <pt x="411" y="514" on="0"/>
        <pt x="388" y="514" on="1"/>
      </contour>
      <contour>
        <pt x="363" y="922" on="1"/>
        <pt x="560" y="922" on="1"/>
        <pt x="579" y="922" on="0"/>
        <pt x="579" y="902" on="1"/>
        <pt x="579" y="895" on="0"/>
        <pt x="574" y="890" on="1"/>
        <pt x="416" y="760" on="1"/>
        <pt x="405" y="750" on="0"/>
        <pt x="375" y="750" on="1"/>
        <pt x="235" y="750" on="1"/>
        <pt x="219" y="750" on="0"/>
        <pt x="219" y="766" on="1"/>
        <pt x="219" y="774" on="0"/>
        <pt x="224" y="779" on="1"/>
        <pt x="326" y="903" on="1"/>
        <pt x="343" y="922" on="0"/>
      </contour>
    </TTGlyph>
    <TTGlyph name="Rcaron" xMin="65" yMin="0" xMax="712" yMax="922">
      <contour>
        <pt x="709" y="33" on="1"/>
        <pt x="712" y="27" on="0"/>
        <pt x="712" y="13" on="0"/>
        <pt x="699" y="0" on="0"/>
        <pt x="690" y="0" on="1"/>
        <pt x="485" y="0" on="1"/>
        <pt x="454" y="0" on="0"/>
        <pt x="442" y="27" on="1"/>
        <pt x="356" y="218" on="1"/>
        <pt x="315" y="218" on="1"/>
        <pt x="315" y="27" on="1"/>
        <pt x="315" y="16" on="0"/>
        <pt x="299" y="0" on="0"/>
        <pt x="288" y="0" on="1"/>
        <pt x="92" y="0" on="1"/>
        <pt x="81" y="0" on="0"/>
        <pt x="65" y="16" on="0"/>
        <pt x="65" y="27" on="1"/>
        <pt x="65" y="673" on="1"/>
        <pt x="65" y="684" on="0"/>
        <pt x="81" y="700" on="0"/>
        <pt x="92" y="700" on="1"/>
        <pt x="388" y="700" on="1"/>
        <pt x="532" y="700" on="0"/>
        <pt x="694" y="571" on="0"/>
        <pt x="694" y="330" on="0"/>
        <pt x="586" y="261" on="1"/>
      </contour>
      <contour>
        <pt x="315" y="514" on="1"/>
        <pt x="315" y="408" on="1"/>
        <pt x="388" y="408" on="1"/>
        <pt x="410" y="408" on="0"/>
        <pt x="434" y="437" on="0"/>
        <pt x="434" y="481" on="0"/>
        <pt x="411" y="514" on="0"/>
        <pt x="388" y="514" on="1"/>
      </contour>
      <contour>
        <pt x="429" y="750" on="1"/>
        <pt x="299" y="750" on="1"/>
        <pt x="288" y="750" on="0"/>
        <pt x="278" y="756" on="0"/>
        <pt x="262" y="769" on="1"/>
        <pt x="145" y="893" on="1"/>
        <pt x="140" y="898" on="0"/>
        <pt x="140" y="906" on="1"/>
        <pt x="140" y="922" on="0"/>
        <pt x="156" y="922" on="1"/>
        <pt x="227" y="922" on="1"/>
        <pt x="246" y="922" on="0"/>
        <pt x="267" y="915" on="1"/>
        <pt x="364" y="873" on="1"/>
        <pt x="461" y="915" on="1"/>
        <pt x="482" y="922" on="0"/>
        <pt x="501" y="922" on="1"/>
        <pt x="572" y="922" on="1"/>
        <pt x="588" y="922" on="0"/>
        <pt x="588" y="906" on="1"/>
        <pt x="588" y="898" on="0"/>
        <pt x="583" y="893" on="1"/>
        <pt x="466" y="769" on="1"/>
        <pt x="450" y="756" on="0"/>
        <pt x="440" y="750" on="0"/>
      </contour>
    </TTGlyph>
    <TTGlyph name="Rcommaaccent" xMin="65" yMin="-250" xMax="712" yMax="700">
      <contour>
        <pt x="709" y="33" on="1"/>
        <pt x="712" y="27" on="0"/>
        <pt x="712" y="13" on="0"/>
        <pt x="699" y="0" on="0"/>
        <pt x="690" y="0" on="1"/>
        <pt x="485" y="0" on="1"/>
        <pt x="454" y="0" on="0"/>
        <pt x="442" y="27" on="1"/>
        <pt x="356" y="218" on="1"/>
        <pt x="315" y="218" on="1"/>
        <pt x="315" y="27" on="1"/>
        <pt x="315" y="16" on="0"/>
        <pt x="299" y="0" on="0"/>
        <pt x="288" y="0" on="1"/>
        <pt x="92" y="0" on="1"/>
        <pt x="81" y="0" on="0"/>
        <pt x="65" y="16" on="0"/>
        <pt x="65" y="27" on="1"/>
        <pt x="65" y="673" on="1"/>
        <pt x="65" y="684" on="0"/>
        <pt x="81" y="700" on="0"/>
        <pt x="92" y="700" on="1"/>
        <pt x="388" y="700" on="1"/>
        <pt x="532" y="700" on="0"/>
        <pt x="694" y="571" on="0"/>
        <pt x="694" y="330" on="0"/>
        <pt x="586" y="261" on="1"/>
      </contour>
      <contour>
        <pt x="315" y="514" on="1"/>
        <pt x="315" y="408" on="1"/>
        <pt x="388" y="408" on="1"/>
        <pt x="410" y="408" on="0"/>
        <pt x="434" y="437" on="0"/>
        <pt x="434" y="481" on="0"/>
        <pt x="411" y="514" on="0"/>
        <pt x="388" y="514" on="1"/>
      </contour>
      <contour>
        <pt x="326" y="-250" on="1"/>
        <pt x="209" y="-250" on="1"/>
        <pt x="190" y="-250" on="0"/>
        <pt x="190" y="-231" on="1"/>
        <pt x="190" y="-226" on="0"/>
        <pt x="195" y="-216" on="1"/>
        <pt x="270" y="-70" on="1"/>
        <pt x="279" y="-50" on="0"/>
        <pt x="312" y="-50" on="1"/>
        <pt x="452" y="-50" on="1"/>
        <pt x="468" y="-50" on="0"/>
        <pt x="468" y="-66" on="1"/>
        <pt x="468" y="-74" on="0"/>
        <pt x="463" y="-81" on="1"/>
        <pt x="363" y="-231" on="1"/>
        <pt x="351" y="-250" on="0"/>
      </contour>
    </TTGlyph>
    <TTGlyph name="Ring" xMin="50" yMin="740" xMax="271" yMax="932">
      <contour>
        <pt x="271" y="794" on="0"/>
        <pt x="211" y="740" on="0"/>
        <pt x="110" y="740" on="0"/>
        <pt x="50" y="794" on="0"/>
        <pt x="50" y="879" on="0"/>
        <pt x="110" y="932" on="0"/>
        <pt x="211" y="932" on="0"/>
        <pt x="271" y="879" on="0"/>
      </contour>
      <contour>
        <pt x="131" y="805" on="0"/>
        <pt x="189" y="805" on="0"/>
        <pt x="189" y="867" on="0"/>
        <pt x="131" y="867" on="0"/>
      </contour>
    </TTGlyph>
    <TTGlyph name="S" xMin="30" yMin="-10" xMax="691" yMax="710">
      <contour>
        <pt x="47" y="582" on="0"/>
        <pt x="216" y="710" on="0"/>
        <pt x="491" y="710" on="0"/>
        <pt x="666" y="576" on="0"/>
        <pt x="666" y="503" on="1"/>
        <pt x="666" y="494" on="0"/>
        <pt x="653" y="481" on="0"/>
        <pt x="645" y="481" on="1"/>
        <pt x="445" y="481" on="1"/>
        <pt x="422" y="481" on="0"/>
        <pt x="384" y="515" on="0"/>
        <pt x="352" y="515" on="1"/>
        <pt x="304" y="515" on="0"/>
        <pt x="304" y="487" on="1"/>
        <pt x="304" y="472" on="0"/>
        <pt x="351" y="452" on="0"/>
        <pt x="415" y="444" on="1"/>
        <pt x="564" y="425" on="0"/>
        <pt x="691" y="324" on="0"/>
        <pt x="691" y="119" on="0"/>
        <pt x="504" y="-10" on="0"/>
        <pt x="202" y="-10" on="0"/>
        <pt x="30" y="114" on="0"/>
        <pt x="30" y="203" on="1"/>
        <pt x="30" y="212" on="0"/>
        <pt x="43" y="225" on="0"/>
        <pt x="52" y="225" on="1"/>
        <pt x="242" y="225" on="1"/>
        <pt x="263" y="225" on="0"/>
        <pt x="314" y="185" on="0"/>
        <pt x="359" y="185" on="1"/>
        <pt x="434" y="185" on="0"/>
        <pt x="434" y="213" on="1"/>
        <pt x="434" y="231" on="0"/>
        <pt x="380" y="250" on="0"/>
        <pt x="305" y="260" on="1"/>
        <pt x="47" y="294" on="0"/>
        <pt x="47" y="480" on="1"/>
      </contour>
    </TTGlyph>
    <TTGlyph name="Sacute" xMin="30" yMin="-10" xMax="691" yMax="922">
      <contour>
        <pt x="47" y="582" on="0"/>
        <pt x="216" y="710" on="0"/>
        <pt x="491" y="710" on="0"/>
        <pt x="666" y="576" on="0"/>
        <pt x="666" y="503" on="1"/>
        <pt x="666" y="494" on="0"/>
        <pt x="653" y="481" on="0"/>
        <pt x="645" y="481" on="1"/>
        <pt x="445" y="481" on="1"/>
        <pt x="422" y="481" on="0"/>
        <pt x="384" y="515" on="0"/>
        <pt x="352" y="515" on="1"/>
        <pt x="304" y="515" on="0"/>
        <pt x="304" y="487" on="1"/>
        <pt x="304" y="472" on="0"/>
        <pt x="351" y="452" on="0"/>
        <pt x="415" y="444" on="1"/>
        <pt x="564" y="425" on="0"/>
        <pt x="691" y="324" on="0"/>
        <pt x="691" y="119" on="0"/>
        <pt x="504" y="-10" on="0"/>
        <pt x="202" y="-10" on="0"/>
        <pt x="30" y="114" on="0"/>
        <pt x="30" y="203" on="1"/>
        <pt x="30" y="212" on="0"/>
        <pt x="43" y="225" on="0"/>
        <pt x="52" y="225" on="1"/>
        <pt x="242" y="225" on="1"/>
        <pt x="263" y="225" on="0"/>
        <pt x="314" y="185" on="0"/>
        <pt x="359" y="185" on="1"/>
        <pt x="434" y="185" on="0"/>
        <pt x="434" y="213" on="1"/>
        <pt x="434" y="231" on="0"/>
        <pt x="380" y="250" on="0"/>
        <pt x="305" y="260" on="1"/>
        <pt x="47" y="294" on="0"/>
        <pt x="47" y="480" on="1"/>
      </contour>
      <contour>
        <pt x="373" y="922" on="1"/>
        <pt x="570" y="922" on="1"/>
        <pt x="589" y="922" on="0"/>
        <pt x="589" y="902" on="1"/>
        <pt x="589" y="895" on="0"/>
        <pt x="584" y="890" on="1"/>
        <pt x="426" y="760" on="1"/>
        <pt x="415" y="750" on="0"/>
        <pt x="385" y="750" on="1"/>
        <pt x="245" y="750" on="1"/>
        <pt x="229" y="750" on="0"/>
        <pt x="229" y="766" on="1"/>
        <pt x="229" y="774" on="0"/>
        <pt x="234" y="779" on="1"/>
        <pt x="336" y="903" on="1"/>
        <pt x="353" y="922" on="0"/>
      </contour>
    </TTGlyph>
    <TTGlyph name="Scaron" xMin="30" yMin="-10" xMax="691" yMax="922">
      <contour>
        <pt x="47" y="582" on="0"/>
        <pt x="216" y="710" on="0"/>
        <pt x="491" y="710" on="0"/>
        <pt x="666" y="576" on="0"/>
        <pt x="666" y="503" on="1"/>
        <pt x="666" y="494" on="0"/>
        <pt x="653" y="481" on="0"/>
        <pt x="645" y="481" on="1"/>
        <pt x="445" y="481" on="1"/>
        <pt x="422" y="481" on="0"/>
        <pt x="384" y="515" on="0"/>
        <pt x="352" y="515" on="1"/>
        <pt x="304" y="515" on="0"/>
        <pt x="304" y="487" on="1"/>
        <pt x="304" y="472" on="0"/>
        <pt x="351" y="452" on="0"/>
        <pt x="415" y="444" on="1"/>
        <pt x="564" y="425" on="0"/>
        <pt x="691" y="324" on="0"/>
        <pt x="691" y="119" on="0"/>
        <pt x="504" y="-10" on="0"/>
        <pt x="202" y="-10" on="0"/>
        <pt x="30" y="114" on="0"/>
        <pt x="30" y="203" on="1"/>
        <pt x="30" y="212" on="0"/>
        <pt x="43" y="225" on="0"/>
        <pt x="52" y="225" on="1"/>
        <pt x="242" y="225" on="1"/>
        <pt x="263" y="225" on="0"/>
        <pt x="314" y="185" on="0"/>
        <pt x="359" y="185" on="1"/>
        <pt x="434" y="185" on="0"/>
        <pt x="434" y="213" on="1"/>
        <pt x="434" y="231" on="0"/>
        <pt x="380" y="250" on="0"/>
        <pt x="305" y="260" on="1"/>
        <pt x="47" y="294" on="0"/>
        <pt x="47" y="480" on="1"/>
      </contour>
      <contour>
        <pt x="417" y="750" on="1"/>
        <pt x="287" y="750" on="1"/>
        <pt x="276" y="750" on="0"/>
        <pt x="266" y="756" on="0"/>
        <pt x="250" y="769" on="1"/>
        <pt x="133" y="893" on="1"/>
        <pt x="128" y="898" on="0"/>
        <pt x="128" y="906" on="1"/>
        <pt x="128" y="922" on="0"/>
        <pt x="144" y="922" on="1"/>
        <pt x="215" y="922" on="1"/>
        <pt x="234" y="922" on="0"/>
        <pt x="255" y="915" on="1"/>
        <pt x="352" y="873" on="1"/>
        <pt x="449" y="915" on="1"/>
        <pt x="470" y="922" on="0"/>
        <pt x="489" y="922" on="1"/>
        <pt x="560" y="922" on="1"/>
        <pt x="576" y="922" on="0"/>
        <pt x="576" y="906" on="1"/>
        <pt x="576" y="898" on="0"/>
        <pt x="571" y="893" on="1"/>
        <pt x="454" y="769" on="1"/>
        <pt x="438" y="756" on="0"/>
        <pt x="428" y="750" on="0"/>
      </contour>
    </TTGlyph>
    <TTGlyph name="Scedilla" xMin="30" yMin="-230" xMax="691" yMax="710">
      <contour>
        <pt x="30" y="203" on="1"/>
        <pt x="30" y="212" on="0"/>
        <pt x="43" y="225" on="0"/>
        <pt x="52" y="225" on="1"/>
        <pt x="242" y="225" on="1"/>
        <pt x="263" y="225" on="0"/>
        <pt x="314" y="185" on="0"/>
        <pt x="359" y="185" on="1"/>
        <pt x="434" y="185" on="0"/>
        <pt x="434" y="213" on="1"/>
        <pt x="434" y="231" on="0"/>
        <pt x="380" y="250" on="0"/>
        <pt x="305" y="260" on="1"/>
        <pt x="47" y="294" on="0"/>
        <pt x="47" y="480" on="1"/>
        <pt x="47" y="582" on="0"/>
        <pt x="216" y="710" on="0"/>
        <pt x="491" y="710" on="0"/>
        <pt x="666" y="576" on="0"/>
        <pt x="666" y="503" on="1"/>
        <pt x="666" y="494" on="0"/>
        <pt x="653" y="481" on="0"/>
        <pt x="645" y="481" on="1"/>
        <pt x="445" y="481" on="1"/>
        <pt x="422" y="481" on="0"/>
        <pt x="384" y="515" on="0"/>
        <pt x="352" y="515" on="1"/>
        <pt x="304" y="515" on="0"/>
        <pt x="304" y="487" on="1"/>
        <pt x="304" y="472" on="0"/>
        <pt x="351" y="452" on="0"/>
        <pt x="415" y="444" on="1"/>
        <pt x="564" y="425" on="0"/>
        <pt x="691" y="324" on="0"/>
        <pt x="691" y="123" on="0"/>
        <pt x="517" y="-5" on="0"/>
        <pt x="380" y="-10" on="1"/>
        <pt x="373" y="-39" on="1"/>
        <pt x="384" y="-33" on="0"/>
        <pt x="451" y="-33" on="0"/>
        <pt x="501" y="-86" on="0"/>
        <pt x="501" y="-124" on="1"/>
        <pt x="501" y="-196" on="0"/>
        <pt x="440" y="-219" on="1"/>
        <pt x="411" y="-230" on="0"/>
        <pt x="381" y="-230" on="1"/>
        <pt x="320" y="-218" on="1"/>
        <pt x="259" y="-194" on="0"/>
        <pt x="259" y="-153" on="1"/>
        <pt x="259" y="-140" on="0"/>
        <pt x="272" y="-140" on="1"/>
        <pt x="333" y="-140" on="1"/>
        <pt x="345" y="-140" on="0"/>
        <pt x="372" y="-156" on="0"/>
        <pt x="385" y="-156" on="1"/>
        <pt x="414" y="-156" on="0"/>
        <pt x="414" y="-132" on="1"/>
        <pt x="414" y="-122" on="0"/>
        <pt x="396" y="-107" on="0"/>
        <pt x="368" y="-107" on="0"/>
        <pt x="346" y="-119" on="0"/>
        <pt x="338" y="-119" on="1"/>
        <pt x="294" y="-119" on="1"/>
        <pt x="280" y="-119" on="0"/>
        <pt x="280" y="-105" on="1"/>
        <pt x="280" y="-101" on="0"/>
        <pt x="281" y="-93" on="1"/>
        <pt x="297" y="-7" on="1"/>
        <pt x="169" y="5" on="0"/>
        <pt x="30" y="124" on="0"/>
      </contour>
    </TTGlyph>
    <TTGlyph name="Scircumflex" xMin="30" yMin="-10" xMax="691" yMax="922">
      <contour>
        <pt x="47" y="582" on="0"/>
        <pt x="216" y="710" on="0"/>
        <pt x="491" y="710" on="0"/>
        <pt x="666" y="576" on="0"/>
        <pt x="666" y="503" on="1"/>
        <pt x="666" y="494" on="0"/>
        <pt x="653" y="481" on="0"/>
        <pt x="645" y="481" on="1"/>
        <pt x="445" y="481" on="1"/>
        <pt x="422" y="481" on="0"/>
        <pt x="384" y="515" on="0"/>
        <pt x="352" y="515" on="1"/>
        <pt x="304" y="515" on="0"/>
        <pt x="304" y="487" on="1"/>
        <pt x="304" y="472" on="0"/>
        <pt x="351" y="452" on="0"/>
        <pt x="415" y="444" on="1"/>
        <pt x="564" y="425" on="0"/>
        <pt x="691" y="324" on="0"/>
        <pt x="691" y="119" on="0"/>
        <pt x="504" y="-10" on="0"/>
        <pt x="202" y="-10" on="0"/>
        <pt x="30" y="114" on="0"/>
        <pt x="30" y="203" on="1"/>
        <pt x="30" y="212" on="0"/>
        <pt x="43" y="225" on="0"/>
        <pt x="52" y="225" on="1"/>
        <pt x="242" y="225" on="1"/>
        <pt x="263" y="225" on="0"/>
        <pt x="314" y="185" on="0"/>
        <pt x="359" y="185" on="1"/>
        <pt x="434" y="185" on="0"/>
        <pt x="434" y="213" on="1"/>
        <pt x="434" y="231" on="0"/>
        <pt x="380" y="250" on="0"/>
        <pt x="305" y="260" on="1"/>
        <pt x="47" y="294" on="0"/>
        <pt x="47" y="480" on="1"/>
      </contour>
      <contour>
        <pt x="289" y="922" on="1"/>
        <pt x="419" y="922" on="1"/>
        <pt x="430" y="922" on="0"/>
        <pt x="440" y="916" on="0"/>
        <pt x="456" y="903" on="1"/>
        <pt x="573" y="779" on="1"/>
        <pt x="578" y="774" on="0"/>
        <pt x="578" y="766" on="1"/>
        <pt x="578" y="750" on="0"/>
        <pt x="562" y="750" on="1"/>
        <pt x="491" y="750" on="1"/>
        <pt x="472" y="750" on="0"/>
        <pt x="451" y="757" on="1"/>
        <pt x="354" y="799" on="1"/>
        <pt x="257" y="757" on="1"/>
        <pt x="236" y="750" on="0"/>
        <pt x="217" y="750" on="1"/>
        <pt x="146" y="750" on="1"/>
        <pt x="130" y="750" on="0"/>
        <pt x="130" y="766" on="1"/>
        <pt x="130" y="774" on="0"/>
        <pt x="135" y="779" on="1"/>
        <pt x="252" y="903" on="1"/>
        <pt x="268" y="916" on="0"/>
        <pt x="278" y="922" on="0"/>
      </contour>
    </TTGlyph>
    <TTGlyph name="Scommaaccent" xMin="30" yMin="-250" xMax="691" yMax="710">
      <contour>
        <pt x="47" y="582" on="0"/>
        <pt x="216" y="710" on="0"/>
        <pt x="491" y="710" on="0"/>
        <pt x="666" y="576" on="0"/>
        <pt x="666" y="503" on="1"/>
        <pt x="666" y="494" on="0"/>
        <pt x="653" y="481" on="0"/>
        <pt x="645" y="481" on="1"/>
        <pt x="445" y="481" on="1"/>
        <pt x="422" y="481" on="0"/>
        <pt x="384" y="515" on="0"/>
        <pt x="352" y="515" on="1"/>
        <pt x="304" y="515" on="0"/>
        <pt x="304" y="487" on="1"/>
        <pt x="304" y="472" on="0"/>
        <pt x="351" y="452" on="0"/>
        <pt x="415" y="444" on="1"/>
        <pt x="564" y="425" on="0"/>
        <pt x="691" y="324" on="0"/>
        <pt x="691" y="119" on="0"/>
        <pt x="504" y="-10" on="0"/>
        <pt x="202" y="-10" on="0"/>
        <pt x="30" y="114" on="0"/>
        <pt x="30" y="203" on="1"/>
        <pt x="30" y="212" on="0"/>
        <pt x="43" y="225" on="0"/>
        <pt x="52" y="225" on="1"/>
        <pt x="242" y="225" on="1"/>
        <pt x="263" y="225" on="0"/>
        <pt x="314" y="185" on="0"/>
        <pt x="359" y="185" on="1"/>
        <pt x="434" y="185" on="0"/>
        <pt x="434" y="213" on="1"/>
        <pt x="434" y="231" on="0"/>
        <pt x="380" y="250" on="0"/>
        <pt x="305" y="260" on="1"/>
        <pt x="47" y="294" on="0"/>
        <pt x="47" y="480" on="1"/>
      </contour>
      <contour>
        <pt x="316" y="-250" on="1"/>
        <pt x="199" y="-250" on="1"/>
        <pt x="180" y="-250" on="0"/>
        <pt x="180" y="-231" on="1"/>
        <pt x="180" y="-226" on="0"/>
        <pt x="185" y="-216" on="1"/>
        <pt x="260" y="-70" on="1"/>
        <pt x="269" y="-50" on="0"/>
        <pt x="302" y="-50" on="1"/>
        <pt x="442" y="-50" on="1"/>
        <pt x="458" y="-50" on="0"/>
        <pt x="458" y="-66" on="1"/>
        <pt x="458" y="-74" on="0"/>
        <pt x="453" y="-81" on="1"/>
        <pt x="353" y="-231" on="1"/>
        <pt x="341" y="-250" on="0"/>
      </contour>
    </TTGlyph>
    <TTGlyph name="T" xMin="30" yMin="0" xMax="670" yMax="700">
      <contour>
        <pt x="57" y="700" on="1"/>
        <pt x="643" y="700" on="1"/>
        <pt x="654" y="700" on="0"/>
        <pt x="670" y="684" on="0"/>
        <pt x="670" y="673" on="1"/>
        <pt x="670" y="512" on="1"/>
        <pt x="670" y="501" on="0"/>
        <pt x="654" y="485" on="0"/>
        <pt x="643" y="485" on="1"/>
        <pt x="477" y="485" on="1"/>
        <pt x="477" y="27" on="1"/>
        <pt x="477" y="16" on="0"/>
        <pt x="461" y="0" on="0"/>
        <pt x="450" y="0" on="1"/>
        <pt x="250" y="0" on="1"/>
        <pt x="239" y="0" on="0"/>
        <pt x="223" y="16" on="0"/>
        <pt x="223" y="27" on="1"/>
        <pt x="223" y="485" on="1"/>
        <pt x="57" y="485" on="1"/>
        <pt x="46" y="485" on="0"/>
        <pt x="30" y="501" on="0"/>
        <pt x="30" y="512" on="1"/>
        <pt x="30" y="673" on="1"/>
        <pt x="30" y="684" on="0"/>
        <pt x="46" y="700" on="0"/>
      </contour>
    </TTGlyph>
    <TTGlyph name="Tbar" xMin="30" yMin="0" xMax="670" yMax="700">
      <contour>
        <pt x="57" y="700" on="1"/>
        <pt x="643" y="700" on="1"/>
        <pt x="654" y="700" on="0"/>
        <pt x="670" y="684" on="0"/>
        <pt x="670" y="673" on="1"/>
        <pt x="670" y="512" on="1"/>
        <pt x="670" y="501" on="0"/>
        <pt x="654" y="485" on="0"/>
        <pt x="643" y="485" on="1"/>
        <pt x="477" y="485" on="1"/>
        <pt x="477" y="380" on="1"/>
        <pt x="561" y="380" on="1"/>
        <pt x="572" y="380" on="0"/>
        <pt x="588" y="364" on="0"/>
        <pt x="588" y="353" on="1"/>
        <pt x="588" y="282" on="1"/>
        <pt x="588" y="271" on="0"/>
        <pt x="572" y="255" on="0"/>
        <pt x="561" y="255" on="1"/>
        <pt x="477" y="255" on="1"/>
        <pt x="477" y="27" on="1"/>
        <pt x="477" y="16" on="0"/>
        <pt x="461" y="0" on="0"/>
        <pt x="450" y="0" on="1"/>
        <pt x="250" y="0" on="1"/>
        <pt x="239" y="0" on="0"/>
        <pt x="223" y="16" on="0"/>
        <pt x="223" y="27" on="1"/>
        <pt x="223" y="255" on="1"/>
        <pt x="127" y="255" on="1"/>
        <pt x="116" y="255" on="0"/>
        <pt x="100" y="271" on="0"/>
        <pt x="100" y="282" on="1"/>
        <pt x="100" y="353" on="1"/>
        <pt x="100" y="364" on="0"/>
        <pt x="116" y="380" on="0"/>
        <pt x="127" y="380" on="1"/>
        <pt x="223" y="380" on="1"/>
        <pt x="223" y="485" on="1"/>
        <pt x="57" y="485" on="1"/>
        <pt x="46" y="485" on="0"/>
        <pt x="30" y="501" on="0"/>
        <pt x="30" y="512" on="1"/>
        <pt x="30" y="673" on="1"/>
        <pt x="30" y="684" on="0"/>
        <pt x="46" y="700" on="0"/>
      </contour>
    </TTGlyph>
    <TTGlyph name="Tcaron" xMin="30" yMin="0" xMax="670" yMax="922">
      <contour>
        <pt x="57" y="700" on="1"/>
        <pt x="643" y="700" on="1"/>
        <pt x="654" y="700" on="0"/>
        <pt x="670" y="684" on="0"/>
        <pt x="670" y="673" on="1"/>
        <pt x="670" y="512" on="1"/>
        <pt x="670" y="501" on="0"/>
        <pt x="654" y="485" on="0"/>
        <pt x="643" y="485" on="1"/>
        <pt x="477" y="485" on="1"/>
        <pt x="477" y="27" on="1"/>
        <pt x="477" y="16" on="0"/>
        <pt x="461" y="0" on="0"/>
        <pt x="450" y="0" on="1"/>
        <pt x="250" y="0" on="1"/>
        <pt x="239" y="0" on="0"/>
        <pt x="223" y="16" on="0"/>
        <pt x="223" y="27" on="1"/>
        <pt x="223" y="485" on="1"/>
        <pt x="57" y="485" on="1"/>
        <pt x="46" y="485" on="0"/>
        <pt x="30" y="501" on="0"/>
        <pt x="30" y="512" on="1"/>
        <pt x="30" y="673" on="1"/>
        <pt x="30" y="684" on="0"/>
        <pt x="46" y="700" on="0"/>
      </contour>
      <contour>
        <pt x="415" y="750" on="1"/>
        <pt x="285" y="750" on="1"/>
        <pt x="274" y="750" on="0"/>
        <pt x="264" y="756" on="0"/>
        <pt x="248" y="769" on="1"/>
        <pt x="131" y="893" on="1"/>
        <pt x="126" y="898" on="0"/>
        <pt x="126" y="906" on="1"/>
        <pt x="126" y="922" on="0"/>
        <pt x="142" y="922" on="1"/>
        <pt x="213" y="922" on="1"/>
        <pt x="232" y="922" on="0"/>
        <pt x="253" y="915" on="1"/>
        <pt x="350" y="873" on="1"/>
        <pt x="447" y="915" on="1"/>
        <pt x="468" y="922" on="0"/>
        <pt x="487" y="922" on="1"/>
        <pt x="558" y="922" on="1"/>
        <pt x="574" y="922" on="0"/>
        <pt x="574" y="906" on="1"/>
        <pt x="574" y="898" on="0"/>
        <pt x="569" y="893" on="1"/>
        <pt x="452" y="769" on="1"/>
        <pt x="436" y="756" on="0"/>
        <pt x="426" y="750" on="0"/>
      </contour>
    </TTGlyph>
    <TTGlyph name="Tcommaaccent" xMin="30" yMin="-250" xMax="670" yMax="700">
      <contour>
        <pt x="57" y="700" on="1"/>
        <pt x="643" y="700" on="1"/>
        <pt x="654" y="700" on="0"/>
        <pt x="670" y="684" on="0"/>
        <pt x="670" y="673" on="1"/>
        <pt x="670" y="512" on="1"/>
        <pt x="670" y="501" on="0"/>
        <pt x="654" y="485" on="0"/>
        <pt x="643" y="485" on="1"/>
        <pt x="477" y="485" on="1"/>
        <pt x="477" y="27" on="1"/>
        <pt x="477" y="16" on="0"/>
        <pt x="461" y="0" on="0"/>
        <pt x="450" y="0" on="1"/>
        <pt x="250" y="0" on="1"/>
        <pt x="239" y="0" on="0"/>
        <pt x="223" y="16" on="0"/>
        <pt x="223" y="27" on="1"/>
        <pt x="223" y="485" on="1"/>
        <pt x="57" y="485" on="1"/>
        <pt x="46" y="485" on="0"/>
        <pt x="30" y="501" on="0"/>
        <pt x="30" y="512" on="1"/>
        <pt x="30" y="673" on="1"/>
        <pt x="30" y="684" on="0"/>
        <pt x="46" y="700" on="0"/>
      </contour>
      <contour>
        <pt x="299" y="-250" on="1"/>
        <pt x="182" y="-250" on="1"/>
        <pt x="163" y="-250" on="0"/>
        <pt x="163" y="-231" on="1"/>
        <pt x="163" y="-226" on="0"/>
        <pt x="168" y="-216" on="1"/>
        <pt x="243" y="-70" on="1"/>
        <pt x="252" y="-50" on="0"/>
        <pt x="285" y="-50" on="1"/>
        <pt x="425" y="-50" on="1"/>
        <pt x="441" y="-50" on="0"/>
        <pt x="441" y="-66" on="1"/>
        <pt x="441" y="-74" on="0"/>
        <pt x="436" y="-81" on="1"/>
        <pt x="336" y="-231" on="1"/>
        <pt x="324" y="-250" on="0"/>
      </contour>
    </TTGlyph>
    <TTGlyph name="Thorn" xMin="65" yMin="0" xMax="696" yMax="700">
      <contour>
        <pt x="92" y="700" on="1"/>
        <pt x="298" y="700" on="1"/>
        <pt x="309" y="700" on="0"/>
        <pt x="325" y="684" on="0"/>
        <pt x="325" y="673" on="1"/>
        <pt x="325" y="601" on="1"/>
        <pt x="390" y="601" on="1"/>
        <pt x="534" y="601" on="0"/>
        <pt x="696" y="477" on="0"/>
        <pt x="696" y="235" on="0"/>
        <pt x="535" y="119" on="0"/>
        <pt x="390" y="119" on="1"/>
        <pt x="325" y="119" on="1"/>
        <pt x="325" y="27" on="1"/>
        <pt x="325" y="16" on="0"/>
        <pt x="309" y="0" on="0"/>
        <pt x="298" y="0" on="1"/>
        <pt x="92" y="0" on="1"/>
        <pt x="81" y="0" on="0"/>
        <pt x="65" y="16" on="0"/>
        <pt x="65" y="27" on="1"/>
        <pt x="65" y="673" on="1"/>
        <pt x="65" y="684" on="0"/>
        <pt x="81" y="700" on="0"/>
      </contour>
      <contour>
        <pt x="320" y="415" on="1"/>
        <pt x="320" y="304" on="1"/>
        <pt x="390" y="304" on="1"/>
        <pt x="408" y="304" on="0"/>
        <pt x="436" y="331" on="0"/>
        <pt x="436" y="381" on="0"/>
        <pt x="414" y="415" on="0"/>
        <pt x="390" y="415" on="1"/>
      </contour>
    </TTGlyph>
    <TTGlyph name="Tilde" xMin="50" yMin="747" xMax="477" yMax="915">
      <contour>
        <pt x="436" y="779" on="0"/>
        <pt x="379" y="747" on="0"/>
        <pt x="308" y="747" on="0"/>
        <pt x="220" y="781" on="0"/>
        <pt x="181" y="781" on="0"/>
        <pt x="168" y="759" on="1"/>
        <pt x="163" y="750" on="0"/>
        <pt x="153" y="750" on="1"/>
        <pt x="69" y="750" on="1"/>
        <pt x="61" y="750" on="0"/>
        <pt x="50" y="761" on="0"/>
        <pt x="50" y="784" on="0"/>
        <pt x="57" y="819" on="0"/>
        <pt x="76" y="860" on="0"/>
        <pt x="90" y="876" on="1"/>
        <pt x="124" y="915" on="0"/>
        <pt x="186" y="915" on="1"/>
        <pt x="219" y="915" on="0"/>
        <pt x="307" y="881" on="0"/>
        <pt x="344" y="881" on="0"/>
        <pt x="364" y="912" on="0"/>
        <pt x="374" y="912" on="1"/>
        <pt x="458" y="912" on="1"/>
        <pt x="477" y="912" on="0"/>
        <pt x="477" y="873" on="0"/>
        <pt x="464" y="828" on="0"/>
      </contour>
    </TTGlyph>
    <TTGlyph name="U" xMin="55" yMin="-10" xMax="703" yMax="700">
      <contour>
        <pt x="480" y="700" on="1"/>
        <pt x="676" y="700" on="1"/>
        <pt x="687" y="700" on="0"/>
        <pt x="703" y="684" on="0"/>
        <pt x="703" y="673" on="1"/>
        <pt x="703" y="271" on="1"/>
        <pt x="703" y="131" on="0"/>
        <pt x="529" y="-10" on="0"/>
        <pt x="230" y="-10" on="0"/>
        <pt x="55" y="130" on="0"/>
        <pt x="55" y="271" on="1"/>
        <pt x="55" y="673" on="1"/>
        <pt x="55" y="684" on="0"/>
        <pt x="71" y="700" on="0"/>
        <pt x="82" y="700" on="1"/>
        <pt x="278" y="700" on="1"/>
        <pt x="289" y="700" on="0"/>
        <pt x="305" y="684" on="0"/>
        <pt x="305" y="673" on="1"/>
        <pt x="305" y="268" on="1"/>
        <pt x="305" y="191" on="0"/>
        <pt x="453" y="191" on="0"/>
        <pt x="453" y="268" on="1"/>
        <pt x="453" y="673" on="1"/>
        <pt x="453" y="684" on="0"/>
        <pt x="469" y="700" on="0"/>
      </contour>
    </TTGlyph>
    <TTGlyph name="Uacute" xMin="55" yMin="-10" xMax="703" yMax="922">
      <contour>
        <pt x="480" y="700" on="1"/>
        <pt x="676" y="700" on="1"/>
        <pt x="687" y="700" on="0"/>
        <pt x="703" y="684" on="0"/>
        <pt x="703" y="673" on="1"/>
        <pt x="703" y="271" on="1"/>
        <pt x="703" y="131" on="0"/>
        <pt x="529" y="-10" on="0"/>
        <pt x="230" y="-10" on="0"/>
        <pt x="55" y="130" on="0"/>
        <pt x="55" y="271" on="1"/>
        <pt x="55" y="673" on="1"/>
        <pt x="55" y="684" on="0"/>
        <pt x="71" y="700" on="0"/>
        <pt x="82" y="700" on="1"/>
        <pt x="278" y="700" on="1"/>
        <pt x="289" y="700" on="0"/>
        <pt x="305" y="684" on="0"/>
        <pt x="305" y="673" on="1"/>
        <pt x="305" y="268" on="1"/>
        <pt x="305" y="191" on="0"/>
        <pt x="453" y="191" on="0"/>
        <pt x="453" y="268" on="1"/>
        <pt x="453" y="673" on="1"/>
        <pt x="453" y="684" on="0"/>
        <pt x="469" y="700" on="0"/>
      </contour>
      <contour>
        <pt x="434" y="922" on="1"/>
        <pt x="631" y="922" on="1"/>
        <pt x="650" y="922" on="0"/>
        <pt x="650" y="902" on="1"/>
        <pt x="650" y="895" on="0"/>
        <pt x="645" y="890" on="1"/>
        <pt x="487" y="760" on="1"/>
        <pt x="476" y="750" on="0"/>
        <pt x="446" y="750" on="1"/>
        <pt x="306" y="750" on="1"/>
        <pt x="290" y="750" on="0"/>
        <pt x="290" y="766" on="1"/>
        <pt x="290" y="774" on="0"/>
        <pt x="295" y="779" on="1"/>
        <pt x="397" y="903" on="1"/>
        <pt x="414" y="922" on="0"/>
      </contour>
    </TTGlyph>
</ttFont>
